<svg width="538" height="409" fill="none" xmlns="http://www.w3.org/2000/svg">
  <g clip-path="url(#clip0)">
    <path opacity=".1" d="M188.721 401.078c51.83 0 93.847-7.733 93.847-17.273 0-9.539-42.017-17.272-93.847-17.272-51.829 0-93.846 7.733-93.846 17.272 0 9.54 42.017 17.273 93.846 17.273zM312.581 57.68c-34.49-1.16-67.339-11.981-98.707-23.817-31.367-11.837-62.436-24.946-96.1-31.217-21.653-4.033-46.417-4.608-63.86 6.659-16.792 10.873-22.217 29.59-25.132 46.972-2.196 13.079-3.485 26.846 2.526 39.091 4.178 8.502 11.586 15.647 16.712 23.792 17.837 28.332 5.228 63.271-14.095 90.935-9.06 12.975-19.585 25.371-26.582 39.169-6.997 13.799-10.232 29.663-4.109 43.777 6.065 13.98 20.523 24.46 36.185 31.838 31.81 14.989 69.279 19.276 105.843 21.71 80.912 5.374 162.251 3.05 243.377.714 30.024-.859 60.177-1.734 89.711-6.244 16.403-2.506 33.334-6.482 45.245-16.082 15.113-12.183 18.859-32.811 8.729-48.085-16.99-25.629-63.95-31.993-75.84-59.491-6.533-15.14.176-31.998 9.678-46.035 20.379-30.118 54.534-56.54 56.329-90.961 1.237-23.642-15.182-47.319-40.57-58.508-26.609-11.727-63.513-10.252-83.135 9.16-20.225 19.965-55.749 27.653-86.205 26.623z" fill="#6C63FF"/>
    <path d="M285.174 187.297l-16.323-10.692 8.233-11.908-43.113-3.34-15.492 11.639-19.392-10.562-16.174 1.89-.192-4.142c-.2-4.319-.647-8.623-1.338-12.893a78.22 78.22 0 00.112-4.396c0-6.808-.949-15.833-5.116-21.849l.959-8.378-7.78-8.931a56.71 56.71 0 014.263-6.97c.266-.372.533-.735.821-1.087 10.098-.71 18.066-8.776 18.066-18.64 0-.455 0-.91-.054-1.361 0-.181-.037-.368-.058-.549.986.518 1.982 1.035 2.979 1.553.186.26.399.518.634.823l.048.057.298.358.096.109c.107.124.219.243.331.367l.074.083c.283.305.581.616.901.922.038.03.073.063.106.098l.4.362.112.099c.341.295.703.58 1.066.849l.117.083.458.305.15.093c.175.104.357.213.532.311l.064.036c.208.109.421.213.635.311l.106.041c.181.076.359.149.533.218l.165.057c.187.062.368.119.56.17l.117.032c.235.057.469.103.709.14h.027c.225.035.453.057.682.067h.154c.204.01.409.01.613 0h.133c.256-.014.51-.044.762-.088a8.567 8.567 0 003.358-1.17c.259-.17.49-.377.682-.617 1.066-1.356-.107-2.842-.107-2.842-.415-.963-3.112-1.641-3.112-1.641s-8.527-3.459-8.527-6.213c0-2.755-2.131-17.045-24.135-20.313 0 0-14.315-.781-18.338 6.664l-.085.87c-1.183.72-2.164 2.164-3.331 2.589-.504.105-.991.28-1.444.518v-.099a1.338 1.338 0 00-.325.41 4.06 4.06 0 00-.443 1.552 5.74 5.74 0 01-.698 1.88 4.199 4.199 0 01-.319.476l-.091.14c.619.047 1.24-.05 1.812-.285a8.55 8.55 0 01-.533 2.072c.339.01.673-.074.964-.243a1.74 1.74 0 00.677-.71v-.042l.07-.093c.134-.24.244-.49.33-.75l-.059.062c.107-.337.203-.679.32-1.01a1.57 1.57 0 01.261-.518 1.327 1.327 0 011.103-.357l-.218 4.489h.096a6.083 6.083 0 01-.469.942c-.757 1.191-2.132 2.004-2.638 3.309a4.735 4.735 0 00-.245 1.957c0 .388.048.782.08 1.17v-.031c.074 1.035.096 2.02-.48 2.853-.394.57-1.028 1-1.247 1.646-.06.18-.087.37-.08.56.043.567.165 1.126.363 1.662a.08.08 0 000-.031c.132.394.164.813.09 1.222-.24 1.035-1.535 1.9-1.471 2.889-.003.13.016.26.059.383.249.483.68.854 1.204 1.035a4.804 4.804 0 002.707.58 3.623 3.623 0 001.013-.336 66.279 66.279 0 01-1.332 2.811s-3.294-2.138-5.164 2.221a9.514 9.514 0 00-1.157 2.92 6.72 6.72 0 01-.394 1.202 7.878 7.878 0 01-3.56 3.106c-3.816 1.699-19.228 20.375-19.499 25.21a27.508 27.508 0 01-.981 5.582 32.294 32.294 0 00-.916 13.198c.19 1.427.506 2.835.943 4.209 1.636 4.831 2.728 13.845 2.728 13.845l1.77 15.647c-.066 2.16.03 4.321.287 6.467-1.806 2.004-9.059 10.356-6.288 12.629 2.132 1.791 5.862 1.496 7.956 1.128-1.764 4.241-4.54 11.614-4.908 16.678-.533 7.492.912 17.417 3.198 21.228s9.907 13.586 9.907 13.586-.357 13.411 2.366 18.283c2.723 4.872 3.821 14.979 3.821 14.979s2.542 8.533 1.268 11.67c-1.274 3.138 2.361 5.747-1.455 7.834-3.815 2.087-8.697 49.115-8.697 49.115s-1.966 30.823 0 32.392a2.1 2.1 0 00.336.192V393.7s-1.364 2.175 4.183 2.615c3.8.295 14.57.963 20.96 1.351l4.951.3s11.724 2.268 16.904 0 14.362-2.216 12.998-8.206a16.76 16.76 0 00-.725-2.398c-1.498-3.717-4.04-4.142-8.724-5.177a21.482 21.482 0 00-.773-.15c-4.935-.834-6.555 1.398-9.321-1.507-2.403-2.511-10.056-5.323-12.662-6.213.064-.187.144-.368.208-.56a3.935 3.935 0 01-1.977-.937l7.061.435 4.205.254s9.965 1.931 14.389 0c4.423-1.931 12.203-1.88 11.042-6.969a14.246 14.246 0 00-.613-2.04c-1.274-3.159-3.437-3.506-7.418-4.381-.229-.046-.443-.093-.656-.129-4.194-.709-5.569 1.186-7.919-1.279-2.014-2.102-8.372-4.458-10.658-5.26 0-1.15-1.599-2.786-2.606-4.427-1.183-1.916 1.002-8.621 1.002-8.621l1.247-27.82a5.665 5.665 0 011.492-.414s5.638-5.229 4.364-10.801a34.974 34.974 0 01-.405-5.089c1.855-1.673 4.408-4.142 5.132-5.665 1.183-2.48 0-14.497 0-14.497v-45.952l9.433.927 8.559.854 2.606.259 8.558.839 19.67 1.931 17.725-3.262 7.669-1.408 15.769-2.9v-37.486l16.323-2.62zM155.35 63.079l-1.098-.113c.363.015.746.082 1.098.114z" fill="url(#paint0_linear)"/>
    <path d="M246.916 211.637c-5.329 7.41-24.488 3.485-24.488 3.485l-14.847-13.498-1.998-1.828 3.352-6.917s1.066.284 2.894.792c9.598 2.708 39.585 11.738 35.087 17.966z" fill="#EFB7B9"/>
    <path opacity=".1" d="M211.818 193.671c-.655 2.216-2.451 5.535-4.237 7.953l-1.998-1.828 3.352-6.917s1.077.284 2.883.792z" fill="#000"/>
    <path d="M160.898 115.664s-13.685 5.897-13.014 20.379c.483 9.33 1.53 18.625 3.134 27.836 0 0-2.798 21.792 8.852 27.41a623.605 623.605 0 0022.43 10.236s18.226 1.906 20.491 2.693c2.264.787 9.342-11.246 8.036-13.12-1.306-1.875-18.034-5.805-20.166-8.932-2.131-3.127-7.061-5.058-7.061-5.058s-5.089-2.993-5.435-5.696c-.347-2.703.996-4.717 1.337-5.902.341-1.186 1.205-12.634 1.205-12.634s5.744-40.748-19.809-37.212z" fill="#DCE6F2"/>
    <path opacity=".1" d="M169.931 163.283s-18.775 3.055-16.957 9.439c0 0 6.815-6.891 16.957-9.439zM170.075 165.867s-10.323 8.186-8.303 8.605c2.02.419 8.303-8.605 8.303-8.605zM175.036 168.72s-2.766 5.504-1.066 5.131c1.7-.373 1.066-5.131 1.066-5.131z" fill="#000"/>
    <path opacity=".1" d="M212.511 194.256l-1.14-.316c.325-1.035.415-1.874.149-2.263-1.306-1.874-18.023-5.799-20.15-8.931-2.126-3.133-7.061-5.059-7.061-5.059s-5.089-2.992-5.435-5.695c-.347-2.703.996-4.717 1.337-5.903.341-1.185 1.205-12.638 1.205-12.638s5.728-40.743-19.825-37.207c0 0-13.685 5.902-13.019 20.384a231.407 231.407 0 003.139 27.836s-2.798 21.792 8.852 27.41c11.649 5.618 22.43 10.236 22.43 10.236s18.22 1.901 20.491 2.693c.858.3 2.408-1.248 3.927-3.376l.863.782 14.848 13.493s19.158 3.93 24.487-3.48c4.503-6.233-25.479-15.263-35.098-17.966z" fill="#000"/>
    <path d="M153.022 61.309c-.522.099-1.022.287-1.477.554-.532.43-.532 1.165-.666 1.807a5.845 5.845 0 01-1.066 2.475 3.931 3.931 0 001.775-.285 8.648 8.648 0 01-.533 2.071c.332.008.66-.077.943-.245.284-.168.511-.412.656-.702a9.78 9.78 0 00.666-1.818c.05-.187.137-.363.256-.517.49-.565 1.401-.311 2.158-.239a3.635 3.635 0 001.832-.327 3.511 3.511 0 001.408-1.185c.805-1.185.853-4.22-1.066-4.54-2.003-.321-3.25 2.36-4.886 2.95z" fill="#965D7B"/>
    <g opacity=".1" fill="#000">
      <path opacity=".1" d="M151.492 62.5c.048-.254.08-.518.139-.772-.506.43-.533 1.16-.666 1.807-.067.374-.173.74-.315 1.093.42-.65.706-1.373.842-2.128zM151.663 66.776a8.45 8.45 0 00.533-2.07 3.92 3.92 0 01-1.69.284 5.946 5.946 0 01-.612 1.036 3.891 3.891 0 001.769-.28 8.45 8.45 0 01-.533 2.071c.332.008.659-.078.942-.246a1.7 1.7 0 00.657-.701 3.8 3.8 0 00.319-.74 1.585 1.585 0 01-.607.495 1.64 1.64 0 01-.778.151zM156.342 63.256c-.757-.073-1.674-.327-2.164.238a1.588 1.588 0 00-.256.517c-.048.135-.09.275-.128.415.507-.389 1.327-.181 2.015-.114a3.652 3.652 0 001.831-.33 3.539 3.539 0 001.409-1.182 2.84 2.84 0 00.357-.813 3.543 3.543 0 01-1.369 1.005 3.648 3.648 0 01-1.695.264z"/>
    </g>
    <path d="M169.062 104.071l8.127 9.496-1.06 9.584-9.822-14.938 2.755-4.142z" fill="#DCE6F2"/>
    <path opacity=".1" d="M177.184 113.567l-.997 9.014-.064.57-8.862-13.483-.954-1.455.277-.419 2.473-3.723.549.642 7.578 8.854z" fill="#000"/>
    <path d="M181.405 91.215c-2.75.766-5.377 3.397-7.664 6.591a55.911 55.911 0 00-4.135 6.907 86.792 86.792 0 00-1.961 4.085l-.384.87c-.927 2.128-1.444 3.552-1.444 3.552s-21.05-15.377-17.719-16.413c1.119-.347 2.59-2.677 4.044-5.613l.182-.372c.922-1.885 1.827-3.987 2.632-5.965a173.99 173.99 0 002.867-7.596s31.975 11.624 23.582 13.954z" fill="#EFB7B9"/>
    <path d="M193.998 76.397s4.86 8.543 11.388 7.378c6.528-1.165 3.842-4.588 3.842-4.588l-15.23-2.79z" fill="#444053"/>
    <path d="M184.581 372.119c-4.306 1.911-14.043 0-14.043 0l-4.103-.248c-5.329-.331-14.25-.891-17.405-1.139-4.605-.368-3.475-2.201-3.475-2.201v-11.075l22.34-5.498s8.83 2.935 11.25 5.498c2.297 2.444 3.64.565 7.738 1.269.202.036.415.077.639.129 3.89.865 6.001 1.207 7.248 4.339.25.658.452 1.333.602 2.019 1.151 5.043-6.491 5.007-10.791 6.907z" fill="#A36468"/>
    <path opacity=".1" d="M194.77 363.193c-.801.486-1.642.905-2.516 1.253-2.931 1.3-5.718 2.884-8.681 4.111-2.963 1.227-6.155 2.102-9.363 1.869-1.679-.119-3.395-.517-4.999-.051a11.62 11.62 0 00-2.776 1.496c-5.329-.331-14.25-.891-17.405-1.139-4.605-.368-3.475-2.201-3.475-2.201v-1.294c.165 0 .352-.047.565-.062a10.342 10.342 0 013.251.471c2.313.611 4.615 1.212 6.928 1.812a5.26 5.26 0 01.982-1.918 5.436 5.436 0 011.682-1.385 8.703 8.703 0 014.296-.958c3.586.047 6.981 1.698 10.562 1.864a5.986 5.986 0 002.926-.476c.49-.239.922-.585 1.401-.85.768-.36 1.579-.626 2.414-.792a54.299 54.299 0 006.902-2.164c.639-.243 1.385-.683 1.3-1.346-.112-.88-1.535-.984-1.908-1.792a1.01 1.01 0 01.043-.916c.202.036.415.078.639.129 3.874.865 5.985 1.207 7.232 4.339z" fill="#000"/>
    <path d="M180.03 396.351c-5.063 2.247-16.521 0-16.521 0l-4.823-.275c-6.245-.388-16.765-1.035-20.48-1.341-5.419-.434-4.087-2.588-4.087-2.588v-13.053l26.289-6.472s10.391 3.453 13.237 6.472c2.702 2.873 4.264.662 9.108 1.491.24.041.49.093.751.15 4.578 1.036 7.061 1.424 8.527 5.11.297.774.533 1.569.709 2.377 1.321 5.934-7.648 5.887-12.71 8.129z" fill="#A36468"/>
    <path opacity=".1" d="M192.02 385.845a19.94 19.94 0 01-2.957 1.476c-3.448 1.528-6.731 3.391-10.216 4.836-3.486 1.445-7.243 2.47-11.021 2.201-1.972-.14-3.992-.622-5.862-.063a13.716 13.716 0 00-3.278 1.782c-6.245-.389-16.765-1.036-20.48-1.341-5.419-.435-4.087-2.589-4.087-2.589v-1.523c.221-.035.443-.059.666-.072a12.003 12.003 0 013.826.554l8.149 2.133a6.194 6.194 0 011.167-2.26 6.407 6.407 0 011.993-1.628 10.178 10.178 0 015.057-1.129c4.221.057 8.212 1.999 12.428 2.195a7.05 7.05 0 003.432-.554c.581-.284 1.066-.693 1.652-.999a11.82 11.82 0 012.84-.932 65.177 65.177 0 008.079-2.547c.752-.29 1.631-.808 1.53-1.585-.133-1.035-1.807-1.16-2.249-2.112a1.218 1.218 0 01.053-1.077c.24.041.49.093.752.15 4.577.994 7.061 1.398 8.526 5.084z" fill="#000"/>
    <path d="M168.572 306.782l-1.423 32.532s-2.132 6.643-.975 8.543c1.156 1.9 3.107 3.795 2.398 4.919-.709 1.123-9.235 13.27-11.991 8.61-2.755-4.66-5.473-24.853-5.473-24.853l2.542-24.941 14.922-4.81zM174.743 225.731l3.955 5.136v44.673s1.156 11.909 0 14.368c-1.157 2.46-7.019 7.378-7.019 7.378l-4.929-24.594 1.065-26.017 6.928-20.944z" fill="#444053"/>
    <path opacity=".1" d="M168.572 306.782l-1.423 32.532s-2.132 6.643-.975 8.543c1.156 1.9 3.107 3.795 2.398 4.919-.709 1.123-9.235 13.27-11.991 8.61-2.755-4.66-5.473-24.853-5.473-24.853l2.542-24.941 14.922-4.81zM174.743 225.731l3.955 5.136v44.673s1.156 11.909 0 14.368c-1.157 2.46-7.019 7.378-7.019 7.378l-4.929-24.594 1.065-26.017 6.928-20.944z" fill="#000"/>
    <path d="M178.697 206.677v24.164l-4.439 18.811s-1.423 45.393-.181 50.912c1.242 5.519-4.263 10.702-4.263 10.702s-3.198.347-3.198 2.76-5.329 9.32-5.329 9.32l.176 13.462s2.313 25.199-1.242 30.03c-3.554 4.831 1.242 5.525 1.242 5.525-4.439 14.15-25.756 10.873-27.68 9.32-1.924-1.554 0-32.102 0-32.102s4.765-46.599 8.495-48.67c3.73-2.071.181-4.66 1.423-7.767 1.242-3.106-1.242-11.561-1.242-11.561s-1.066-10.014-3.73-14.845c-2.665-4.831-2.313-18.122-2.313-18.122s-7.461-9.666-9.678-13.462c-2.217-3.795-3.645-13.632-3.112-21.057.362-5.017 3.075-12.323 4.796-16.527.826-2.015 1.423-3.319 1.423-3.319l.506.129 29.108 7.404 19.238 4.893z" fill="#444053"/>
    <path opacity=".1" d="M181.405 91.215c-2.75.766-5.377 3.397-7.664 6.591h-.597a19.466 19.466 0 01-9.544-2.485 18.777 18.777 0 01-6.976-6.798 17.943 17.943 0 01-1.673-3.702c1.646-4.065 2.867-7.596 2.867-7.596s31.98 11.66 23.587 13.99z" fill="#000"/>
    <path d="M192.196 78.271c.005 2.833-.66 5.63-1.943 8.173a18.619 18.619 0 01-5.456 6.501 19.311 19.311 0 01-7.85 3.494 19.59 19.59 0 01-8.63-.232 19.246 19.246 0 01-7.64-3.91 18.55 18.55 0 01-5.078-6.783 18.043 18.043 0 01.956-16.314 18.063 18.063 0 012.014-2.827 19.123 19.123 0 014.381-3.739 19.44 19.44 0 019.265-2.864c3.292-.16 6.57.512 9.514 1.95a18.89 18.89 0 017.284 6.26 18.166 18.166 0 013.157 8.934c.01.456.026.906.026 1.357z" fill="#EFB7B9"/>
    <path opacity=".1" d="M176.188 122.581l-.064.57-8.863-13.462a67.871 67.871 0 00-1.444 3.552s-21.05-15.398-17.719-16.434c1.119-.347 2.59-2.677 4.044-5.613l.182-.373c1.545 4.474 10.525 13.416 14.26 16.999a48.4 48.4 0 001.066 1.004l.57.518.299.29c1.359 1.362 7.093 7.368 7.669 12.949z" fill="#000"/>
    <path d="M182.812 168.259l-.97 30.326-.171 5.4s-11.49-1.036-22.212-2.175c-8.633-.916-16.771-1.905-18.023-2.485-1.599-.73-5.025-1.295-7.727-1.652-2.089-.274-3.731-.419-3.731-.419s-.613.176-1.556.342c-2.057.362-5.67.657-7.775-1.119-2.691-2.273 4.38-10.531 6.144-12.514l.389-.43-.666-5.98-1.732-15.507s-1.065-8.932-2.664-13.721a24.63 24.63 0 01-.922-4.168 32.47 32.47 0 01.895-13.079c.506-1.81.828-3.664.959-5.535.267-4.789 15.322-23.299 19.052-24.982a7.802 7.802 0 003.816-3.697 6.93 6.93 0 00.581-1.61c1.598-6.731 5.643-4.06 5.643-4.06.975 5.266 16.073 19.204 16.073 19.204l.298.29c1.498 1.491 8.17 8.492 7.696 14.467a17.074 17.074 0 001.007 6.544 107.843 107.843 0 015.249 28.995l.347 7.565z" fill="#DCE6F2"/>
    <path opacity=".1" d="M161.42 132.248s-3.73 8.802-6.528 10.226c-2.798 1.424 7.861 3.003 6.528-10.226zM164.218 148.687s-8.527 1.036-8.527 2.589 8.527-2.589 8.527-2.589zM173.145 158.784s-12.391 25.629-15.855 26.406c-3.464.776 15.855-26.406 15.855-26.406zM167.98 111.698l-10.248 4.328-12.369-18.153c.26-.511.455-1.052.581-1.61 1.599-6.73 5.644-4.06 5.644-4.06.975 5.267 16.073 19.205 16.073 19.205l.319.29z" fill="#000"/>
    <path d="M168.513 110.662l-10.248 4.329-12.369-18.153c.26-.512.455-1.053.581-1.61 1.599-6.731 5.644-4.06 5.644-4.06.975 5.266 16.073 19.204 16.073 19.204l.319.29z" fill="#DCE6F2"/>
    <path opacity=".1" d="M181.671 203.985s-11.489-1.036-22.212-2.175l19.239 4.893v5.696c-.842.74-1.572 1.123-2.047.926-2.217-.906-20.309-3.753-20.309-3.753s-10.509-5.178-21.85-11.391a8.777 8.777 0 01-.799-.487 12.415 12.415 0 01-3.357-3.267c-2.095-2.946-3.118-6.731-3.56-10.443a43.727 43.727 0 01-.277-6.41c.054-2.427.282-4.848.682-7.244a231.427 231.427 0 01-1.599-27.959c.133-14.498 14.122-19.676 14.122-19.676 25.713-2.2 17.741 38.186 17.741 38.186s-1.487 11.391-1.892 12.556c-.405 1.165-1.86 3.106-1.663 5.825.198 2.718 5.111 5.969 5.111 5.969s4.796 2.185 6.773 5.421c1.439 2.387 10.787 5.623 16.068 7.933l-.171 5.4zM190.283 66.776a5.715 5.715 0 01-.533 2.475c-.273.635-.59 1.25-.948 1.844a8.545 8.545 0 01-2.334 2.816c-1.232.855-2.788 1.093-4.264 1.44-1.476.347-3.011.9-3.853 2.123a7.289 7.289 0 00-.9 2.537 5.391 5.391 0 01-1.066 2.454c-.291.351-.694.6-1.145.704a2.15 2.15 0 01-1.349-.124 2.46 2.46 0 01-.965-1.207c-.607-1.33-.762-2.806-1.007-4.24-.245-1.434-.592-2.91-1.498-4.065-.906-1.154-2.51-1.915-3.932-1.465a3.796 3.796 0 00-1.277.793 3.674 3.674 0 00-.855 1.216 11.275 11.275 0 00-.805 2.858 159.945 159.945 0 01-2.339 10.48.962.962 0 01-.176.393.78.78 0 01-.533.218c-1.194.155-2.34-.658-3.544-.57a2.105 2.105 0 00-.368.057 18.073 18.073 0 01-2.463-10.857 18.228 18.228 0 014.387-10.268l.096-.026a5.777 5.777 0 002.132-1.304 22.091 22.091 0 002.131-2.398l.427-.517a24.04 24.04 0 014.156-3.837 4.31 4.31 0 011.418-.746 4.316 4.316 0 011.343-.041c1.84.215 3.696.282 5.548.202 1.29-.197 2.59-.325 3.895-.383 3.374.093 6.251 2.407 8.383 4.944 1.146 1.3 2.169 2.796 2.238 4.495z" fill="#000"/>
    <path d="M154.066 69.691c-.741 1.18-2.079 1.983-2.579 3.278-.736 1.88.506 4.22-.635 5.897-.378.565-1.002.984-1.215 1.631-.362 1.093.629 2.258.373 3.381-.255 1.124-1.78 2.071-1.375 3.169.24.479.66.85 1.173 1.035.807.45 1.737.651 2.664.575 1.455-.233 2.537-1.62 4.013-1.724 1.199-.083 2.345.725 3.539.575.2-.007.39-.087.533-.223a.89.89 0 00.176-.393 164.97 164.97 0 002.344-10.48c.137-.983.405-1.944.8-2.858.199-.456.49-.869.857-1.214a3.835 3.835 0 011.274-.795c1.423-.445 3.022.31 3.933 1.465.912 1.155 1.258 2.63 1.503 4.065.245 1.434.4 2.91 1.002 4.24.183.494.523.918.97 1.212.799.45 1.876.093 2.489-.58a5.326 5.326 0 001.066-2.46 7.26 7.26 0 01.9-2.531c.842-1.222 2.382-1.776 3.853-2.123 1.471-.347 3.022-.59 4.264-1.445a8.591 8.591 0 002.334-2.811c.788-1.336 1.524-2.786 1.46-4.324-.069-1.677-1.093-3.173-2.185-4.478-2.132-2.537-5.015-4.852-8.388-4.94a34.119 34.119 0 00-3.896.383 34.287 34.287 0 01-5.547-.207 4.487 4.487 0 00-1.343.047 4.062 4.062 0 00-1.413.745 24.046 24.046 0 00-4.162 3.832 29.97 29.97 0 01-2.568 2.9 5.814 5.814 0 01-2.132 1.31c-.533.144-1.066.04-1.572.201-1.572.482-1.78 2.475-2.51 3.645z" fill="#965D7B"/>
    <path opacity=".1" d="M205.386 83.77c-4.263.76-7.797-2.59-9.752-5.033a20.164 20.164 0 01-1.636-2.34l14.633 2.681.592.11s2.691 3.422-3.837 4.581z" fill="#000"/>
    <g opacity=".1" fill="#000">
      <path opacity=".1" d="M150.01 82.398a4.195 4.195 0 00-.309-1.989c0 .052-.048.104-.064.156-.229.694.08 1.413.277 2.133.043-.097.075-.197.096-.3zM151.279 73.922c-.055.716-.041 1.435.042 2.148.055-.716.041-1.435-.042-2.148zM188.29 69.08a8.544 8.544 0 01-2.334 2.817c-1.231.854-2.782 1.093-4.264 1.44-1.481.346-3.011.9-3.853 2.123a7.332 7.332 0 00-.9 2.537 5.35 5.35 0 01-1.066 2.459c-.613.673-1.69 1.035-2.489.58a2.488 2.488 0 01-.97-1.212c-.602-1.33-.762-2.8-1.002-4.24-.239-1.44-.597-2.91-1.502-4.065-.906-1.154-2.511-1.916-3.933-1.465-.476.179-.91.449-1.276.794a3.677 3.677 0 00-.856 1.215 11.013 11.013 0 00-.799 2.858 160.936 160.936 0 01-2.345 10.48.89.89 0 01-.176.393.812.812 0 01-.533.223c-1.194.15-2.34-.658-3.539-.575-1.476.104-2.558 1.491-4.012 1.719a4.613 4.613 0 01-2.665-.575 2.852 2.852 0 01-.975-.673 1.352 1.352 0 00-.197 1.206c.234.483.656.855 1.172 1.036a4.613 4.613 0 002.665.575c1.454-.228 2.536-1.616 4.012-1.72 1.199-.082 2.345.726 3.539.576.2-.007.39-.087.533-.223a.89.89 0 00.176-.394 160.463 160.463 0 002.345-10.48c.136-.982.404-1.943.799-2.857.198-.457.489-.87.856-1.215.366-.345.8-.615 1.276-.794 1.422-.45 3.021.31 3.933 1.465.911 1.155 1.257 2.63 1.502 4.065.245 1.434.4 2.91 1.002 4.24.183.494.523.918.97 1.212.799.45 1.876.093 2.489-.58a5.35 5.35 0 001.066-2.46c.14-.891.445-1.75.9-2.537.842-1.222 2.382-1.77 3.853-2.123 1.471-.352 3.022-.585 4.264-1.439a8.546 8.546 0 002.334-2.817c.788-1.33 1.524-2.78 1.46-4.318a5.568 5.568 0 00-.064-.59 10.017 10.017 0 01-1.396 3.34z"/>
    </g>
    <path opacity=".1" d="M189.771 69.236a17.912 17.912 0 012.372 7.689c-4.749-2.59-9.214-5.432-11.469-6.42-3.927-1.725-18.614-1.466-24.135-1.305a18.063 18.063 0 012.014-2.827 19.124 19.124 0 014.397-3.739 19.402 19.402 0 017.196-2.65 19.606 19.606 0 017.688.331 19.301 19.301 0 016.927 3.258 18.688 18.688 0 015.037 5.652l-.027.01zM206.718 81.574c-2.563.767-6.746-.714-11.084-2.837a20.164 20.164 0 01-1.636-2.34l14.633 2.681c.97.643 1.215 1.559-1.913 2.496z" fill="#000"/>
    <path d="M174.279 51.285s-13.989-.777-17.921 6.602l-.635 6.539-1.066-.114-.213 4.448s21.381-.907 26.246 1.227c4.866 2.133 19.985 12.882 26.044 11.07 6.059-1.813-.533-3.495-.533-3.495s-8.34-3.433-8.34-6.126c0-2.692-2.068-16.915-23.582-20.151z" fill="#444053"/>
    <path opacity=".1" d="M147.298 293.704s8.926 8.413 12.79 7.766c0 0-10.925-.906-12.79-7.766zM145.433 297.602s.799 4.329 2.931 3.904c2.131-.424-2.931-3.904-2.931-3.904zM159.422 369.945s-12.673 9.579-10.536 9.837c2.137.259 10.536-9.837 10.536-9.837z" fill="#000"/>
    <path d="M176.374 179.836l41.035-6.487v37.745l-38.989-1.983-2.046-29.275z" fill="#6C63FF"/>
    <path opacity=".05" d="M176.374 179.836l41.035-6.487v37.745l-38.989-1.983-2.046-29.275z" fill="#000"/>
    <path d="M217.408 173.349l49.21 3.577-2.723 32.848-46.487 1.32v-37.745z" fill="#6C63FF"/>
    <path opacity=".1" d="M217.408 173.349l49.21 3.577-2.723 32.848-46.487 1.32v-37.745z" fill="#000"/>
    <path d="M232.538 161.828l-15.13 11.52 49.21 3.578 8.041-11.789-42.121-3.309zM161.516 167.254l36.942-4.369 18.95 10.464-41.034 6.487-14.858-12.582zM226.404 183.15v51.606l-19.222-1.916-8.362-.828-2.547-.259-8.356-.834-11.543-1.149v-49.934l41.029 2.713 9.001.601z" fill="#6C63FF"/>
    <path d="M266.618 176.926v50.327l-15.407 2.874-7.493 1.398-17.314 3.231V183.15l40.214-6.224z" fill="#6C63FF"/>
    <path opacity=".05" d="M266.618 176.926v50.327l-15.407 2.874-7.493 1.398-17.314 3.231V183.15l40.214-6.224z" fill="#000"/>
    <path d="M161.516 190.699l14.858-10.863 50.03 3.314-7.365 12.054-57.523-4.505z" fill="#6C63FF"/>
    <path opacity=".1" d="M161.516 190.699l14.858-10.863 50.03 3.314-7.365 12.054-57.523-4.505z" fill="#fff"/>
    <path d="M266.618 176.926l-40.214 6.224 13.088 11.391 43.076-7.021-15.95-10.594z" fill="#6C63FF"/>
    <path opacity=".1" d="M266.618 176.926l-40.214 6.224 13.088 11.391 43.076-7.021-15.95-10.594zM251.211 230.127l-7.493 1.398v-10.754l7.019-1.719.474 11.075zM207.182 225.726v7.114l-8.362-.828v-6.286h8.362zM196.273 227.968v3.785l-8.356-.834v-2.951h8.356z" fill="#fff"/>
    <path opacity=".1" d="M221.373 221.951c-5.729 7.12-24.647 2.201-24.647 2.201l-14.058-14.249-1.908-1.931 3.73-6.731s1.066.341 2.846.942c9.422 3.2 38.86 13.778 34.037 19.768z" fill="#000"/>
    <path d="M220.841 220.916c-5.729 7.119-24.648 2.2-24.648 2.2l-14.058-14.249-1.908-1.931 3.73-6.731s1.066.342 2.846.942c9.422 3.2 38.86 13.778 34.038 19.769z" fill="#EFB7B9"/>
    <path opacity=".1" d="M186.782 201.147c-.778 2.175-2.755 5.396-4.669 7.72l-1.907-1.931 3.73-6.731s1.071.342 2.846.942z" fill="#000"/>
    <path d="M140.237 120.624s-13.989 5.178-14.122 19.676a231.63 231.63 0 001.598 27.959s-3.996 21.617 7.328 27.83a623.623 623.623 0 0021.85 11.391s18.092 2.848 20.314 3.754c2.223.906 9.944-10.744 8.745-12.686-1.199-1.941-17.671-6.731-19.627-9.967-1.956-3.236-6.773-5.416-6.773-5.416s-4.914-3.256-5.111-5.975c-.197-2.718 1.252-4.659 1.663-5.824.41-1.165 1.897-12.556 1.897-12.556s7.951-40.412-17.762-38.186z" fill="#DCE6F2"/>
    <path opacity=".1" d="M146.632 168.621s-18.919 2.071-17.453 8.544c0 0 7.189-6.53 17.453-8.544zM146.632 171.21s-10.739 7.637-8.767 8.155c1.972.518 8.767-8.155 8.767-8.155zM151.428 174.317s-3.064 5.353-1.332 5.074c1.732-.28 1.332-5.074 1.332-5.074z" fill="#000"/>
    <path d="M348.405 58.192s-20.251-1.186-17.885 12.618c0 0-.474 2.439 1.801 3.547 0 0 .037-1.036 2.079-.679a9.592 9.592 0 002.2.104 4.638 4.638 0 002.697-1.082s5.697-2.284 7.914-11.334c0 0 1.641-1.978 1.599-2.485l-3.422 1.423s1.167 2.398.245 4.391c0 0-.106-4.302-.767-4.204-.133 0-1.775.834-1.775.834s2.01 4.173.491 7.212c0 0 .575-5.147-1.119-6.912l-2.409 1.367s2.35 4.313.757 7.834c0 0 .41-5.4-1.263-7.503l-2.185 1.652s2.211 4.256.863 7.176c0 0-.176-6.286-1.338-6.762 0 0-1.908 1.636-2.195 2.31 0 0 1.508 3.106.57 4.716 0 0-.576-4.189-1.066-4.21 0 0-1.902 2.776-2.1 4.66a9.896 9.896 0 011.636-4.939 5.764 5.764 0 00-2.909 1.465s.293-1.962 3.378-2.133c0 0 1.599-2.107 1.994-2.237 0 0-3.07-.248-4.93.554 0 0 1.636-1.848 5.494-1.035l2.132-1.709s-4.039-.518-5.755.057c0 0 1.971-1.636 6.336-.445l2.345-1.362s-3.443-.725-5.495-.46c0 0 2.164-1.135 6.182.093l1.679-.73s-2.526-.482-3.262-.56c-.735-.077-.778-.274-.778-.274a8.955 8.955 0 014.738.518s3.597-1.258 3.523-1.476z" fill="#6C63FF"/>
    <path opacity=".1" d="M409.935 127.231s-20.251-1.186-17.885 12.618c0 0-.474 2.439 1.801 3.547 0 0 .038-1.036 2.084-.679a9.597 9.597 0 002.201.104 4.629 4.629 0 002.665-1.077s5.702-2.288 7.919-11.339c0 0 1.636-1.973 1.572-2.48l-3.421 1.419s1.167 2.397.25 4.39c0 0-.112-4.302-.767-4.204-.134 0-1.78.834-1.78.834s2.014 4.178.495 7.212c0 0 .576-5.147-1.124-6.912l-2.382 1.351s2.35 4.313.756 7.834c0 0 .411-5.4-1.263-7.502l-2.179 1.656s2.206 4.251.863 7.172c0 0-.176-6.286-1.337-6.763 0 0-1.908 1.637-2.201 2.31 0 0 1.513 3.106.575 4.717 0 0-.575-4.189-1.066-4.21 0 0-1.902 2.775-2.099 4.66a9.908 9.908 0 011.641-4.939 5.792 5.792 0 00-2.915 1.465s.298-1.963 3.384-2.133c0 0 1.572-2.108 1.993-2.237 0 0-3.069-.249-4.929.554 0 0 1.636-1.849 5.489-1.01l2.131-1.708s-4.044-.518-5.755.057c0 0 1.972-1.637 6.336-.446l2.345-1.361s-3.448-.72-5.5-.461c0 0 2.169-1.134 6.187.093l1.679-.73s-2.526-.482-3.267-.559c-.74-.078-.778-.275-.778-.275a8.978 8.978 0 014.743.518s3.603-1.268 3.539-1.486zM286.911 114.975s4.663-19.204-9.747-19.27c0 0-2.393-.87-3.901 1.118 0 0 1.029.212.331 2.107a8.956 8.956 0 00-.48 2.071 4.348 4.348 0 00.634 2.76s1.348 5.85 10.126 9.516c0 0 1.726 1.905 2.249 1.926l-.853-3.515s-2.633.709-4.498-.518c0 0 4.386.626 4.391 0 0-.13-.533-1.843-.533-1.843s-4.577 1.211-7.402-.762c0 0 5.121 1.429 7.205.109l-.959-2.547s-4.796 1.517-8.079-.611c0 0 5.409 1.315 7.828.072l-1.305-2.371s-4.69 1.388-7.424-.399c0 0 6.395.901 7.088-.124 0 0-1.332-2.107-1.966-2.501 0 0-3.39.922-4.882-.254 0 0 4.343.161 4.445-.284 0 0-2.489-2.294-4.386-2.812 1.768.391 3.4 1.223 4.737 2.413a5.475 5.475 0 00-.991-3.04s1.94.622 1.599 3.625c0 0 1.865 1.864 1.924 2.289 0 0 .772-2.895.277-4.816 0 0 1.599 1.885.09 5.432l1.365 2.356s1.236-3.78.922-5.52c0 0 1.327 2.164-.629 6.141l.986 2.48s1.316-3.179 1.401-5.178c0 0 .784 2.268-1.151 5.908l.458 1.729s.917-2.335 1.12-3.029c.202-.693.41-.699.41-.699a8.303 8.303 0 01-1.327 4.453s.698 3.614.927 3.588zM242.562 121.52s-16.264-11.821-22.078.984c0 0-1.775 1.786-.501 3.924 0 0 .607-.833 2.131.549a9.38 9.38 0 001.78 1.264c.871.47 1.875.652 2.862.517 0 0 6.054 1.134 13.024-5.239 0 0 2.489-.777 2.724-1.233l-3.672-.626s-.384 2.625-2.276 3.8c0 0 2.34-3.655 1.732-3.919-.122-.057-1.956-.259-1.956-.259s-.682 4.566-3.666 6.291c0 0 3.395-3.992 2.974-6.374l-2.787-.145s-.475 4.862-3.8 6.954c0 0 3.394-4.293 3.197-6.944l-2.76.218s-.56 4.727-3.336 6.446c0 0 3.405-5.343 2.707-6.358 0 0-2.521.347-3.144.751 0 0-.485 3.386-2.191 4.245 0 0 1.892-3.805 1.509-4.069 0 0-3.161 1.299-4.402 2.78a10.356 10.356 0 014.167-3.252 5.897 5.897 0 00-3.261-.331s1.353-1.481 4.029.026c0 0 2.504-.916 2.931-.803 0 0-2.425-1.848-4.434-2.169 0 0 2.419-.673 5.164 2.071l2.766-.274s-3.075-2.589-4.839-3.024c0 0 2.574-.316 5.542 3.008l2.729.119s-2.468-2.444-4.328-3.324c0 0 2.446.207 5.111 3.381l1.817.285s-1.838-1.75-2.414-2.206c-.576-.455-.496-.647-.496-.647a8.698 8.698 0 013.672 2.962s3.704.833 3.773.621zM296.712 11.696s-16.265-11.825-22.079.984c0 0-1.775 1.786-.501 3.925 0 0 .608-.834 2.132.549a9.437 9.437 0 001.785 1.258c.87.471 1.875.653 2.862.518 0 0 6.054 1.134 13.024-5.245 0 0 2.489-.772 2.718-1.233l-3.672-.616s-.378 2.625-2.275 3.8c0 0 2.345-3.655 1.737-3.919-.123-.057-1.956-.259-1.956-.259s-.703 4.577-3.688 6.291c0 0 3.39-3.992 2.974-6.374l-2.787-.145s-.48 4.862-3.8 6.949c0 0 3.395-4.292 3.198-6.943l-2.755.217s-.565 4.732-3.342 6.451c0 0 3.411-5.343 2.713-6.358 0 0-2.521.347-3.144.75 0 0-.485 3.387-2.191 4.247 0 0 1.892-3.806 1.508-4.075 0 0-3.16 1.305-4.401 2.785a10.306 10.306 0 014.167-3.251 5.858 5.858 0 00-3.267-.332s1.359-1.48 4.034.026c0 0 2.505-.921 2.931-.802 0 0-2.424-1.849-4.433-2.175 0 0 2.414-.668 5.158 2.071l2.766-.274s-3.07-2.589-4.839-3.03c0 0 2.574-.31 5.548 3.014l2.728.114s-2.467-2.444-4.332-3.319c0 0 2.451.207 5.116 3.381l1.812.285s-1.844-1.73-2.42-2.175c-.575-.445-.495-.642-.495-.642a8.682 8.682 0 013.671 2.962s3.704.787 3.795.59zM358.86 26.675s-6.501-18.696-18.764-11.349c0 0-2.504.518-2.701 2.956 0 0 .985-.352 1.422 1.616.163.7.408 1.379.73 2.024a4.553 4.553 0 002.047 2.014s4.327 4.272 13.792 2.858c0 0 2.499.736 2.957.482l-2.664-2.542s-1.844 1.952-4.093 1.874c0 0 4.066-1.719 3.73-2.273-.069-.109-1.46-1.284-1.46-1.284s-3.229 3.381-6.693 3.158c0 0 5.121-1.418 6.166-3.624l-2.207-1.652s-3.229 3.739-7.189 3.625c0 0 5.33-1.662 6.678-3.961l-2.398-1.341s-3.198 3.588-6.513 3.474c0 0 5.926-2.521 5.942-3.743 0 0-2.275-1.103-3.026-1.114 0 0-2.377 2.522-4.264 2.294 0 0 3.773-2.097 3.613-2.527 0 0-3.357-.668-5.249-.13a10.675 10.675 0 015.329-.387 5.706 5.706 0 00-2.499-2.072s1.982-.47 3.309 2.243c0 0 2.601.626 2.878.952 0 0-.917-2.853-2.382-4.23 0 0 2.382.782 3.032 4.567l2.441 1.294s-1.007-3.836-2.222-5.177c0 0 2.307 1.16 2.808 5.534l2.185 1.6s-.607-3.376-1.631-5.126c0 0 1.898 1.523 2.239 5.608l1.327 1.232s-.491-2.454-.693-3.148c-.203-.694-.037-.74-.037-.74a8.352 8.352 0 011.294 4.463s2.58 2.687 2.766 2.552zM316.43 27.597s-20.198-2.185-18.53 11.738c0 0-.602 2.413 1.599 3.624 0 0 .09-1.035 2.132-.57.721.151 1.457.223 2.195.213a4.669 4.669 0 002.745-.947s5.814-2.004 8.526-10.936c0 0 1.738-1.89 1.7-2.402l-3.49 1.253s1.066 2.449 0 4.396c0 0 .112-4.303-.533-4.236-.133 0-1.817.746-1.817.746s1.79 4.272.117 7.249c0 0 .842-5.116-.762-6.96l-2.478 1.243s2.131 4.427.346 7.865c0 0 .693-5.374-.869-7.554l-2.264 1.553s1.982 4.355.485 7.208c0 0 .154-6.286-.981-6.82 0 0-1.993 1.554-2.318 2.196 0 0 1.348 3.158.33 4.738 0 0-.357-4.21-.826-4.251 0 0-2.046 2.677-2.345 4.567a9.906 9.906 0 011.898-4.857 5.812 5.812 0 00-2.985 1.32s.395-1.941 3.485-1.962c0 0 1.679-2.025 2.132-2.133 0 0-3.054-.4-4.956.31 0 0 1.732-1.77 5.537-.74l2.244-1.6s-4.056-.797-5.772-.28c0 0 2.057-1.553 6.352-.13l2.415-1.247s-3.406-.89-5.468-.73c0 0 2.222-1.035 6.171.399l1.716-.648s-2.499-.605-3.235-.72c-.735-.113-.762-.31-.762-.31a8.994 8.994 0 014.711.746s3.592-1.113 3.555-1.33zM493.145 179.909s-20.187-2.185-18.519 11.722c0 0-.602 2.413 1.599 3.624 0 0 .09-1.035 2.131-.574a9.529 9.529 0 002.196.212 4.628 4.628 0 002.744-.948s5.814-2.003 8.5-10.93c0 0 1.738-1.895 1.7-2.402l-3.49 1.248s1.066 2.454 0 4.401c0 0 .112-4.308-.533-4.236-.133 0-1.817.741-1.817.741s1.79 4.271.117 7.248c0 0 .842-5.11-.762-6.958l-2.478 1.247s2.131 4.427.351 7.865c0 0 .688-5.374-.874-7.559l-2.264 1.553s1.982 4.355.485 7.202c0 0 .154-6.285-.981-6.813 0 0-1.988 1.553-2.318 2.195 0 0 1.353 3.158.33 4.737 0 0-.357-4.209-.826-4.25 0 0-2.046 2.676-2.345 4.566a9.913 9.913 0 011.897-4.856 5.761 5.761 0 00-2.984 1.32s.395-1.947 3.485-1.968c0 0 1.684-2.024 2.132-2.128 0 0-3.054-.403-4.956.306 0 0 1.732-1.766 5.542-.735l2.239-1.6s-4.008-.735-5.751-.228c0 0 2.057-1.553 6.353-.135l2.414-1.242s-3.405-.891-5.468-.73c0 0 2.222-1.036 6.171.398l1.716-.652s-2.499-.606-3.234-.715c-.736-.108-.763-.31-.763-.31a8.958 8.958 0 014.711.74s3.603-1.134 3.55-1.356zM524.005 198.227s-20.186-2.18-18.518 11.722c0 0-.597 2.413 1.598 3.625 0 0 .091-1.036 2.132-.57a9.64 9.64 0 002.19.207 4.685 4.685 0 002.734-.942s5.809-2.004 8.495-10.935c0 0 1.742-1.89 1.7-2.403l-3.491 1.248s1.066 2.454 0 4.401c0 0 .112-4.302-.533-4.235-.133 0-1.817.74-1.817.74s1.791 4.272.117 7.249c0 0 .842-5.11-.762-6.954l-2.478 1.243s2.132 4.427.352 7.865c0 0 .687-5.374-.874-7.554l-2.265 1.553s1.982 4.354.49 7.207c0 0 .15-6.29-.986-6.819 0 0-1.987 1.554-2.318 2.196 0 0 1.354 3.158.331 4.737 0 0-.357-4.209-.826-4.251 0 0-2.047 2.677-2.34 4.567a9.95 9.95 0 011.892-4.857 5.815 5.815 0 00-2.984 1.321s.399-1.947 3.49-1.963c0 0 1.679-2.024 2.132-2.133 0 0-3.054-.398-4.956.311 0 0 1.732-1.771 5.542-.741l2.238-1.599s-4.007-.736-5.75-.228c0 0 2.057-1.554 6.353-.13l2.414-1.247s-3.406-.891-5.468-.731c0 0 2.222-1.035 6.171.399l1.716-.647s-2.499-.606-3.229-.72c-.73-.114-.768-.31-.768-.31a8.99 8.99 0 014.711.745s3.619-1.144 3.565-1.367zM455.488 43.927s-16.264-11.82-22.078.984c0 0-1.775 1.786-.501 3.925 0 0 .607-.834 2.132.549a9.312 9.312 0 001.779 1.263c.871.47 1.876.652 2.862.518 0 0 6.054 1.134 13.03-5.24 0 0 2.483-.777 2.718-1.232l-3.661-.642s-.384 2.625-2.276 3.8c0 0 2.34-3.655 1.732-3.92-.122-.056-1.95-.258-1.95-.258s-.688 4.566-3.672 6.29c0 0 3.395-3.991 2.974-6.373l-2.788-.145s-.474 4.862-3.799 6.954c0 0 3.4-4.293 3.197-6.944l-2.76.218s-.533 4.727-3.336 6.446c0 0 3.41-5.343 2.707-6.358 0 0-2.521.347-3.144.75 0 0-.48 3.387-2.185 4.246 0 0 1.886-3.805 1.503-4.07 0 0-3.161 1.3-4.402 2.781a10.355 10.355 0 014.167-3.252 5.894 5.894 0 00-3.261-.331s1.359-1.48 4.034.026c0 0 2.499-.916 2.925-.803 0 0-2.424-1.848-4.433-2.17 0 0 2.419-.672 5.164 2.072l2.765-.274s-3.069-2.59-4.838-3.024c0 0 2.574-.316 5.542 3.008l2.734.12s-2.473-2.445-4.333-3.325c0 0 2.451.207 5.111 3.381l1.817.285s-1.839-1.75-2.414-2.206c-.576-.456-.49-.606-.49-.606a8.71 8.71 0 013.666 2.962s3.693.808 3.762.595zM468.055 129.266s-5.607-18.966-18.216-12.157c0 0-2.526.378-2.84 2.832 0 0 1.002-.306 1.348 1.677.129.713.343 1.408.64 2.072a4.491 4.491 0 001.95 2.112s4.125 4.453 13.643 3.459c0 0 2.462.838 2.931.611l-2.521-2.662s-1.934 1.875-4.172 1.699c0 0 4.135-1.554 3.815-2.108-.064-.114-1.396-1.351-1.396-1.351s-3.379 3.241-6.832 2.863c0 0 5.185-1.191 6.326-3.334l-2.132-1.75s-3.4 3.593-7.349 3.313c0 0 5.372-1.434 6.853-3.665l-2.334-1.445s-3.384 3.443-6.667 3.184c0 0 6.038-2.262 6.113-3.479 0 0-2.228-1.201-2.979-1.243 0 0-2.489 2.413-4.381 2.102 0 0 3.869-1.931 3.731-2.366 0 0-3.326-.813-5.239-.362a10.69 10.69 0 015.329-.15 5.653 5.653 0 00-2.398-2.175s2.004-.388 3.198 2.382c0 0 2.563.735 2.83 1.077 0 0-.784-2.895-2.185-4.329 0 0 2.344.88 2.819 4.691l2.377 1.403s-.832-3.883-1.983-5.25c0 0 2.249 1.258 2.553 5.649l2.131 1.693s-.452-3.397-1.39-5.178c0 0 1.827 1.605 1.977 5.696l1.268 1.294s-.373-2.475-.533-3.179c-.16-.704 0-.802 0-.802a8.29 8.29 0 011.093 4.515s2.43 2.785 2.622 2.661zM343.129 172.002s-10.888-16.661-20.997-6.689c0 0-2.313 1.035-1.908 3.495 0 0 .879-.57 1.785 1.242.326.643.73 1.244 1.205 1.792a4.576 4.576 0 002.478 1.491s5.249 3.148 14.095-.414c0 0 2.606.134 2.99-.212l-3.198-1.864s-1.316 2.33-3.517 2.77c0 0 3.528-2.589 3.054-3.065-.091-.094-1.732-.912-1.732-.912s-2.308 4.028-5.729 4.614c0 0 4.631-2.563 5.111-4.935l-2.553-1.092s-2.222 4.375-6.091 5.177c0 0 4.743-2.842 5.515-5.39l-2.664-.745s-2.249 4.23-5.473 4.877c0 0 5.137-3.821 4.855-5.012 0 0-2.484-.543-3.198-.378 0 0-1.689 2.998-3.597 3.216 0 0 3.155-2.91 2.894-3.293 0 0-3.427.129-5.132 1.087a10.572 10.572 0 015.084-1.605 5.783 5.783 0 00-2.926-1.434s1.807-.917 3.73 1.413c0 0 2.665 0 3.033.259 0 0-1.599-2.589-3.352-3.557 0 0 2.504.207 4.06 3.733l2.692.694s-1.924-3.495-3.422-4.494c0 0 2.521.59 4.083 4.727l2.515 1.035s-1.418-3.132-2.841-4.597c0 0 2.217 1.035 3.544 4.924l1.599.895s-1.066-2.273-1.444-2.899c-.378-.627-.229-.772-.229-.772a8.437 8.437 0 012.35 4.034s3.187 2.06 3.331 1.884z" fill="#6C63FF"/>
    <path d="M414.683 86.871s-10.354-16.978-20.784-7.316c0 0-2.344.984-2.014 3.438 0 0 .89-.549 1.743 1.29a8.873 8.873 0 001.145 1.832 4.536 4.536 0 002.43 1.553s5.143 3.304 14.101 0c0 0 2.601.213 2.995-.124l-3.128-1.957s-1.385 2.283-3.602 2.661c0 0 3.607-2.5 3.155-2.972-.096-.098-1.706-.968-1.706-.968s-2.435 3.961-5.862 4.442c0 0 4.711-2.423 5.26-4.773l-2.515-1.15s-2.361 4.313-6.257 5.002c0 0 4.834-2.698 5.686-5.22l-2.632-.828s-2.388 4.142-5.628 4.712c0 0 5.255-3.666 5.01-4.862 0 0-2.462-.621-3.198-.476 0 0-1.785 2.946-3.698 3.106 0 0 3.245-2.806 3-3.2 0 0-3.432.026-5.164.933a10.63 10.63 0 015.132-1.45 5.782 5.782 0 00-2.883-1.522s1.838-.865 3.73 1.522c0 0 2.665.088 3.022.352 0 0-1.508-2.589-3.235-3.656 0 0 2.494.28 3.938 3.853l2.665.776s-1.807-3.552-3.277-4.597c0 0 2.504.667 3.932 4.846l2.479 1.124s-1.317-3.175-2.665-4.66c0 0 2.18 1.102 3.389 5.027l1.562.942s-1.002-2.304-1.354-2.94c-.352-.637-.202-.777-.202-.777a8.432 8.432 0 012.222 4.1s3.054 2.108 3.208 1.937zM349.172 122.571s.533-19.727-13.573-16.947c0 0-2.526-.377-3.592 1.87 0 0 1.066 0 .767 1.993a8.89 8.89 0 00-.032 2.144 4.373 4.373 0 001.199 2.588s2.542 5.458 11.927 7.311c0 0 2.084 1.528 2.606 1.445l-1.599-3.272s-2.425 1.211-4.508.388c0 0 4.423-.254 4.3-.885 0-.13-.916-1.704-.916-1.704s-4.232 2.097-7.402.72c0 0 5.329.388 7.071-1.315l-1.487-2.294s-4.359 2.423-8.036.994c0 0 5.569.218 7.679-1.476l-1.774-2.071s-4.301 2.289-7.349 1.077c0 0 6.459-.378 6.928-1.522 0 0-1.748-1.797-2.452-2.071 0 0-3.122 1.553-4.828.715 0 0 4.264-.694 4.29-1.155 0 0-2.915-1.755-4.881-1.885 1.813.032 3.586.524 5.142 1.429a5.522 5.522 0 00-1.598-2.78s2.03.222 2.307 3.21c0 0 2.222 1.46 2.366 1.864 0 0 .155-2.988-.735-4.769 0 0 1.961 1.528 1.226 5.297l1.827 2.04s.416-3.945-.25-5.587c0 0 1.748 1.859.671 6.136l1.477 2.232s.628-3.371.293-5.354c0 0 1.236 2.071.106 6.011l.81 1.605s.411-2.47.464-3.189c.053-.72.256-.767.256-.767a8.274 8.274 0 01-.368 4.624s1.434 3.417 1.668 3.35z" fill="#6C63FF"/>
    <path opacity=".1" d="M372.492 373.233c7.926 0 14.352-1.055 14.352-2.356s-6.426-2.356-14.352-2.356-14.351 1.055-14.351 2.356 6.425 2.356 14.351 2.356zM320.176 409c7.926 0 14.351-1.055 14.351-2.356s-6.425-2.356-14.351-2.356c-7.926 0-14.352 1.055-14.352 2.356S312.25 409 320.176 409zM49.636 390.676c7.926 0 14.351-1.054 14.351-2.356 0-1.301-6.425-2.355-14.351-2.355-7.927 0-14.352 1.054-14.352 2.355 0 1.302 6.425 2.356 14.352 2.356zM429.029 406.644c7.926 0 14.352-1.055 14.352-2.356s-6.426-2.356-14.352-2.356-14.351 1.055-14.351 2.356 6.425 2.356 14.351 2.356z" fill="#6C63FF"/>
    <path d="M443.972 377.918c11.835 0 21.429-1.576 21.429-3.52 0-1.945-9.594-3.521-21.429-3.521-11.834 0-21.428 1.576-21.428 3.521 0 1.944 9.594 3.52 21.428 3.52z" fill="#6C63FF"/>
    <path d="M452.856 368.635a6.011 6.011 0 002.041-2.993c.267-1.191-.256-2.615-1.423-3.05-1.311-.486-2.712.394-3.778 1.284-1.066.891-2.276 1.911-3.667 1.725a5.425 5.425 0 001.551-2.319 5.29 5.29 0 00.176-2.761 2.089 2.089 0 00-.48-1.035c-.73-.756-2.046-.43-2.92.165-2.771 1.896-3.544 5.551-3.56 8.844-.277-1.186-.042-2.423-.048-3.624-.005-1.202-.352-2.589-1.412-3.221a4.317 4.317 0 00-2.132-.518c-1.247-.041-2.638.078-3.485.963-1.066 1.098-.783 2.946.133 4.142.917 1.197 2.318 1.968 3.608 2.807a7.957 7.957 0 012.579 2.387c.076.135.139.277.187.424h7.812a21.6 21.6 0 004.818-3.22z" fill="#6C63FF"/>
    <path d="M40 377.37s8.18-.244 10.659-1.952c2.478-1.709 12.593-3.744 13.206-1.005.612 2.739 12.3 13.612 3.058 13.685-9.24.072-21.47-1.398-23.933-2.858-2.462-1.46-2.99-7.87-2.99-7.87z" fill="#A8A8A8"/>
    <path opacity=".2" d="M67.078 387.145c-9.24.072-21.471-1.398-23.933-2.858-1.876-1.108-2.622-5.09-2.873-6.928h-.271s.532 6.415 2.979 7.87c2.446 1.455 14.692 2.931 23.933 2.858 2.664 0 3.586-.942 3.538-2.309-.373.834-1.39 1.351-3.373 1.367z" fill="#000"/>
  </g>
  <defs>
    <linearGradient id="paint0_linear" x1="118.835" y1="224.411" x2="285.174" y2="224.411" gradientUnits="userSpaceOnUse">
      <stop stop-color="gray" stop-opacity=".25"/>
      <stop offset=".54" stop-color="gray" stop-opacity=".12"/>
      <stop offset="1" stop-color="gray" stop-opacity=".1"/>
    </linearGradient>
    <clipPath id="clip0">
      <path fill="#fff" d="M0 0h538v409H0z"/>
    </clipPath>
  </defs>
</svg>