<svg fill="none" viewBox="0 0 257 194" xmlns="http://www.w3.org/2000/svg">
  <g clip-path="url(#a)">
    <path d="M220.18 105.07c0 29.833-17.49 56.224-44.301 72.29-17.191 10.302-38.215 16.36-60.917 16.36-30.242 0-53.311-11.429-70.664-28.938-15.995-16.134-27.132-37.435-34.553-59.712-33.129-99.461 22.213-126.6 105.22-88.649 52.85 24.163 105.22 39.691 105.22 88.649z" fill="#6C63FF"/>
    <path d="M175.88 53v124.59c-17.19 10.302-38.215 16.36-60.916 16.36-30.243 0-53.312-11.429-70.665-28.938V52.992h131.58z" fill="#F2F2F2"/>
    <path d="M56.957 113.71a82.319 82.319 0 0121.26-3.79 66.548 66.548 0 0110.84.424 67.85 67.85 0 0110.521 2.252c3.4.985 6.754 2.122 10.143 3.144a94.493 94.493 0 0010.483 2.559 88.829 88.829 0 0010.651 1.269c3.538.206 7.11.246 10.638-.131a32.566 32.566 0 009.572-2.426 29.23 29.23 0 009.45-6.607c.315-.329-.184-.83-.5-.501-4.51 4.715-10.437 7.638-16.867 8.614-3.502.532-7.071.563-10.605.425a87.206 87.206 0 01-10.78-1.089 90.09 90.09 0 01-10.44-2.376c-3.369-.976-6.693-2.102-10.05-3.116a75.591 75.591 0 00-10.347-2.466 65.032 65.032 0 00-10.616-.736 81.13 81.13 0 00-20.98 3.107c-.858.24-1.711.494-2.56.762-.434.136-.249.819.187.682zm0 17.92a82.361 82.361 0 0121.26-3.79 66.548 66.548 0 0110.84.424 67.737 67.737 0 0110.521 2.253c3.4.984 6.754 2.122 10.143 3.144a94.712 94.712 0 0010.483 2.558 89.035 89.035 0 0010.651 1.27c3.538.205 7.11.245 10.638-.132a32.535 32.535 0 009.572-2.426 29.23 29.23 0 009.45-6.607c.315-.329-.184-.83-.5-.5-4.51 4.714-10.437 7.637-16.867 8.613-3.502.532-7.071.563-10.605.426a87.399 87.399 0 01-10.78-1.089 90.094 90.094 0 01-10.44-2.377c-3.369-.976-6.693-2.101-10.05-3.116a75.735 75.735 0 00-10.347-2.465 65.033 65.033 0 00-10.616-.737 81.173 81.173 0 00-20.98 3.107 87.57 87.57 0 00-2.56.762c-.434.136-.249.819.187.682zm0-34.192a82.323 82.323 0 0121.26-3.79 66.525 66.525 0 0110.84.424c3.561.47 7.08 1.224 10.521 2.252 3.4.985 6.754 2.122 10.143 3.144a94.624 94.624 0 0010.483 2.559 88.829 88.829 0 0010.651 1.269c3.538.206 7.11.246 10.638-.131a32.535 32.535 0 009.572-2.426 29.234 29.234 0 009.45-6.607c.315-.33-.184-.83-.5-.5-4.51 4.714-10.437 7.637-16.867 8.613-3.502.532-7.071.563-10.605.426a87.4 87.4 0 01-10.78-1.09 90.07 90.07 0 01-10.44-2.376c-3.369-.976-6.693-2.102-10.05-3.116a75.648 75.648 0 00-10.347-2.465 65.077 65.077 0 00-10.616-.737 81.16 81.16 0 00-20.98 3.107c-.858.24-1.711.495-2.56.762-.434.136-.249.819.187.682zm-.844-30.763c1.712-.758 3.672-.626 5.449-.186 1.915.474 3.719 1.298 5.604 1.868a19.4 19.4 0 0015.801-2.131c.385-.242.03-.854-.357-.61a18.744 18.744 0 01-9.98 2.844 18.307 18.307 0 01-5.223-.77c-1.872-.56-3.661-1.375-5.557-1.858-2.01-.512-4.163-.623-6.094.232-.416.184-.056.794.357.611zM108.68 175.15c5.991 0 10.847-4.856 10.847-10.847 0-5.99-4.856-10.847-10.847-10.847s-10.847 4.857-10.847 10.847c0 5.991 4.856 10.847 10.847 10.847z" fill="#3F3D56"/>
    <path d="M50.196 30.834a5.895 5.895 0 100-11.79 5.895 5.895 0 000 11.79zM101.84 45.69a4.009 4.009 0 100-8.018 4.009 4.009 0 000 8.018zM36.755 84.126a4.009 4.009 0 100-8.018 4.009 4.009 0 000 8.018z" fill="#F2F2F2"/>
    <path d="M20.615 50.337h-.442v79.053h.442V50.337z" fill="#3F3D56"/>
    <path d="M20.479 122.62c4.76 0 8.62-8.807 8.62-19.672 0-10.864-3.86-19.672-8.62-19.672s-8.62 8.808-8.62 19.672c0 10.865 3.86 19.672 8.62 19.672zm0-44.875c4.76 0 8.62-8.808 8.62-19.672s-3.86-19.672-8.62-19.672-8.62 8.808-8.62 19.672 3.86 19.672 8.62 19.672z" fill="#3F3D56"/>
    <path d="M20.691 42.001l-.423-.127c.026-.09 2.625-8.995-1.642-14.729-2.41-3.238-6.546-4.88-12.293-4.88v-.442c5.895 0 10.15 1.702 12.649 5.06 4.4 5.913 1.737 15.027 1.71 15.118z" fill="#3F3D56"/>
    <path d="M6.332 27.57a5.526 5.526 0 100-11.052 5.526 5.526 0 000 11.052z" fill="#3F3D56"/>
    <path d="M181.75 147.3l-4.134 38.036h28.527l1.24-2.894 1.654 2.894h26.873s-2.067-39.276-5.788-40.516c-3.721-1.241-48.372 2.48-48.372 2.48z" fill="#2F2E41"/>
    <path d="M206.14 63.791c7.992 0 14.47-6.479 14.47-14.47 0-7.992-6.478-14.47-14.47-14.47s-14.47 6.479-14.47 14.47c0 7.992 6.478 14.47 14.47 14.47z" fill="#FFB8B8"/>
    <path d="M197.87 58.416s1.24 13.23 0 14.057 19.845.413 19.845.413-2.894-11.99 0-17.778l-19.845 3.308z" fill="#FFB8B8"/>
    <path d="M205.31 69.579s10.639 1.657 11.521-1.652l5.43 7.44.414 74.418s-44.238 5.375-45.891-3.307c-1.654-8.683 16.95-77.312 16.95-77.312l4.684-.303s6.066.717 6.892.717z" fill="#D0CDE1"/>
    <path d="M198.35 65.467l-7.094 2.458-20.258 4.961.827 49.611s-17.364 49.612-9.509 53.333 19.018-4.96 22.325-11.163c3.308-6.2 14.884-92.195 14.884-93.849s-1.175-5.352-1.175-5.352zm18.22 0l2.802 2.458 19.844 9.096-9.922 50.025s13.23 45.478 8.269 47.958c-4.961 2.48-12.403 9.509-14.057 5.375s-11.392-110.34-6.936-114.91z" fill="#3F3D56"/>
    <path d="M228.05 131.59s-18.604-7.855-19.018-.827c-.413 7.028 21.085 11.99 21.085 9.922 0-2.067-2.067-9.095-2.067-9.095zm-45.48-2.89s21.498 16.124 13.229 20.258c-8.268 4.134-19.017-14.47-19.017-14.47l5.788-5.788z" fill="#FFB8B8"/>
    <path d="M212.56 28.124a.797.797 0 01.768-.456c-6.625-.396-13.603.376-19.145 4.027-1.552 1.022-3.002 2.272-4.769 2.849l1.434 1.124-1.713.523 2.522 1.63a2.192 2.192 0 01-2.082.697c1.096.32 1.903 1.296 2.313 2.362s.483 2.226.553 3.366c.423-1.645 2.218-2.613 3.914-2.71 1.695-.1 3.348.46 4.998.862a27.656 27.656 0 0010.977.422c-1.24 2.488-.194 5.455.858 8.027l2.101 5.137c1.166.117 1.991-1.043 2.87-1.819.8-.707-2.388 5.512-1.894 5.285.641-.296 7.409-7.769 7.726-8.4 1.446-2.88 2.313-6.093 2.183-9.313-.131-3.22-1.309-6.442-3.528-8.779-1.507-1.586-3.592-1.864-5.128-3.182-.605-.52-.607-.924-1.438-1.227-.276-.1-3.475-.526-3.52-.425z" fill="#2F2E41"/>
    <path d="M173.89 74.127l-2.894-1.24-23.152 38.035s-4.134 9.923 3.307 14.47c7.442 4.548 24.806 18.19 24.806 18.19l9.923-15.296s-20.259-9.508-19.018-13.23c1.24-3.72 7.855-13.643 7.855-13.643l-.827-27.286zm59.95 2.067l5.374.827s22.326 43.824 16.951 52.092c-5.375 8.269-27.287 19.845-27.287 19.845s-.413-13.643-4.134-18.604l12.816-4.962-7.028-27.286 3.308-21.912z" fill="#3F3D56"/>
  </g>
  <defs>
    <clipPath id="a">
      <path fill="#fff" d="M0 0h257v193.95H0z"/>
    </clipPath>
  </defs>
</svg>