<svg width="538" height="409" fill="none" xmlns="http://www.w3.org/2000/svg">
  <g clip-path="url(#clip0)">
    <g opacity=".1">
      <path opacity=".1" d="M430.782 289.768s-38.406-5.124-9.763 58.739c0 0 26.103-11.492 27.143-37.413.211-5.044-1.386-9.993-4.489-13.909-3.102-3.916-7.495-6.526-12.346-7.337l-.545-.08z" fill="#6C63FF"/>
      <path opacity=".1" d="M431.346 289.672s8.695 35.61-10.298 58.84" stroke="#535461" stroke-miterlimit="10"/>
      <path opacity=".1" d="M420.529 351.802s13.829-35.015 39.652-48.003c10.874-5.377 19.755-14.234 25.309-25.241a97.906 97.906 0 006.341-16.359" stroke="#535461" stroke-width="2" stroke-miterlimit="10"/>
      <path opacity=".1" d="M508.057 253.921c-2.692 3.477-16.624 8.565-16.624 8.565s1.677-15.114 4.369-18.565a7.96 7.96 0 012.313-2.24 7.7 7.7 0 012.988-1.113 7.64 7.64 0 013.173.195 7.77 7.77 0 012.837 1.473 8.007 8.007 0 012.035 2.508 8.26 8.26 0 01.517 6.373 8.113 8.113 0 01-1.603 2.82l-.005-.016zM503.276 281.455c-4.1 1.416-18.478-2.106-18.478-2.106s9.391-11.729 13.491-13.145a7.664 7.664 0 016.238.128 7.861 7.861 0 012.568 1.938 8.115 8.115 0 011.607 2.826 8.261 8.261 0 01-.529 6.387 7.996 7.996 0 01-2.048 2.508 7.77 7.77 0 01-2.849 1.464zM477.355 314.006c-4.233-.902-14.918-11.401-14.918-11.401s13.868-5.255 18.105-4.353a7.875 7.875 0 014.595 3.572 8.246 8.246 0 01.98 5.834 8.08 8.08 0 01-3.162 4.949 7.687 7.687 0 01-5.6 1.394v.005zM452.345 334.098c-4.321-.156-16.58-8.645-16.58-8.645s12.808-7.598 17.129-7.436a7.784 7.784 0 015.119 2.721 8.2 8.2 0 011.928 5.581 8.169 8.169 0 01-2.304 5.428 7.748 7.748 0 01-5.292 2.346v.005zM471.411 269.489c.554 4.409 9.915 16.158 9.915 16.158s6.164-13.805 5.615-18.213a8.222 8.222 0 00-.842-3.158 8.023 8.023 0 00-1.995-2.554 7.779 7.779 0 00-2.819-1.528 7.653 7.653 0 00-3.177-.249 7.704 7.704 0 00-3.013 1.069 7.913 7.913 0 00-2.349 2.212 8.151 8.151 0 00-1.3 2.989 8.259 8.259 0 00-.035 3.274zM442.449 293.39c1.809 4.031 14.167 12.369 14.167 12.369s1.863-15.069.054-19.1a8.095 8.095 0 00-1.725-2.751 7.825 7.825 0 00-2.646-1.821 7.666 7.666 0 00-3.133-.59 7.67 7.67 0 00-3.103.739 7.85 7.85 0 00-2.562 1.944 8.101 8.101 0 00-1.598 2.831 8.26 8.26 0 00.546 6.384v-.005zM417.4 320.566c1.118 4.292 11.931 14.651 11.931 14.651s4.315-14.525 3.192-18.818a8.186 8.186 0 00-1.243-3.017 7.938 7.938 0 00-2.308-2.26 7.715 7.715 0 00-2.994-1.129 7.66 7.66 0 00-3.184.187 7.789 7.789 0 00-2.848 1.474 8.007 8.007 0 00-2.041 2.517 8.254 8.254 0 00-.505 6.395z" fill="#6C63FF"/>
      <path opacity=".25" d="M508.057 253.921c-2.692 3.477-16.624 8.565-16.624 8.565s1.677-15.114 4.369-18.565a7.96 7.96 0 012.313-2.24 7.7 7.7 0 012.988-1.113 7.64 7.64 0 013.173.195 7.77 7.77 0 012.837 1.473 8.007 8.007 0 012.035 2.508 8.26 8.26 0 01.517 6.373 8.113 8.113 0 01-1.603 2.82l-.005-.016zM503.276 281.455c-4.1 1.416-18.478-2.106-18.478-2.106s9.391-11.729 13.491-13.145a7.664 7.664 0 016.238.128 7.861 7.861 0 012.568 1.938 8.115 8.115 0 011.607 2.826 8.261 8.261 0 01-.529 6.387 7.996 7.996 0 01-2.048 2.508 7.77 7.77 0 01-2.849 1.464zM477.355 314.006c-4.233-.902-14.918-11.401-14.918-11.401s13.868-5.255 18.105-4.353a7.875 7.875 0 014.595 3.572 8.246 8.246 0 01.98 5.834 8.08 8.08 0 01-3.162 4.949 7.687 7.687 0 01-5.6 1.394v.005zM452.345 334.098c-4.321-.156-16.58-8.645-16.58-8.645s12.808-7.598 17.129-7.436a7.784 7.784 0 015.119 2.721 8.2 8.2 0 011.928 5.581 8.169 8.169 0 01-2.304 5.428 7.748 7.748 0 01-5.292 2.346v.005zM471.411 269.489c.554 4.409 9.915 16.158 9.915 16.158s6.164-13.805 5.615-18.213a8.222 8.222 0 00-.842-3.158 8.023 8.023 0 00-1.995-2.554 7.779 7.779 0 00-2.819-1.528 7.653 7.653 0 00-3.177-.249 7.704 7.704 0 00-3.013 1.069 7.913 7.913 0 00-2.349 2.212 8.151 8.151 0 00-1.3 2.989 8.259 8.259 0 00-.035 3.274zM442.449 293.39c1.809 4.031 14.167 12.369 14.167 12.369s1.863-15.069.054-19.1a8.095 8.095 0 00-1.725-2.751 7.825 7.825 0 00-2.646-1.821 7.666 7.666 0 00-3.133-.59 7.67 7.67 0 00-3.103.739 7.85 7.85 0 00-2.562 1.944 8.101 8.101 0 00-1.598 2.831 8.26 8.26 0 00.546 6.384v-.005zM417.4 320.566c1.118 4.292 11.931 14.651 11.931 14.651s4.315-14.525 3.192-18.818a8.186 8.186 0 00-1.243-3.017 7.938 7.938 0 00-2.308-2.26 7.715 7.715 0 00-2.994-1.129 7.66 7.66 0 00-3.184.187 7.789 7.789 0 00-2.848 1.474 8.007 8.007 0 00-2.041 2.517 8.254 8.254 0 00-.505 6.395z" fill="#000"/>
      <path opacity=".1" d="M438.947 367.733s13.829-35.015 39.653-48.004c10.869-5.38 19.744-14.239 25.294-25.246a97.805 97.805 0 006.34-16.358" stroke="#535461" stroke-width="2" stroke-miterlimit="10"/>
      <path opacity=".1" d="M526.452 269.842c-2.693 3.476-16.624 8.565-16.624 8.565s1.677-15.115 4.369-18.566a7.772 7.772 0 015.181-2.641 7.704 7.704 0 015.535 1.723 8.115 8.115 0 012.882 5.153 8.234 8.234 0 01-1.338 5.781l-.005-.015zM521.68 297.375c-4.1 1.416-18.478-2.106-18.478-2.106s9.391-11.728 13.491-13.144a7.66 7.66 0 015.729.693 8.009 8.009 0 013.72 4.531 8.261 8.261 0 01-.302 5.919 7.94 7.94 0 01-4.16 4.107zM495.758 329.947c-4.232-.902-14.917-11.401-14.917-11.401s13.868-5.255 18.105-4.353a7.875 7.875 0 014.595 3.572 8.25 8.25 0 01.98 5.834 8.075 8.075 0 01-3.163 4.948 7.687 7.687 0 01-5.6 1.395v.005zM470.744 350.014c-4.32-.157-16.58-8.646-16.58-8.646s12.809-7.587 17.129-7.431a7.776 7.776 0 015.119 2.722 8.191 8.191 0 011.928 5.58 8.164 8.164 0 01-2.304 5.428 7.745 7.745 0 01-5.292 2.347zM489.81 285.43c.554 4.408 9.915 16.157 9.915 16.157s6.165-13.804 5.615-18.213a8.248 8.248 0 00-.841-3.158 8.03 8.03 0 00-1.995-2.553 7.787 7.787 0 00-2.819-1.528 7.642 7.642 0 00-3.178-.25 7.71 7.71 0 00-3.012 1.069 7.954 7.954 0 00-2.35 2.212 8.173 8.173 0 00-1.3 2.99 8.296 8.296 0 00-.035 3.274zM460.853 309.29c1.809 4.031 14.167 12.369 14.167 12.369s1.863-15.069.054-19.099a7.909 7.909 0 00-4.422-3.81 7.654 7.654 0 00-5.762.328 7.971 7.971 0 00-3.985 4.289 8.263 8.263 0 00-.052 5.929v-.006zM435.804 336.496c1.118 4.293 11.931 14.651 11.931 14.651s4.315-14.525 3.192-18.817a8.007 8.007 0 00-3.732-4.512 7.665 7.665 0 00-5.727-.675 7.864 7.864 0 00-4.629 3.528 8.244 8.244 0 00-1.035 5.825z" fill="#6C63FF"/>
    </g>
    <path opacity=".1" d="M5.811 216.624c8.513 37.383 26.535 69.698 55.016 85.361 59.19 32.551 192.677 15.764 292.303-3.527 50.338-9.711 96.03-36.543 129.721-76.176l-477.04-5.658zM528.241 40.663h-54.663a4.664 4.664 0 01-3.341-1.422 4.922 4.922 0 01-1.383-3.432c0-1.288.497-2.523 1.383-3.433a4.664 4.664 0 013.341-1.422h9.45a4.662 4.662 0 01-3.341-1.422 4.923 4.923 0 01-1.384-3.432c0-1.287.498-2.522 1.384-3.432a4.662 4.662 0 013.341-1.422h-6.748a4.664 4.664 0 01-3.341-1.422 4.922 4.922 0 01-1.383-3.432c0-1.288.497-2.523 1.383-3.433a4.664 4.664 0 013.341-1.422h28.531c-6.331-3.023-13.731-5.174-22.254-6.302C404.763-5.033 376.987 1.758 367.19 8.76c-12.088 8.616-25.574 14.954-39.986 18.007-48.004 10.161-137.769 22.404-219.128-3.93-40.437-13.1-70.493 9.028-88.505 45.988H537.73c-.676-10.741-2.702-20.656-6.419-29.342a4.625 4.625 0 01-3.07 1.179zM1.172 138.599a254.091 254.091 0 002.123 65.223l479.929 18.032c13.36-15.789 24.577-33.364 33.346-52.246L1.172 138.599zm189.818 46.527h-9.45a4.66 4.66 0 013.341 1.422 4.922 4.922 0 011.384 3.432 4.924 4.924 0 01-1.384 3.433 4.663 4.663 0 01-3.341 1.421h-54.663a4.663 4.663 0 01-3.341-1.421 4.924 4.924 0 01-1.384-3.433c0-1.287.498-2.522 1.384-3.432a4.66 4.66 0 013.341-1.422h9.45a4.662 4.662 0 01-3.341-1.422 4.922 4.922 0 01-1.384-3.432c0-1.288.498-2.522 1.384-3.433a4.662 4.662 0 013.341-1.422h-6.748a4.663 4.663 0 01-3.341-1.421 4.924 4.924 0 01-1.384-3.433c0-1.287.498-2.522 1.384-3.432a4.66 4.66 0 013.341-1.422h54.663a4.66 4.66 0 013.341 1.422 4.922 4.922 0 011.384 3.432 4.924 4.924 0 01-1.384 3.433 4.663 4.663 0 01-3.341 1.421h6.748c1.253 0 2.455.512 3.341 1.422a4.924 4.924 0 011.384 3.433 4.922 4.922 0 01-1.384 3.432 4.664 4.664 0 01-3.341 1.422zM537.755 69.163l-523.97 13.1C7.415 99.095 3.212 118.124 1.25 137.847h527.325a235.46 235.46 0 007.616-35.433c1.569-11.593 2.196-22.808 1.564-33.252zm-430.13 42.91h-9.45c1.253 0 2.455.512 3.341 1.422a4.922 4.922 0 011.384 3.432 4.924 4.924 0 01-1.384 3.433 4.664 4.664 0 01-3.341 1.422H43.512a4.664 4.664 0 01-3.341-1.422 4.924 4.924 0 01-1.384-3.433c0-1.287.498-2.522 1.384-3.432a4.664 4.664 0 013.34-1.422h9.45a4.66 4.66 0 01-3.34-1.422 4.921 4.921 0 01-1.384-3.432c0-1.288.497-2.522 1.383-3.433a4.662 4.662 0 013.342-1.421h-6.748a4.664 4.664 0 01-3.341-1.422 4.922 4.922 0 01-1.384-3.433c0-1.287.498-2.522 1.384-3.432a4.662 4.662 0 013.34-1.422h54.664c1.253 0 2.455.512 3.341 1.422a4.923 4.923 0 011.384 3.432 4.923 4.923 0 01-1.384 3.433 4.664 4.664 0 01-3.341 1.422h6.748c1.253 0 2.454.511 3.341 1.421a4.923 4.923 0 011.383 3.433 4.921 4.921 0 01-1.383 3.432 4.661 4.661 0 01-3.341 1.422z" fill="#6C63FF"/>
    <path d="M460.314 408.743s-21.852-123.132-63.52-143.113c-35.307-16.943-73.489-28.365-84.346-31.463a48.025 48.025 0 00-5.595-7.502c-14.839-15.915-23.754-15.618-25.196-15.421a79.455 79.455 0 01-1.471-9.573c-.044-.504-.088-.972-.128-1.471l.128-.066c-.088-.952-.167-1.934-.236-2.947a73.915 73.915 0 0016.57-12.399c.064.217.118.434.187.655a901.13 901.13 0 0031.419-28.616c2.942-2.827 6.031-5.895 7.032-9.88.32-1.371.444-2.784.368-4.192.132-3.023-.564-6.111-.682-9.174 0-.504.054-.973.118-1.451.686-5.013 4.08-9.129 6.865-13.336 6.959-10.631 10.591-23.192 10.411-36.002a62.543 62.543 0 00-2.452-18.138c-2.172-7.466-6.694-15.31-14.221-16.943-2.913-.63-5.939-.237-8.91-.433-12.304-.806-21.514-11.084-31.326-18.616-11.976-9.148-26.139-14.796-40.986-16.344-4.635-.504-9.421-.539-13.829.973-9.901 3.385-15.913 13.84-25.451 18.137-7.052 3.194-15.202 2.675-22.558 5.073-10.95 3.577-20.243 15.115-20.488 26.97v1.536c-.123 5.99 1.962 12.091 2.128 18.223 0 .554.008 1.11.025 1.667-.054 6.62-.824 13.26-3.173 19.483-1.265 3.35-2.893 7.23-2.628 10.58-.148 2.05.24 3.975 1.628 5.542l2.368-2.146a75.503 75.503 0 00-1.191 13.391c0 22.641 10.023 42.915 25.833 56.558.091 1.508.18 3.124.265 4.847a470.83 470.83 0 01.583 27.039l-23.126 21.841-59.454 27.709s-54.374 11.799-42.664 90.278l5.59 48.729h49.642l-.113.257h73.681l.044-.257h175.302l-.034.257h6.865v-.257l76.726-.005zm-178.221-196.25a53.295 53.295 0 013.531 9.975 41.554 41.554 0 01-3.81-10.519l.073.136.206.408zm-84.257 10.076c0 .961-.017 1.93-.049 2.907l-.118.172a25.336 25.336 0 01.167-3.104v.025z" fill="url(#paint0_linear)"/>
    <path d="M301.488 234.928l-9.808 96.228-52.471 17.13s-68.163-13.1-50.509-50.885c12.558-26.879 12.21-74.912 10.965-100.405-.491-10.349-1.158-16.984-1.158-16.984s89.25-80.106 81.895-8.061c-1.423 13.951-1.506 24.858-.716 33.383 3.31 35.488 21.802 29.594 21.802 29.594z" fill="#FDC2CC"/>
    <path opacity=".03" d="M301.488 234.928l-9.808 96.228-52.471 17.13s-68.163-13.1-50.509-50.885c12.558-26.879 12.21-74.912 10.965-100.405-.491-10.349-1.158-16.984-1.158-16.984s89.25-80.106 81.895-8.061c-1.423 13.951-1.506 24.858-.716 33.383 3.31 35.488 21.802 29.594 21.802 29.594z" fill="#000"/>
    <path opacity=".1" d="M280.401 170.44c-1.422 13.95-1.505 24.858-.716 33.382-12.599 7.067-26.985 10.053-41.267 8.565-14.282-1.488-27.791-7.381-38.753-16.903-.491-10.348-1.158-16.983-1.158-16.983s89.25-80.106 81.894-8.061z" fill="#000"/>
    <path d="M245.584 209.742c39.271 0 71.106-32.707 71.106-73.053s-31.835-73.052-71.106-73.052c-39.27 0-71.105 32.706-71.105 73.052 0 40.346 31.835 73.053 71.105 73.053z" fill="#FDC2CC"/>
    <path opacity=".03" d="M245.584 209.742c39.271 0 71.106-32.707 71.106-73.053s-31.835-73.052-71.106-73.052c-39.27 0-71.105 32.706-71.105 73.052 0 40.346 31.835 73.053 71.105 73.053z" fill="#000"/>
    <path opacity=".1" d="M128.382 332.164s23.048 48.366 24.274 76.831l-24.274-76.831zM379.459 359.878L372.839 409h6.62v-49.122z" fill="#000"/>
    <path opacity=".1" d="M133.532 408.995l36.533-85.396s10.298-20.153 12.75-40.305c2.452-20.153 15.693-51.893 15.693-51.893s32.855-42.824 48.057-36.778c15.202 6.046-13.24 28.717-13.24 28.717s41.682 16.626 13.24 66c-28.442 49.373-28.932 40.305-28.932 40.305l-13.976 79.35h-70.125z" fill="#000"/>
    <path d="M132.551 408.995l36.533-85.396s10.298-20.153 12.75-40.305c1.56-12.812 7.479-30.31 11.583-41.358a63.769 63.769 0 0111.632-19.649c10.622-12.212 29.914-31.906 40.535-27.674 15.202 6.045-13.24 28.717-13.24 28.717s41.682 16.626 13.24 65.999c-28.442 49.374-28.932 40.305-28.932 40.305l-13.976 79.351-70.125.01z" fill="#FDC2CC"/>
    <path opacity=".15" d="M267.406 97.14c.813 0 1.471-.677 1.471-1.511 0-.835-.658-1.512-1.471-1.512-.812 0-1.471.677-1.471 1.512 0 .834.659 1.511 1.471 1.511zM260.541 100.163c.812 0 1.471-.677 1.471-1.511 0-.835-.659-1.512-1.471-1.512-.813 0-1.471.677-1.471 1.511 0 .835.658 1.512 1.471 1.512z" fill="#fff"/>
    <path opacity=".1" d="M195.07 44.628c7.096-2.358 14.971-1.85 21.778-4.983 9.204-4.242 15.006-14.51 24.558-17.835 4.257-1.481 8.876-1.426 13.344-.952 14.365 1.536 28.046 7.09 39.554 16.056 9.469 7.401 18.355 17.493 30.227 18.284 2.869.191 5.787-.197 8.597.423 7.277 1.602 11.637 9.305 13.73 16.626a64.24 64.24 0 011.665 26.709 63.629 63.629 0 01-9.344 24.982c-2.687 4.131-5.963 8.177-6.625 13.099-.647 4.827 1.353 9.829.186 14.555-.98 3.915-3.923 6.928-6.787 9.704a866.408 866.408 0 01-30.32 28.087c-5.365-17.512 2.506-36.37 1.28-54.684-.491-7.134-2.942-14.923-9.067-18.288-5.733-3.144-13.059-1.512-18.861-4.534-6.473-3.351-9.13-11.286-14.024-16.777-8.337-9.371-22.808-10.58-34.465-6.348-11.656 4.232-21.184 12.937-30.403 21.427l-16.757 15.442c-3.271-3.789-.789-9.603.981-14.339 2.638-7.099 3.217-14.751 3.04-22.289-.142-6.045-2.172-12.015-2.054-17.9.235-11.608 9.199-22.954 19.767-26.465z" fill="#000"/>
    <path d="M195.07 43.116c7.096-2.358 14.971-1.849 21.778-4.982 9.204-4.242 15.006-14.51 24.558-17.835 4.257-1.482 8.876-1.426 13.344-.953 14.365 1.536 28.046 7.09 39.554 16.057 9.469 7.4 18.355 17.492 30.227 18.283 2.869.192 5.787-.196 8.597.423 7.277 1.603 11.637 9.306 13.73 16.626a64.24 64.24 0 011.665 26.709 63.63 63.63 0 01-9.344 24.982c-2.687 4.132-5.963 8.177-6.625 13.1-.647 4.826 1.353 9.829.186 14.555-.98 3.914-3.923 6.927-6.787 9.703a865.47 865.47 0 01-30.32 28.088c-5.365-17.513 2.506-36.371 1.28-54.684-.491-7.134-2.942-14.923-9.067-18.289-5.733-3.143-13.059-1.511-18.861-4.534-6.473-3.35-9.13-11.285-14.024-16.777-8.337-9.37-22.808-10.58-34.465-6.348-11.656 4.232-21.184 12.938-30.403 21.427l-16.757 15.442c-3.271-3.788-.789-9.602.981-14.338 2.638-7.099 3.217-14.752 3.04-22.289-.142-6.046-2.172-12.016-2.054-17.9.235-11.608 9.199-22.954 19.767-26.466z" fill="#865A61"/>
  </g>
  <defs>
    <linearGradient id="paint0_linear" x1="265.631" y1="408.995" x2="265.631" y2="11.981" gradientUnits="userSpaceOnUse">
      <stop stop-color="gray" stop-opacity=".25"/>
      <stop offset=".54" stop-color="gray" stop-opacity=".12"/>
      <stop offset="1" stop-color="gray" stop-opacity=".1"/>
    </linearGradient>
    <clipPath id="clip0">
      <path fill="#fff" d="M0 0h538v409H0z"/>
    </clipPath>
  </defs>
</svg>