<svg width="538" height="409" fill="none" xmlns="http://www.w3.org/2000/svg">
  <g clip-path="url(#clip0)">
    <path opacity=".1" d="M127.804 341.319c-4.53-.459-9.262-.95-13.552.251-4.29 1.2-7.845 4.705-6.571 8.056 2.846 7.469 19.547 2.267 27.248 7.373 2.75 1.824 3.821 4.695 5.969 6.935 3.474 3.639 9.448 5.335 15.214 6.269 34.64 5.607 74.129-8.824 104.489 5.074 9.833 4.503 17.586 11.668 28.367 14.671 14.282 3.98 29.924-.272 44.701-2.998a218.367 218.367 0 0155.898-2.934c13.818 1.067 32.199 1.424 36.622-8.622 2.846-6.461-3.176-13.652-11.17-16.709-7.994-3.057-17.352-2.961-26.278-2.668-17.229.619-34.464 1.867-51.693 1.259-33.318-1.184-64.792-14.405-97.236-14.842-37.784-.459-74.049 2.715-112.008-1.115zM92.775 174.09c-5.329 5.394-5.654 13.663-5.654 13.663s8.255-.469 13.563-5.869c5.308-5.399 5.659-13.663 5.659-13.663s-8.26.486-13.568 5.869zM114.225 40.84c1.881 7.336 8.783 11.897 8.783 11.897s3.853-7.325 1.972-14.66c-1.882-7.336-8.783-11.892-8.783-11.892s-3.874 7.325-1.972 14.655zM425.896 61.018c-5.329 5.393-5.66 13.663-5.66 13.663s8.261-.47 13.568-5.869c5.308-5.399 5.655-13.668 5.655-13.668s-8.255.507-13.563 5.874zM263.468 136.605c-.618 7.544 4.408 14.117 4.408 14.117s6.038-5.661 6.656-13.21c.618-7.549-4.407-14.106-4.407-14.106s-6.038 5.65-6.657 13.199zM438.297 242.406c-.618 7.544 4.407 14.117 4.407 14.117s6.038-5.661 6.656-13.205c.618-7.543-4.407-14.116-4.407-14.116s-6.038 5.66-6.656 13.204z" fill="#7379E2"/>
    <path opacity=".1" d="M312.581 51.419c-34.49-1.04-67.339-10.67-98.707-21.234-31.367-10.563-62.436-22.242-96.101-27.833-21.652-3.596-46.416-4.103-63.859 5.954-16.792 9.673-22.217 26.377-25.132 41.875-2.196 11.657-3.485 23.928 2.526 34.844 4.178 7.581 11.585 13.951 16.712 21.207 17.837 25.262 5.228 56.408-14.096 81.094-9.06 11.571-19.584 22.604-26.581 34.923-6.998 12.319-10.232 26.425-4.11 38.984 6.065 12.452 20.523 21.804 36.186 28.383 31.81 13.337 69.279 17.184 105.842 19.35 80.913 4.802 162.252 2.721 243.378.64 30.024-.768 60.177-1.547 89.711-5.57 16.403-2.23 33.334-5.772 45.244-14.33 15.114-10.862 18.86-29.252 8.729-42.873-16.989-22.839-63.949-28.516-75.839-53.031-6.533-13.492.176-28.521 9.678-41.037 20.379-26.847 54.533-50.401 56.329-81.094 1.237-21.074-15.183-42.18-40.571-52.15-26.608-10.457-63.513-9.14-83.135 8.162-20.224 17.793-55.748 24.648-86.204 23.736z" fill="#7379E2"/>
    <path d="M426.914 151.853a4.801 4.801 0 00-3.272 2.886l-.533-.085-1.988-.32s-10.53-.87-12.497-.736c-1.966.133-3.197-1.809-3.197-1.809l-7.829-6.631-.607-.534c.847-.32 1.374-.485 1.374-.485s-21.007-26.142-25.537-26.649c-4.53-.507-12.017-6.611-12.092-6.669l-.08-.416a32.126 32.126 0 01-.378-2.668l1.114.683c0-.309 0-.619.032-.928a16.896 16.896 0 013.133-8.963c2.191-3.041 5.431-5.431 6.726-8.937.516-1.507.749-3.097.687-4.69a15.648 15.648 0 00-2.185-8.157 10.182 10.182 0 00-6.874-4.748c-.747-.117-1.509-.133-2.244-.304-4.375-1.03-5.985-6.903-10.237-8.344-1.983-.672-4.189-.23-6.102.603-1.913.832-3.645 2.027-5.516 2.95-1.87.923-3.991 1.6-5.691 2.908a5.857 5.857 0 00-.533.459l-.336.325a12.055 12.055 0 00-1.817 2.374l-.08.134c-.054.09-.102.186-.15.282-.047.096-.079.15-.111.224-.032.075-.086.171-.123.257l-.112.256-.096.245c-.032.09-.069.181-.096.277-.026.096-.053.155-.074.235l-.08.283-.048.23c0 .095-.038.197-.054.293-.016.096 0 .144 0 .213v.987c.021.157.053.312.096.464.288.982 1.279 1.985 2.036 2.86-.085.08-.17.155-.256.24a18.61 18.61 0 00-5.686 13.397c.001 1.11.103 2.22.304 3.313a17.771 17.771 0 00-3.107-1.884 27.096 27.096 0 00-11.559-2.667c-6.528-.075-15.7-2.53-15.7-2.53.234.449.413.924.533 1.415a55.76 55.76 0 00-1.305-.731 38.253 38.253 0 00-12.258-4.108s-2.717.378-3.08-5.335a24.224 24.224 0 00-.959-5.266 89.8 89.8 0 01-3.229-16.005l-.912-8.387s4.104-21.874 1.636-31.2c.794-2.924.347-5.602-2.27-7.528-10.323-7.608-20.736 22.002-20.736 22.002l-3.869 3.762a8.292 8.292 0 00-3.282-1.254s-2.084 2.134-3.534 7.96c-.767 3.089-6.011 8.248-10.754 12.404-3.368 2.95-6.619 6.018-9.864 9.096-2.398 2.284-7.743 5.549-19.404 7.395-1.828.288-3.49.56-5.009.81.388-1.378.585-2.803.586-4.236a15.9 15.9 0 00-3.522-9.9 15.87 15.87 0 00-8.927-5.534 4.005 4.005 0 000-1.126 4.657 4.657 0 00-1.178-2.134c-2.456-3.04-5.121-6.167-8.777-7.608a11.417 11.417 0 00-4.737-.763H169.387a12.13 12.13 0 00-8.878 4.631c-1.311 1.756-2.1 3.836-3.229 5.709-2.1 3.468-5.33 6.14-8.831 8.253-2.105 1.275-4.316 2.374-6.304 3.82-7.211 5.245-10.536 14.939-8.724 23.603.799 3.804 2.489 7.549 2.036 11.406-.357 2.993-1.967 5.682-3.608 8.222-1.642 2.539-3.379 5.121-4.029 8.061-.65 2.94.032 6.402 2.494 8.184.906.651 2.004 1.067 2.777 1.857a8.869 8.869 0 011.278 2.006 19.967 19.967 0 0012.401 9.646 9.08 9.08 0 002.537.277h.256c1.956.123 3.96-.4 4.615-2.134a4.84 4.84 0 01.442-1.131 1.33 1.33 0 01.773-.534 7.128 7.128 0 011.807.683 22.952 22.952 0 008.782 2.513c.512.041 1.027.05 1.54.027a6.809 6.809 0 003.139-.448 6.733 6.733 0 002.414-2.07c.139-.176.267-.363.4-.534a44.155 44.155 0 01-3.933 12.271s-3.198 5.335-2.968 10.713a10.766 10.766 0 001.199 5.655s.09-.235.277-.603c.916 1.537 3.922 6.45 5.894 8.173.096 5.074.074 11.428-.56 12.735-1.066 2.236-4.434 18.14 10.051 28.986l3.341 7.325-13.754.976c-1.391-.192-19.377-2.614-19.468.913-.09 3.665 2.718 39.357 12.044 36.94 8.692-2.251 5.825-12.66 5.393-14.058l.31-.085-.341-.096 6.954-6.6a3.086 3.086 0 00-.533-2.289l.069-.037 16.798.752 3.949 8.59s6.699 10.2 1.268 18.785c-5.43 8.584-11.047 22.007-11.953 30.148-.741 6.659-5.665 13.199-7.429 15.355-3.15 1.067-15.231 5.815-10.408 13.001 5.521 8.227 23.448 23.886 30.696 23.347 7.248-.539 4.343-5.815 4.343-5.815l-6.059-5.88s-1.066-12.526-.634-16.192c.234-1.904-1.167-3.275-2.665-3.857.571-4.081 2.015-11.817 5.116-16.091 4.344-5.996 18.29-32.384 18.29-32.384s4.434-3.937 3.437-15.653a270.621 270.621 0 01-.751-12.159l15.785.71s16.931-1.702 5.43-19.863c-11.5-18.16-35.945-35.958-35.945-35.958l-.218-11.241c1.108.277 1.758.416 1.758.416s-.096-.406-.255-1.131l.255.058s-3.533-15.306-4.62-27.475l.996.458c10.504 12.17 17.587 1.884 17.587 1.884s22.185-31.221 20.011-29.792a1.874 1.874 0 01-1.46.091l1.598-5.1s6.55-10.02-2.957-15.653c-7.76-4.6-7.557 9.816-7.221 15.263l-.384-.325s-7.424 11.204-11.41 17.446c-3.986 6.242-7.333 2.134-7.333 2.134l-5.036-5.682a19.97 19.97 0 001.199-7.107 12.082 12.082 0 00-3.405-9.219c-3.842-3.921-4.967-7.72-5.084-10.643.038-1.515.38-3.006 1.007-4.386l26.172-13.87s5.521.085 12.944-11.365a196.564 196.564 0 0115.849-20.93s-.154-.223-.421-.592c.267-.314.421-.485.421-.485s-.304-.443-.821-1.126l4.034-4.657a59.787 59.787 0 00-.047 6.322l2.089 7.069 1.172 39.357s-1.268 3.734 6.885 7.517c6.896 3.201 17.821 8.536 21.008 10.11-.117.288-.187.443-.187.443l.949-.064.138.064c15.929-1.43 15.386 14.49 15.386 14.49s1.066 32.384-3.8 43.657c-4.865 11.273-4.167 25.225-4.167 25.225s.485-2.38 3.197.731c-.053.272-.112.565-.176.869-1.556 7.805-4.796 24.408-5.398 31.141a109.21 109.21 0 01-3.533 18.14l-1.599 29.786 10.184.496-.112 1.067a3.35 3.35 0 01-1.727 2.598c-3.485 1.894-11.724 8.536-11.063 29.034l-.352 3.297a41.453 41.453 0 01-4.972 15.904c-.234.416-.442.816-.618 1.2a.982.982 0 01.277-.571s-5.292 1.099-4.205 15.413c1.088 14.314 2.718 16.817 4.893 16.993 2.174.176 12.79 2.774 12.219-2.503-.57-5.276-1.066-16.997-.362-18.784.703-1.788 3.592-6.611.853-7.774a40.916 40.916 0 001.145-10.03s5.33-8.408 9.14-11.54c3.81-3.131 5.862-8.45 7.242-15.295.096-.448 11.229-7.875 9.593-14.042a37.27 37.27 0 01-.656-2.865 51.446 51.446 0 01-.181-1.067h.197l2.265-13.599v13.241l1.343.176-.048 1.067-.57 12.698a20.943 20.943 0 01-1.599 7.192c-2.398 5.682-6.821 18.331-5.617 32.01l-.128 12.196c-.383.075-5.915 1.382-4.865 15.205 1.066 14.309 2.712 16.817 4.887 16.993 2.174.176 12.79 2.774 12.225-2.502-.565-5.277-1.066-16.998-.363-18.785.704-1.788 1.972-6.515-.767-7.678.014-1.603.405-3.18 1.14-4.604 1.194-2.032 5.18-11.694 8.181-19.126a68.538 68.538 0 005.036-23.651v-.272c.08-2.739.668-5.44 1.732-7.965a51.452 51.452 0 002.899-8.755c.074-.357.133-.704.186-1.067l2.601.347 8.878-38.466s2.43-20.85 1.242-30.266c-.048-.39-.101-.747-.165-1.094l.533.048s1.812-4.647 1.268-24.51c-.544-19.862 3.624-26.142 3.624-26.142 2.249-7.138 4.732-9.528 6.182-10.328.373-.238.8-.378 1.241-.406l6.72 7.699 1.237 1.419a.617.617 0 000-.086l.533.625a5.754 5.754 0 01-.043-.955c3.587 2.086 11.873 6.962 16.819 10.462 6.448 4.561 8.217 4.028 13.856 3.553 3.421-.283 8.047-2.203 11.148-3.665l.283-.134c.834.446 1.713.804 2.622 1.067 0 0 9.102 7.72 9.981-6.37.88-14.09-10.919-10.686-10.919-10.686zM190.832 315.94a13.172 13.172 0 01-2.665-1.126l2.665 1.126zm-14.25-152.52l.032 2-.139.064c.043-.704.075-1.398.107-2.064zm142.363 178.576v.779a.57.57 0 010-.779z" fill="url(#paint0_linear)"/>
    <path d="M347.999 107.572h-15.454v16.272h15.454v-16.272z" fill="#FF7590"/>
    <path d="M313.765 295.458c-1.359 6.803-3.373 12.09-7.104 15.205-3.73 3.116-8.969 11.471-8.969 11.471-.09 11.113-3.021 14.49-3.021 14.49l-3.022.8h-7.461s-1.332-3.734-1.599-5.954c-.09-.741.437-1.984 1.173-3.318a41.604 41.604 0 004.876-15.808l.346-3.281c-.628-20.364 7.461-26.974 10.856-28.858a3.331 3.331 0 001.689-2.582l.602-5.821 20.07.987s-.426 1.772.336 5.869c.154.848.362 1.793.639 2.844 1.599 6.13-9.326 13.508-9.411 13.956zM347.797 281.395a51.805 51.805 0 01-2.841 8.701 22.38 22.38 0 00-1.705 7.918v.272a68.958 68.958 0 01-4.94 23.506c-2.947 7.384-6.853 16.993-8.026 19.015-1.95 3.377-.799 9.069-.799 9.069l-11.298-.8.197-19.03c-1.178-13.589 3.16-26.142 5.511-31.814a20.88 20.88 0 001.598-7.143l.533-12.623.165-3.735s19.974-2.843 21.658 1.692c.464 1.2.352 2.987-.053 4.972z" fill="#8E5362"/>
    <path opacity=".1" d="M322.537 278.658l-21.029-1.035.602-5.821 20.091.987s-.442 1.766.336 5.869zM347.797 281.395l-21.775-2.929.165-3.735s19.974-2.843 21.658 1.692c.469 1.2.357 2.987-.048 4.972z" fill="#000"/>
    <path d="M359.239 242.459l-8.703 38.237-25.756-3.468v-13.162l-2.227 13.525-30.909-1.515 1.598-29.61a109.875 109.875 0 003.464-18.049c.602-6.69 3.768-23.191 5.297-30.943.533-2.556.832-4.167.832-4.167s52.94 11.022 56.404 15.024c.591.682.98 2.134 1.22 4.06 1.162 9.347-1.22 30.068-1.22 30.068z" fill="#BDD2E8"/>
    <path opacity=".1" d="M297.42 244.951s20.837-10.937 25.916-8.627l-25.916 8.627zM308.788 209.206s17.319 13.161 17.852 16.714l-17.852-16.714zM304.082 254.554s12.523-.533 16.52 2.668l-16.52-2.668zM326.64 240.48s5.953 19.505 3.373 24.84c-2.579 5.335-5.238-1.248-5.238-1.248l1.865-23.592z" fill="#000"/>
    <path d="M318.279 342.146s-5.862.891-4.796 15.114c1.065 14.224 2.664 16.72 4.796 16.896 2.131.176 12.523 2.759 11.99-2.491-.533-5.25-1.065-16.891-.357-18.673.709-1.782 1.935-6.471-.751-7.629l-.581 2.742s-5.686-5.25-9.059-1.424a14.755 14.755 0 00-.699-2.737c-.335-.833-1.071-1.265-.543-1.798z" fill="#494457"/>
    <path d="M425.56 167.592s-1.343.752-3.315 1.691c-3.042 1.451-7.578 3.361-10.935 3.644-5.532.469-7.264 1.003-13.589-3.532-4.855-3.478-12.982-8.328-16.521-10.398l-1.54-.912-.154-.091v-.064l2.936-8.077 10.392-5.533 2.579 2.214 7.679 6.589s1.2 1.931 3.134 1.798 12.257.731 12.257.731l1.951.32 4.108.683 1.018 10.937z" fill="#8E5362"/>
    <path opacity=".1" d="M425.56 167.592s-1.343.752-3.315 1.691c-2.083-1.067-4.673-3.068-3.677-6.36.901-2.961 1.146-5.271 1.887-6.935l4.108.683.997 10.921z" fill="#000"/>
    <path d="M424.164 153.187s11.591-3.334 10.727 10.67c-.863 14.005-9.795 6.338-9.795 6.338s-7.594-2-5.995-7.271c1.599-5.271 1.135-8.467 5.063-9.737zM303.991 107.838l-12.076 5.079-.186.081-.133-.065-.752-.378c-3.123-1.558-13.856-6.888-20.608-10.052-7.993-3.734-6.752-7.469-6.752-7.469l-1.151-39.122-2.046-7.026S258.843 25.07 270.412 19.1c11.57-5.97 4.088 34.496 4.088 34.496l.895 8.409a90.148 90.148 0 003.171 15.882c.5 1.706.814 3.46.938 5.234.357 5.687 3.021 5.308 3.021 5.308a37.07 37.07 0 0112.012 4.087 30.017 30.017 0 013.976 2.518l5.478 12.804zM346.982 126.511l-10.307-1.067s3.038-4.524 4.375-8.925c.189-.604.341-1.218.453-1.841.309-1.744.229-3.361-.565-4.529-3.016-4.444 17.944-10.67 17.944-10.67a51.296 51.296 0 00-.23 7.405c.06 1.719.238 3.432.533 5.127.635 3.451 1.898 6.701 4.306 8.365 6.582 4.535-16.509 6.135-16.509 6.135z" fill="#8E5362"/>
    <path opacity=".1" d="M346.982 126.511l-10.307-1.067s3.038-4.524 4.375-8.925c1.189 1.691 1.599 1.654 3.267 1.99 0 0 10.403 1.542 14.879-6.499.634 3.452 1.897 6.701 4.306 8.366 6.571 4.535-16.52 6.135-16.52 6.135zM381.222 158.997c-.013.317.002.635.042.95l-1.599-1.862-.133-.155 2.937-8.077 10.391-5.533 2.58 2.214c-3.693 1.414-14.053 5.901-14.218 12.463zM303.991 107.838l-12.076 5.079h-.319l-.933.064s.069-.154.181-.442c1.007-2.449 5.681-14.405 3.661-20.039a30.007 30.007 0 013.976 2.518l5.51 12.82zM360.459 212.375c-4.7-.422-51.725-4.775-56.111-11.706a24.314 24.314 0 00-2.345-3.201c.533-2.555.832-4.166.832-4.166s52.94 11.022 56.404 15.023c.591.672.98 2.118 1.22 4.05z" fill="#000"/>
    <path d="M344.317 119.042s10.514 1.558 14.959-6.621c0 0 7.423 6.104 11.863 6.627 4.439.522 25.047 26.494 25.047 26.494s-16.521 5.335-15.455 13.871l-7.818-9.07s-3.906-.181-7.279 10.671c0 0-4.088 6.22-3.555 25.96.533 19.74-1.242 24.366-1.242 24.366s-51.874-4.444-56.489-11.738c-4.615-7.293-5.329-3.734-5.329-3.734s-.714-13.871 4.082-25.075c4.796-11.204 3.731-43.391 3.731-43.391s.533-15.829-15.098-14.404c0 0 6.571-15.296 3.555-21.165 0 0 8.99 2.444 15.396 2.518 3.931.031 7.806.942 11.34 2.668 1.924.944 3.699 2.134 4.706 3.553 3.016 4.268 7.993 2.316 7.993 2.316a80.897 80.897 0 004.637 11.379c.208.39.416.774.629 1.142.309.534.629 1.067.948 1.505 1.279 1.83 1.642 1.782 3.379 2.128z" fill="#FF7590"/>
    <path opacity=".1" d="M358.652 106.868a18.244 18.244 0 01-1.886 2.267 18.57 18.57 0 01-13.323 5.623 19.037 19.037 0 01-1.924-.096c.309-1.744.229-3.361-.565-4.529-3.016-4.445 17.944-10.67 17.944-10.67a51.443 51.443 0 00-.246 7.405z" fill="#000"/>
    <path d="M362.079 95.568c0 3.693-1.094 7.303-3.143 10.374a18.656 18.656 0 01-8.371 6.877 18.632 18.632 0 01-20.327-4.048 18.675 18.675 0 01-5.105-9.56 18.696 18.696 0 011.062-10.789 18.665 18.665 0 016.869-8.38 18.64 18.64 0 0110.363-3.147 18.566 18.566 0 0113.209 5.449 18.603 18.603 0 015.443 13.224z" fill="#8E5362"/>
    <path opacity=".1" d="M371.32 138.249l.384 12.494s5.568-4.492 5.744-8.76c.176-4.268-6.128-3.734-6.128-3.734zM326.374 150.743s14.655 20.14 23.182 22.184c8.526 2.043-19.985-15.653-23.182-22.184zM341.919 152.84s8.17 9.24 14.032 10.393l-14.032-10.393zM313.141 176.128s14.922 14.671 23.449 15.562l-23.449-15.562zM362.079 95.568a18.61 18.61 0 01-5.329 13.049l-2.046-1.275a5.64 5.64 0 01-1.993-1.734c-.677-1.131-.48-2.55-.427-3.868.112-2.79-.655-5.81-2.835-7.554-3.533-2.833-9.198-1.265-12.79-4.044a12.613 12.613 0 01-2.265-2.524l-3.368-4.518c-.202-.267-.447-.534-.709-.849a18.633 18.633 0 0120.299-3.903 18.657 18.657 0 018.319 6.89 18.685 18.685 0 013.112 10.351l.032-.021z" fill="#000"/>
    <path d="M332.188 71.656c1.668-1.275 3.704-1.948 5.58-2.887 1.875-.938 3.533-2.134 5.409-2.934 1.876-.8 4.045-1.27 5.99-.603 4.172 1.436 5.75 7.272 10.04 8.296.725.171 1.471.187 2.201.3a10.014 10.014 0 016.741 4.72 15.732 15.732 0 012.132 8.115c.059 1.581-.17 3.16-.677 4.658-1.268 3.484-4.45 5.869-6.598 8.883a16.907 16.907 0 00-3.085 9.865l-5.201-3.239a5.604 5.604 0 01-1.993-1.734c-.677-1.131-.48-2.55-.427-3.868.112-2.79-.655-5.81-2.83-7.554-3.538-2.833-9.203-1.265-12.79-4.044a12.638 12.638 0 01-2.264-2.524l-3.368-4.518c-.731-.982-2.132-2.204-2.452-3.399-.709-2.571 1.716-6.087 3.592-7.533z" fill="#362133"/>
    <path opacity=".1" d="M355.3 106.227a5.602 5.602 0 01-1.993-1.734c-.677-1.131-.479-2.55-.426-3.867.112-2.79-.656-5.81-2.835-7.555-3.533-2.833-9.198-1.264-12.79-4.044a12.616 12.616 0 01-2.265-2.523l-3.368-4.52c-.735-.981-2.132-2.203-2.452-3.398-.58-2.06.89-4.743 2.463-6.46-1.764 1.632-3.699 4.732-3.043 7.042.341 1.195 1.721 2.416 2.451 3.398l3.368 4.519c.638.94 1.4 1.788 2.265 2.524 3.576 2.78 9.241 1.21 12.79 4.044 2.174 1.744 2.942 4.764 2.83 7.554-.054 1.318-.251 2.737.426 3.868a5.604 5.604 0 001.993 1.734l5.201 3.238c0-.309 0-.619.032-.923l-4.647-2.897z" fill="#000"/>
    <path d="M283.426 328.776s-5.19 1.067-4.125 15.317c1.066 14.25 2.665 16.72 4.797 16.896 2.131.176 12.523 2.759 11.99-2.491-.533-5.25-1.066-16.891-.357-18.673.709-1.782 3.523-6.568.837-7.725l-2.169 2.838s-5.686-5.25-9.06-1.425c0 0-3.154-3.494-1.913-4.737z" fill="#494457"/>
    <path opacity=".1" d="M286.709 337.611c1.124.533 2.174 1.184 3.293 1.718a7.402 7.402 0 003.576.843 2.496 2.496 0 001.46-.507M320.869 351.546c.666.614 1.183 1.398 1.934 1.905 1.066.715 2.43.758 3.731.774.216.019.434-.008.639-.08.232-.127.429-.31.57-.534l.698-.902" fill="#000"/>
    <path d="M233.295 114.95s-2.398-22.76 6.928-17.158 2.904 15.558 2.904 15.558l-2.19 7.026-7.642-5.426zM248.216 42.217l5.329-5.24s10.216-29.433 20.342-21.873c10.125 7.56-12.833 26.675-12.833 26.675l-6.086 7.112-6.752-6.674z" fill="#FFC1C7"/>
    <path d="M170.229 158.618l-.266 6.045s4.887 8.536 6.928 9.16c2.041.624 1.865-18.054 1.865-18.054l-8.527 2.849z" fill="#FF5374"/>
    <path opacity=".1" d="M170.229 158.618l-.266 6.045s4.887 8.536 6.928 9.16c2.041.624 1.865-18.054 1.865-18.054l-8.527 2.849z" fill="#000"/>
    <path d="M178.399 151.981l.362 22.28h24.776l-1.866-12.981-23.272-9.299z" fill="#FFC1C7"/>
    <path d="M184.176 207.605l1.156 7.112 14.48 32.192s6.57 10.136 1.241 18.673c-5.329 8.536-10.834 21.874-11.724 29.962-.89 8.088-7.903 16.005-7.903 16.005l15.279 6.493s1.066-12.714 5.329-18.673c4.263-5.959 17.938-32.187 17.938-32.187s4.354-3.916 3.379-15.562c-.976-11.647-.89-19.831-.89-19.831l-1.509-18.582-36.776-5.602z" fill="#575988"/>
    <path opacity=".1" d="M184.176 207.605l1.156 7.112 14.48 32.192s6.57 10.136 1.241 18.673c-5.329 8.536-10.834 21.874-11.724 29.962-.89 8.088-7.903 16.005-7.903 16.005l15.279 6.493s1.066-12.714 5.329-18.673c4.263-5.959 17.938-32.187 17.938-32.187s4.354-3.916 3.379-15.562c-.976-11.647-.89-19.831-.89-19.831l-1.509-18.582-36.776-5.602z" fill="#000"/>
    <path d="M182.753 310.573s-16.345 4.977-10.925 13.161c5.42 8.184 23.006 23.741 30.11 23.208 7.104-.534 4.263-5.783 4.263-5.783l-5.952-5.869s-1.066-12.447-.619-16.091c.448-3.644-5.062-5.335-5.776-3.201-.715 2.134-11.101-5.425-11.101-5.425z" fill="#C4747B"/>
    <path d="M193.054 164.796l-12.955 1.435a4.647 4.647 0 00-4.135 4.743c.138 5.186.229 13.434-.496 14.939-1.066 2.224-4.349 18.054 9.859 28.809l19.275 6.135-30.909 2.225.981 17.163 4.796-2.667 58.621 2.667s16.611-1.691 5.329-19.74c-11.282-18.048-35.258-35.745-35.258-35.745l-.266-14.053-1.78-4.086-13.062-1.825z" fill="#575988"/>
    <path opacity=".1" d="M209.132 220.585a16.639 16.639 0 0113.323 0h-13.323z" fill="#000"/>
    <path d="M175.207 222.986s-19.094-2.753-19.185.891c-.091 3.644 2.665 39.122 11.815 36.722 9.15-2.401 5.238-14.138 5.238-14.138l6.843-6.579s.709-3.643-3.821-3.291l-.89-13.605z" fill="#C4747B"/>
    <path d="M206.825 123.486l7.546 8.627s3.288 4.092 7.194-2.134c3.906-6.226 11.191-17.339 11.191-17.339s8.085 7.112 10.216 5.693c2.132-1.419-19.627 29.615-19.627 29.615s-6.928 10.222-17.234-1.867l-3.017-1.425 3.731-21.17z" fill="#FF5374"/>
    <path opacity=".1" d="M206.825 123.486l7.546 8.627s3.288 4.092 7.194-2.134c3.906-6.226 11.191-17.339 11.191-17.339s8.085 7.112 10.216 5.693c2.132-1.419-19.627 29.615-19.627 29.615s-6.928 10.222-17.234-1.867l-3.017-1.425 3.731-21.17z" fill="#000"/>
    <path d="M183.739 88.43c8.682 0 15.721-7.047 15.721-15.74 0-8.691-7.039-15.738-15.721-15.738-8.683 0-15.721 7.047-15.721 15.739s7.038 15.738 15.721 15.738z" fill="#FFC1C7"/>
    <path opacity=".1" d="M183.733 81.163s-13.509 6.402-11.91 17.606c1.599 11.204 1.865 25.342 1.865 25.342s6.134 9.069-1.998 26.408c0 0-5.196 8.803-1.732 15.206 0 0 3.842-10.137 13.775-2.668 9.934 7.469 25.927 10.937 25.927 10.937s-8.26-36.279-3.198-41.347c0 0 8.793-13.071.8-21.341-7.994-8.269-3.997-16.005-3.997-16.005l25.67-13.78s5.415.085 12.7-11.295A195.898 195.898 0 01257.18 49.42s-5.51-8.27-10.658-8.893c0 0-2.047 2.134-3.464 7.917-.757 3.068-5.9 8.195-10.552 12.33-3.304 2.934-6.491 5.98-9.672 9.069-2.356 2.267-7.6 5.511-19.036 7.346-18.823 3.004-20.065 3.975-20.065 3.975z" fill="#000"/>
    <path d="M183.733 80.096s-13.509 6.402-11.91 17.606c1.599 11.204 1.865 25.342 1.865 25.342s6.134 9.069-1.998 26.408c0 0-5.196 8.803-1.732 15.205 0 0 3.842-10.136 13.775-2.667 9.934 7.469 25.927 10.937 25.927 10.937s-8.26-36.279-3.198-41.347c0 0 8.793-13.071.8-21.341-7.994-8.269-3.997-16.005-3.997-16.005l25.67-13.78s5.415.085 12.7-11.295a195.907 195.907 0 0115.545-20.807s-5.51-8.27-10.658-8.893c0 0-2.047 2.133-3.464 7.917-.757 3.068-5.9 8.195-10.552 12.33-3.304 2.933-6.491 5.98-9.672 9.069-2.356 2.267-7.6 5.511-19.036 7.346-18.823 3.004-20.065 3.975-20.065 3.975z" fill="#FF5374"/>
    <path opacity=".1" d="M195.367 147.142s10.477 15.472 10.744 18.14c.005 0-1.594-16.63-10.744-18.14zM181.602 95.034s7.306 8.803 17.863 1.425a22.62 22.62 0 01-17.863-1.425z" fill="#000"/>
    <path opacity=".1" d="M187.267 56.232a4.735 4.735 0 00-1.151-2.134c-2.409-3.025-5.026-6.13-8.612-7.565a11.894 11.894 0 00-13.584 3.873c-1.29 1.74-2.057 3.81-3.171 5.671-2.057 3.447-5.239 6.104-8.66 8.206-2.063 1.264-4.237 2.358-6.182 3.793-7.072 5.212-10.339 14.848-8.559 23.474.784 3.778 2.441 7.502 1.994 11.338-.347 2.977-1.93 5.644-3.534 8.173-1.604 2.529-3.314 5.09-3.954 8.003-.639 2.913.032 6.364 2.446 8.13.89.651 1.961 1.067 2.723 1.846a8.865 8.865 0 011.253 1.996 19.607 19.607 0 0012.166 9.603c2.292.603 5.367.384 6.203-1.836.096-.391.241-.77.432-1.125.757-1.067 2.425-.47 3.597.144a22.246 22.246 0 008.596 2.47 7.174 7.174 0 003.523-.421 6.514 6.514 0 002.371-2.054c2.803-3.655 3.608-8.43 4.088-13.013.314-2.982.533-6.018-.038-8.963-.906-4.727-3.778-9.144-3.352-13.935.453-5.122 4.605-9.31 5.239-14.405a10.993 10.993 0 00-1.871-7.57 10.878 10.878 0 01-1.423-2.23 2.224 2.224 0 01.427-2.45 3.726 3.726 0 011.108-.533c3.427-1.318 5.255-4.753 5.5-8.27.096-1.333 0-2.56.368-3.862.586-2.011 2.36-4.21 2.057-6.354z" fill="#000"/>
    <path d="M186.201 56.232a4.735 4.735 0 00-1.151-2.134c-2.409-3.025-5.026-6.13-8.612-7.565a11.894 11.894 0 00-13.584 3.873c-1.29 1.74-2.057 3.81-3.171 5.671-2.057 3.447-5.239 6.104-8.66 8.206-2.062 1.264-4.237 2.358-6.182 3.793-7.072 5.212-10.338 14.848-8.559 23.474.784 3.778 2.441 7.502 1.994 11.338-.347 2.977-1.93 5.644-3.534 8.173-1.604 2.529-3.314 5.09-3.954 8.003-.639 2.913.032 6.364 2.446 8.13.89.651 1.961 1.067 2.723 1.846a8.865 8.865 0 011.253 1.996 19.607 19.607 0 0012.166 9.603c2.292.603 5.367.384 6.203-1.836.096-.391.241-.77.432-1.125.757-1.067 2.425-.47 3.597.144a22.246 22.246 0 008.596 2.47 7.174 7.174 0 003.523-.421 6.514 6.514 0 002.371-2.054c2.803-3.655 3.608-8.43 4.088-13.013.314-2.982.533-6.018-.038-8.963-.906-4.727-3.778-9.144-3.352-13.935.453-5.122 4.605-9.31 5.239-14.405a10.993 10.993 0 00-1.871-7.57 10.878 10.878 0 01-1.423-2.23 2.224 2.224 0 01.427-2.45 3.726 3.726 0 011.108-.533c3.427-1.318 5.255-4.753 5.5-8.27.096-1.333 0-2.56.368-3.862.586-2.011 2.36-4.21 2.057-6.354z" fill="#BB7684"/>
    <g opacity=".1" fill="#000">
      <path opacity=".1" d="M154.423 137.651c-.19.356-.337.734-.437 1.126-.496 1.323-1.791 1.931-3.235 2.08 2.009.203 4.157-.282 4.834-2.08.1-.392.246-.77.437-1.126.134-.196.318-.353.533-.453-.81-.235-1.642-.225-2.132.453zM186.228 56.227a4.608 4.608 0 00-1.152-2.134c-2.408-3.025-5.025-6.13-8.612-7.566a11.176 11.176 0 00-4.902-.736c1.133.072 2.247.32 3.304.736 3.586 1.436 6.203 4.54 8.612 7.566a4.615 4.615 0 011.151 2.134c.304 2.134-1.466 4.348-2.052 6.322-.389 1.301-.277 2.523-.368 3.862-.25 3.51-2.073 6.936-5.505 8.27a3.726 3.726 0 00-1.108.533 2.214 2.214 0 00-.421 2.454c.379.8.855 1.548 1.417 2.23a10.98 10.98 0 011.876 7.566c-.639 5.105-4.796 9.288-5.244 14.404-.426 4.802 2.452 9.209 3.352 13.93.565 2.945.352 5.981.038 8.963-.48 4.583-1.279 9.364-4.088 13.013a6.48 6.48 0 01-2.366 2.054 5.302 5.302 0 01-1.743.432 6.892 6.892 0 003.342-.432 6.487 6.487 0 002.382-2.017c2.808-3.649 3.608-8.429 4.087-13.012.315-2.983.533-6.018-.037-8.963-.9-4.722-3.778-9.145-3.352-13.93.458-5.127 4.604-9.31 5.244-14.405a10.986 10.986 0 00-1.876-7.565 10.776 10.776 0 01-1.417-2.23 2.215 2.215 0 01.421-2.454 3.726 3.726 0 011.108-.534c3.432-1.323 5.255-4.759 5.505-8.27.091-1.338 0-2.56.368-3.862.57-2.011 2.339-4.21 2.036-6.36z"/>
    </g>
    <path opacity=".1" d="M166.051 244.513a7.189 7.189 0 007.37 2.038M200.201 335.744a4.52 4.52 0 01-3.678.928" fill="#000"/>
    <path opacity=".1" d="M56.036 352.304c7.926 0 14.352-1.087 14.352-2.428 0-1.34-6.426-2.427-14.352-2.427s-14.351 1.087-14.351 2.427c0 1.341 6.425 2.428 14.351 2.428z" fill="#7379E2"/>
    <path d="M448.944 400.64c7.927 0 14.352-1.087 14.352-2.428 0-1.34-6.425-2.427-14.352-2.427-7.926 0-14.351 1.087-14.351 2.427 0 1.341 6.425 2.428 14.351 2.428z" fill="#7379E2"/>
    <path opacity=".1" d="M448.944 353.915c7.927 0 14.352-1.087 14.352-2.427 0-1.341-6.425-2.428-14.352-2.428-7.926 0-14.351 1.087-14.351 2.428 0 1.34 6.425 2.427 14.351 2.427zM96.73 374.845c7.926 0 14.351-1.087 14.351-2.428 0-1.34-6.425-2.427-14.351-2.427-7.927 0-14.352 1.087-14.352 2.427 0 1.341 6.425 2.428 14.352 2.428z" fill="#7379E2"/>
    <path d="M494.333 376.045c11.834 0 21.428-1.624 21.428-3.628 0-2.003-9.594-3.628-21.428-3.628-11.835 0-21.429 1.625-21.429 3.628 0 2.004 9.594 3.628 21.429 3.628z" fill="#7379E2"/>
    <path opacity=".1" d="M186.233 409c26.713 0 48.367-3.664 48.367-8.184s-21.654-8.184-48.367-8.184c-26.713 0-48.368 3.664-48.368 8.184S159.52 409 186.233 409z" fill="#7379E2"/>
    <path d="M503.19 366.485a6.256 6.256 0 002.046-3.089c.262-1.227-.261-2.695-1.428-3.143-1.311-.501-2.712.406-3.773 1.329-1.06.923-2.281 1.963-3.672 1.771a5.586 5.586 0 001.727-5.234 2.19 2.19 0 00-.48-1.067c-.73-.779-2.046-.443-2.92.171-2.771 1.953-3.544 5.719-3.56 9.112-.277-1.221-.042-2.497-.048-3.734-.005-1.238-.351-2.668-1.407-3.324a4.291 4.291 0 00-2.131-.534c-1.247-.042-2.633.08-3.486.993-1.065 1.136-.783 3.035.139 4.268.922 1.232 2.318 2.027 3.602 2.891a8.001 8.001 0 012.58 2.46c.076.14.141.286.192.437h7.807a21.707 21.707 0 004.812-3.307zM457.807 392.408a6.258 6.258 0 002.041-3.089c.261-1.227-.256-2.668-1.428-3.143-1.311-.501-2.713.406-3.773 1.329-1.061.923-2.281 1.963-3.672 1.771a5.587 5.587 0 001.726-5.234 2.133 2.133 0 00-.479-1.067c-.725-.779-2.047-.443-2.915.171-2.771 1.953-3.544 5.719-3.56 9.112-.283-1.221-.048-2.496-.053-3.734-.006-1.238-.352-2.668-1.407-3.324a4.26 4.26 0 00-2.132-.507c-1.247-.043-2.633.08-3.485.992-1.066 1.137-.784 3.036.138 4.269.922 1.232 2.318 2.027 3.608 2.891a7.993 7.993 0 012.574 2.46c.077.14.141.286.192.437h7.807a21.845 21.845 0 004.818-3.334z" fill="#7379E2"/>
    <path d="M112.984 344.28s-7.488-25.454 1.407-44.186a40.244 40.244 0 003.261-25.235 67.585 67.585 0 00-3.565-11.838" stroke="#535461" stroke-width="2" stroke-miterlimit="10"/>
    <path d="M119.602 251.182c0 3.121-5.643 12.164-5.643 12.164s-5.638-9.043-5.638-12.164a5.645 5.645 0 019.692-4.107 5.655 5.655 0 011.589 4.107zM128.928 268.463c-1.694 2.614-11.34 7.138-11.34 7.138s.176-10.67 1.87-13.279a5.638 5.638 0 017.719-1.541 5.656 5.656 0 011.751 7.682zM128.523 297.987c-2.782 1.408-13.392.437-13.392.437s5.526-9.117 8.308-10.52a5.644 5.644 0 017.436 2.569 5.657 5.657 0 01-2.352 7.514zM123.189 320.272c-2.505 1.851-13.126 2.667-13.126 2.667s3.912-9.923 6.395-11.78a5.643 5.643 0 018.733 5.396 5.655 5.655 0 01-2.023 3.674l.021.043zM105.741 276.209c2.238 2.171 12.646 4.423 12.646 4.423s-2.547-10.356-4.796-12.527a5.641 5.641 0 00-7.875.217 5.65 5.65 0 00.015 7.887h.01zM99.836 302.335c2.782 1.403 13.387.432 13.387.432s-5.526-9.117-8.308-10.52a5.637 5.637 0 00-7.477 2.553 5.655 5.655 0 002.398 7.535zM97.572 328.515c2.504 1.856 13.125 2.667 13.125 2.667s-3.911-9.923-6.395-11.774a5.636 5.636 0 00-7.667 1.337 5.656 5.656 0 00.958 7.732l-.022.038z" fill="#7379E2"/>
    <path d="M95.27 342.679s9.117-1.814 11.553-4.23c2.435-2.417 13.371-6.643 14.586-3.623 1.215 3.02 16.414 13.29 6.08 15.104-10.333 1.814-24.317 2.417-27.354 1.211-3.038-1.206-4.866-8.462-4.866-8.462z" fill="#A8A8A8"/>
    <path opacity=".2" d="M127.505 348.793c-10.333 1.814-24.317 2.417-27.354 1.206-2.318-.917-3.928-5.335-4.562-7.4l-.32.08s1.823 7.251 4.866 8.462c3.043 1.211 17.021.603 27.354-1.211 2.985-.534 3.837-1.75 3.518-3.308-.24.998-1.279 1.782-3.502 2.171z" fill="#000"/>
    <path d="M451.881 316.489s2.931 3.836-1.348 9.603c-4.28 5.768-7.808 10.671-6.395 14.283 0 0 6.459-10.751 11.724-10.9 5.265-.149 1.79-6.536-3.981-12.986z" fill="#7379E2"/>
    <path opacity=".1" d="M451.881 316.489c.256.372.459.778.602 1.206 5.127 6.029 7.855 11.657 2.926 11.796-4.589.133-10.094 8.349-11.415 10.425.043.161.095.319.154.475 0 0 6.459-10.751 11.724-10.9 5.266-.149 1.78-6.552-3.991-13.002z" fill="#000"/>
    <path d="M457.327 321.376c0 1.35-.154 2.444-.341 2.444-.186 0-.336-1.067-.336-2.444 0-1.376.187-.715.373-.715.187 0 .304-.635.304.715z" fill="#FFD037"/>
    <path d="M459.192 322.987c-1.183.646-2.216 1.035-2.302.87-.085-.165.794-.816 1.977-1.462 1.183-.645.72-.176.81 0 .091.176.699-.053-.485.592z" fill="#FFD037"/>
    <path d="M436.421 316.489s-2.931 3.836 1.348 9.603c4.279 5.768 7.807 10.671 6.395 14.283 0 0-6.454-10.751-11.724-10.9-5.271-.149-1.801-6.536 3.981-12.986z" fill="#7379E2"/>
    <path opacity=".1" d="M436.421 316.489a4.792 4.792 0 00-.602 1.206c-5.127 6.029-7.856 11.657-2.926 11.796 4.588.133 10.093 8.349 11.415 10.425-.043.161-.096.32-.16.475 0 0-6.454-10.751-11.724-10.9-5.271-.149-1.785-6.552 3.997-13.002z" fill="#000"/>
    <path d="M430.975 321.376c0 1.35.154 2.444.341 2.444.186 0 .335-1.067.335-2.444 0-1.376-.186-.715-.373-.715-.186 0-.303-.635-.303.715z" fill="#FFD037"/>
    <path d="M429.109 322.987c1.183.646 2.212 1.035 2.303.87.09-.165-.794-.816-1.978-1.462-1.183-.645-.719-.176-.81 0-.09.176-.698-.053.485.592z" fill="#FFD037"/>
    <path d="M431.907 339.889s8.186-.256 10.659-2.011c2.472-1.756 12.592-3.858 13.205-1.067.613 2.79 12.3 14.026 3.059 14.1-9.241.075-21.471-1.44-23.933-2.939-2.462-1.5-2.99-8.083-2.99-8.083z" fill="#A8A8A8"/>
    <path opacity=".2" d="M458.99 349.956c-9.241.075-21.471-1.44-23.933-2.939-1.876-1.142-2.628-5.245-2.873-7.139h-.277s.533 6.611 2.985 8.11c2.451 1.499 14.692 3.014 23.933 2.939 2.664 0 3.586-.971 3.538-2.374-.373.859-1.391 1.387-3.373 1.403z" fill="#000"/>
  </g>
  <defs>
    <linearGradient id="paint0_linear" x1="282.749" y1="374.962" x2="282.749" y2="11.684" gradientUnits="userSpaceOnUse">
      <stop stop-color="gray" stop-opacity=".25"/>
      <stop offset=".54" stop-color="gray" stop-opacity=".12"/>
      <stop offset="1" stop-color="gray" stop-opacity=".1"/>
    </linearGradient>
    <clipPath id="clip0">
      <path fill="#fff" d="M0 0h538v409H0z"/>
    </clipPath>
  </defs>
</svg>