<svg width="279" height="211" fill="none" xmlns="http://www.w3.org/2000/svg">
  <g clip-path="url(#clip0)">
    <path opacity=".1" d="M262.312 114.536c-9.809 13.428-6.572 32.595-.902 47.864 1.899 5.112 4.056 10.519 3.071 16.08-1.202 6.799-6.854 11.893-12.729 14.668-10.711 5.057-23.363 4.249-32.943-2.122-8.268-5.499-14.088-14.638-22.516-19.874-14.105-8.761-32.417-4.847-48.116 1.842-11.106 4.731-23.272 10.825-34.095 6.456-7.617-3.074-12.745-10.901-15.443-19.267-1.303-4.039-2.215-8.423-4.81-11.585-1.544-1.88-3.583-3.19-5.68-4.284-19.139-9.999-43.756-3.75-62.311-14.906-12.527-7.533-20.324-22.153-23.563-37.523-3.24-15.37-2.438-31.595-1.148-47.542.917-11.334 2.368-23.444 9.198-32.35C17.548 2.577 29.654-1.165 40.479.31c10.826 1.475 20.532 7.474 29.022 14.635 10.62 8.933 20.391 20.15 33.6 23.541 8.997 2.31 18.555.675 27.907-.047 15.634-1.205 31.212.182 46.695 1.75 14.822 1.499 29.746 3.174 43.784 8.09 9.934 3.48 17.808 10.056 27.16 14.55 6.096 2.93 12.803 3.61 18.54 7.394 7.08 4.662 13.479 12.92 11.402 22.832-1.962 9.42-11.066 14.355-16.277 21.481z" fill="#6C63FF"/>
    <g opacity=".5">
      <path opacity=".5" d="M214.206 175.781s.827-24.436 14.078-38.244c5.562-5.794 9.214-13.153 10.182-21.116.452-3.78.556-7.593.31-11.391" stroke="#535461" stroke-width="2" stroke-miterlimit="10"/>
      <path opacity=".5" d="M247.077 96.284c-.907 2.73-8.488 8.999-8.488 8.999s-2.323-9.551-1.416-12.278a5.208 5.208 0 014.574-3.553 5.23 5.23 0 013.79 1.254 5.19 5.19 0 011.54 5.576v.002zm3.159 17.822c-2.255 1.8-12.026 2.955-12.026 2.955s3.257-9.276 5.512-11.074a5.219 5.219 0 013.892-1.257 5.223 5.223 0 013.605 1.931 5.203 5.203 0 011.099 3.931 5.195 5.195 0 01-2.082 3.514zm-8.939 25.706c-2.851.42-11.878-3.5-11.878-3.5s7.501-6.369 10.352-6.789a5.236 5.236 0 013.873.97 5.213 5.213 0 012.051 3.419 5.191 5.191 0 01-.972 3.863 5.227 5.227 0 01-3.426 2.047v-.01zm-11.156 17.932c-2.739.895-12.302-1.455-12.302-1.455s6.316-7.541 9.055-8.436a5.227 5.227 0 013.982.3 5.205 5.205 0 012.603 3.021 5.193 5.193 0 01-.3 3.972 5.214 5.214 0 01-3.028 2.598h-.01zm-2.506-43.595c1.33 2.549 9.824 7.541 9.824 7.541s.771-9.796-.559-12.348a5.228 5.228 0 00-7.035-2.215 5.22 5.22 0 00-2.567 3.051 5.187 5.187 0 00.347 3.968l-.01.003zm-12.78 21.134c2.034 2.037 11.625 4.266 11.625 4.266s-2.202-9.578-4.234-11.615a5.22 5.22 0 00-3.686-1.531 5.22 5.22 0 00-3.691 1.517 5.2 5.2 0 00-.014 7.36v.003zm-9.595 22.243c1.658 2.35 10.735 6.167 10.735 6.167s-.546-9.811-2.207-12.163a5.218 5.218 0 00-9.513 2.06 5.206 5.206 0 00.995 3.939l-.01-.003z" fill="#6C63FF"/>
      <path opacity=".5" d="M217.117 165.668s-7.516-10.909-6.198-21.172a20.02 20.02 0 00-2.375-12.463 33.693 33.693 0 00-3.538-5.059" stroke="#535461" stroke-width="2" stroke-miterlimit="10"/>
      <path opacity=".5" d="M205.801 120.5c.483 1.48-.795 6.644-.795 6.644s-4.091-3.415-4.574-4.892a2.81 2.81 0 01.166-2.15 2.822 2.822 0 013.796-1.237 2.82 2.82 0 011.407 1.638v-.003zm7.122 6.746c-.398 1.5-4.286 5.147-4.286 5.147s-1.574-5.084-1.175-6.589a2.824 2.824 0 013.453-2.003 2.812 2.812 0 012.008 3.445zm4.395 14.063c-1.105 1.097-6.304 2.285-6.304 2.285s1.213-5.182 2.32-6.279a2.826 2.826 0 013.996.012 2.815 2.815 0 01-.012 3.987v-.005zm.924 11.391c-.904 1.267-5.837 3.309-5.837 3.309s.318-5.312 1.222-6.579c.215-.301.488-.558.802-.755a2.842 2.842 0 012.131-.359 2.825 2.825 0 011.762 1.249 2.796 2.796 0 01.361 2.126 2.82 2.82 0 01-.451 1.004l.01.005zm-15.147-18.187c1.401.685 6.704.135 6.704.135s-2.823-4.515-4.224-5.197a2.83 2.83 0 00-2.156-.134 2.82 2.82 0 00-1.754 3.58 2.818 2.818 0 001.43 1.616zm1.25 13.31c1.543.235 6.439-1.872 6.439-1.872s-4.049-3.465-5.59-3.69a2.83 2.83 0 00-3.217 2.362 2.823 2.823 0 002.368 3.21v-.01zm2.992 12.765c1.48.5 6.664-.75 6.664-.75s-3.402-4.096-4.883-4.589a2.827 2.827 0 00-3.572 1.786 2.814 2.814 0 001.791 3.563v-.01z" fill="#6C63FF"/>
      <path opacity=".5" d="M205.801 120.5c.483 1.48-.795 6.644-.795 6.644s-4.091-3.415-4.574-4.892a2.81 2.81 0 01.166-2.15 2.822 2.822 0 013.796-1.237 2.82 2.82 0 011.407 1.638v-.003zm7.122 6.746c-.398 1.5-4.286 5.147-4.286 5.147s-1.574-5.084-1.175-6.589a2.824 2.824 0 013.453-2.003 2.812 2.812 0 012.008 3.445zm4.395 14.063c-1.105 1.097-6.304 2.285-6.304 2.285s1.213-5.182 2.32-6.279a2.826 2.826 0 013.996.012 2.815 2.815 0 01-.012 3.987v-.005zm.924 11.391c-.904 1.267-5.837 3.309-5.837 3.309s.318-5.312 1.222-6.579c.215-.301.488-.558.802-.755a2.842 2.842 0 012.131-.359 2.825 2.825 0 011.762 1.249 2.796 2.796 0 01.361 2.126 2.82 2.82 0 01-.451 1.004l.01.005zm-15.147-18.187c1.401.685 6.704.135 6.704.135s-2.823-4.515-4.224-5.197a2.83 2.83 0 00-2.156-.134 2.82 2.82 0 00-1.754 3.58 2.818 2.818 0 001.43 1.616zm1.25 13.31c1.543.235 6.439-1.872 6.439-1.872s-4.049-3.465-5.59-3.69a2.83 2.83 0 00-3.217 2.362 2.823 2.823 0 002.368 3.21v-.01zm2.992 12.765c1.48.5 6.664-.75 6.664-.75s-3.402-4.096-4.883-4.589a2.827 2.827 0 00-3.572 1.786 2.814 2.814 0 001.791 3.563v-.01z" fill="#fff"/>
      <path opacity=".5" d="M203.21 195.245h21.378l5.347-32.527h-32.069l5.344 32.527z" fill="#474059"/>
      <path opacity=".1" d="M201.957 162.718l4.994 30.395h17.988l-.351 2.132H203.21l-5.344-32.527h4.091z" fill="#000"/>
    </g>
    <path d="M207.264 9.82H50.428v188.795h156.836V9.821z" fill="url(#paint0_linear)"/>
    <path d="M205.259 12.236H52.432v183.969H205.26V12.235z" fill="#fff"/>
    <path d="M173.442 32.982H111.81v3h61.632v-3zm0 9.498H111.81v3h61.632v-3z" fill="#C0BCCF"/>
    <path d="M158.66 51.979h-32.069v3h32.069v-3z" fill="#6C63FF"/>
    <path opacity=".5" d="M173.442 93.222H111.81v3h61.632v-3zm0 9.498H111.81v3h61.632v-3z" fill="#C0BCCF"/>
    <path opacity=".5" d="M158.66 112.219h-32.069v2.999h32.069v-2.999z" fill="#6C63FF"/>
    <path opacity=".5" d="M173.442 153.462H111.81v3h61.632v-3zm0 9.499H111.81v2.999h61.632v-2.999z" fill="#C0BCCF"/>
    <path opacity=".5" d="M158.66 172.459h-32.069v2.999h32.069v-2.999z" fill="#6C63FF"/>
    <g opacity=".5">
      <path opacity=".5" d="M90.11 109.952l-1.292-.58a5.12 5.12 0 00.025-.59 4.633 4.633 0 000-.5c-.128-1.315-.967-2.46-1.561-3.662a10.378 10.378 0 01-1.02-3.499c-.157-1.5 0-3.055-.55-4.465-.45-1.137-1.336-2.087-2.286-2.927a11.6 11.6 0 00-3.67-2.322c-1.388-.5-2.984-.627-4.372-.117-1.253.46-2.217 1.377-3.15 2.27a10.572 10.572 0 00-1.778 2.02c-.569.929-.812 1.999-1.002 3.054a46.585 46.585 0 00-.616 5.104c-.098 1.427-.251 3.047-1.474 3.922-.596.427-1.435.667-1.708 1.314a1.344 1.344 0 00-.09.613 2.24 2.24 0 00.037.517c.018.1.038.198.063.298-.351.87-.646 1.762-.882 2.669a58.178 58.178 0 00-.501 1.98h.621l2.335.055h.033l2.505.057h.013l2.334.055h.058l.674.048h.22l9.338.215h.05l.621.015h.219l1.868.042 2.756.063h.02l2.075.05h.646l-.11-2.17c.456-3.322-.448-3.529-.448-3.529zm-10.49-.265c0 1.84-1.974 4.092-1.974 4.092l-1.986-2.7.072-.105 1.914 2.6s1.975-2.25 1.975-4.092c.046-.094.098-.184.157-.27l.045.14a2.573 2.573 0 00-.202.335zm3.037 7.219c0-.093 0-.188-.017-.28-.018-.093-.016-.175-.028-.265-.013-.09-.023-.178-.035-.268a10.615 10.615 0 00-.103-.535c0-.03-.012-.057-.02-.09a8.91 8.91 0 00-.173-.635c0-.042-.025-.085-.04-.125-.015-.04-.042-.134-.065-.202l-.045-.13c-.02-.057-.04-.117-.063-.175-.037-.105-.077-.207-.117-.312-.04-.105-.083-.208-.126-.31-.085-.21-.178-.418-.27-.628-.364-.81-.772-1.607-1.148-2.397-.201-.413-.38-.837-.536-1.27l-.047.063c-.076.107-.144.22-.203.337 0 1.84-1.975 4.092-1.975 4.092l-1.986-2.699-1.74 2.499c-.25.125-.5.55-.696 1.155a8.274 8.274 0 00-.157.53c-.035.127-.068.25-.098.392a5.113 5.113 0 00-.048.205l-.045.213v.032c-.03.145-.06.295-.088.448-.027.152-.06.327-.087.5a26.06 26.06 0 00-.198 1.312l-.06.465c.127.382.27.75.418 1.135.094.202.15.42.163.642 3.082.82 6.326.82 9.408 0a.081.081 0 010-.022 2.61 2.61 0 01-.06-.638c.05-.601.134-1.198.25-1.79a6.1 6.1 0 00.048-.879v-.105c-.008-.095-.01-.18-.013-.263v-.002zm0 0c0-.093 0-.188-.017-.28-.018-.093-.016-.175-.028-.265-.013-.09-.023-.178-.035-.268a10.615 10.615 0 00-.103-.535c0-.03-.012-.057-.02-.09a8.91 8.91 0 00-.173-.635c0-.042-.025-.085-.04-.125-.015-.04-.042-.134-.065-.202l-.045-.13c-.02-.057-.04-.117-.063-.175-.037-.105-.077-.207-.117-.312-.04-.105-.083-.208-.126-.31-.085-.21-.178-.418-.27-.628-.364-.81-.772-1.607-1.148-2.397-.201-.413-.38-.837-.536-1.27l-.047.063c-.076.107-.144.22-.203.337 0 1.84-1.975 4.092-1.975 4.092l-1.986-2.699-1.74 2.499c-.25.125-.5.55-.696 1.155a8.274 8.274 0 00-.157.53c-.035.127-.068.25-.098.392a5.113 5.113 0 00-.048.205l-.045.213v.032c-.03.145-.06.295-.088.448-.027.152-.06.327-.087.5a26.06 26.06 0 00-.198 1.312l-.06.465c.127.382.27.75.418 1.135.094.202.15.42.163.642 3.082.82 6.326.82 9.408 0a.081.081 0 010-.022 2.61 2.61 0 01-.06-.638c.05-.601.134-1.198.25-1.79a6.1 6.1 0 00.048-.879v-.105c-.008-.095-.01-.18-.013-.263v-.002zm0 0c0-.093 0-.188-.017-.28-.018-.093-.016-.175-.028-.265-.013-.09-.023-.178-.035-.268a10.615 10.615 0 00-.103-.535c0-.03-.012-.057-.02-.09a8.91 8.91 0 00-.173-.635c0-.042-.025-.085-.04-.125-.015-.04-.042-.134-.065-.202l-.045-.13c-.02-.057-.04-.117-.063-.175-.037-.105-.077-.207-.117-.312-.04-.105-.083-.208-.126-.31-.085-.21-.178-.418-.27-.628-.364-.81-.772-1.607-1.148-2.397-.201-.413-.38-.837-.536-1.27l-.047.063c-.076.107-.144.22-.203.337 0 1.84-1.975 4.092-1.975 4.092l-1.986-2.699-1.74 2.499c-.25.125-.5.55-.696 1.155a8.274 8.274 0 00-.157.53c-.035.127-.068.25-.098.392a5.113 5.113 0 00-.048.205l-.045.213v.032c-.03.145-.06.295-.088.448-.027.152-.06.327-.087.5a26.06 26.06 0 00-.198 1.312l-.06.465c.127.382.27.75.418 1.135.094.202.15.42.163.642 3.082.82 6.326.82 9.408 0a.081.081 0 010-.022 2.61 2.61 0 01-.06-.638c.05-.601.134-1.198.25-1.79a6.1 6.1 0 00.048-.879v-.105c-.008-.095-.01-.18-.013-.263v-.002zm0 0c0-.093 0-.188-.017-.28-.018-.093-.016-.175-.028-.265-.013-.09-.023-.178-.035-.268a10.615 10.615 0 00-.103-.535c0-.03-.012-.057-.02-.09a8.91 8.91 0 00-.173-.635c0-.042-.025-.085-.04-.125-.015-.04-.042-.134-.065-.202l-.045-.13c-.02-.057-.04-.117-.063-.175-.037-.105-.077-.207-.117-.312-.04-.105-.083-.208-.126-.31-.085-.21-.178-.418-.27-.628-.364-.81-.772-1.607-1.148-2.397-.201-.413-.38-.837-.536-1.27l-.047.063c-.076.107-.144.22-.203.337 0 1.84-1.975 4.092-1.975 4.092l-1.986-2.699-1.74 2.499c-.25.125-.5.55-.696 1.155a8.274 8.274 0 00-.157.53c-.035.127-.068.25-.098.392a5.113 5.113 0 00-.048.205l-.045.213v.032c-.03.145-.06.295-.088.448-.027.152-.06.327-.087.5a26.06 26.06 0 00-.198 1.312l-.06.465c.127.382.27.75.418 1.135.094.202.15.42.163.642 3.082.82 6.326.82 9.408 0a.081.081 0 010-.022 2.61 2.61 0 01-.06-.638c.05-.601.134-1.198.25-1.79a6.1 6.1 0 00.048-.879v-.105c-.008-.095-.01-.18-.013-.263v-.002z" fill="url(#paint1_linear)"/>
      <path opacity=".5" d="M82.747 99.471H71.222v7.749h11.525v-7.749z" fill="#493545"/>
      <path opacity=".5" d="M84.662 108.017l-4.823 6.779-5.041-.437s-6.577.435-2.192-4.592c2.107-2.417 2.796-4.432 2.944-5.869.16-1.555-.314-2.44-.314-2.44l5.48-.655a4.071 4.071 0 00-.09 2.282c.686 2.84 4.036 4.932 4.036 4.932z" fill="#C77485"/>
      <path opacity=".1" d="M80.623 103.078a5.493 5.493 0 01-5.076.815c.16-1.555-.313-2.44-.313-2.44l5.48-.655a4.073 4.073 0 00-.091 2.28z" fill="#000"/>
      <path opacity=".5" d="M77.318 103.968a5.473 5.473 0 005.48-5.467 5.473 5.473 0 00-5.48-5.466 5.473 5.473 0 00-5.48 5.466 5.473 5.473 0 005.48 5.467z" fill="#C77485"/>
      <path opacity=".1" d="M84.46 108.297l-.127-.5-.11-.44-.163-.65-.03-.12-.025-.1s.13-.392-.73-.265l-.16.028a6.725 6.725 0 00-.473.115l-.163.05-.216.067a4.702 4.702 0 00-1.819 1.095c-.23.221-.435.467-.608.735-.018.025-.03.048-.046.068-.059.092-.112.189-.157.29 0 1.969-1.974 4.374-1.974 4.374l-1.927-2.777-.038-.055-.458-.665-.163-.215-.055-.075-1.002-1.342-.25-.335-.084-.113-.122-.162-.288-.383-1.128.658-1.503.875-.877 5.686v.158l.028.47.183 3.089v.042l-.321 1.28.047.025a16.57 16.57 0 002.356 1.04l.212.075c.251.083.486.158.732.23.01.037.016.075.02.113v-.108c3.074.877 6.333.877 9.408 0l.057-.017a9 9 0 00.429-.13l.228-.073a16.664 16.664 0 001.814-.725l.21-4.474.15-3.227v-.185l-.856-3.427z" fill="#000"/>
      <path opacity=".5" d="M82.657 116.608c0-.1 0-.2-.018-.3-.017-.1-.015-.187-.027-.282-.013-.095-.023-.19-.035-.285a5.533 5.533 0 00-.048-.285c-.018-.095-.035-.19-.055-.285 0-.033-.013-.063-.02-.095a12.08 12.08 0 00-.173-.68c0-.045-.025-.09-.04-.132-.015-.043-.043-.145-.065-.218l-.045-.14c-.02-.062-.04-.125-.063-.187-.038-.113-.078-.223-.118-.335-.04-.113-.082-.223-.125-.333-.085-.225-.178-.447-.27-.67-.364-.864-.772-1.717-1.148-2.562a14.19 14.19 0 01-.536-1.357l-.048.068a2.865 2.865 0 00-.203.359c0 1.968-1.974 4.375-1.974 4.375l-1.987-2.887-1.739 2.667c-.25.132-.5.587-.696 1.235a9.57 9.57 0 00-.158.567 9.142 9.142 0 00-.097.42 5.318 5.318 0 00-.048.22l-.045.227v.035c-.03.155-.06.315-.088.478-.028.162-.06.35-.088.527-.02.115-.037.23-.052.345-.035.223-.065.448-.095.67-.018.13-.035.25-.05.387l-.06.5c.127.41.27.815.418 1.213.094.217.15.45.163.687 3.074.877 6.333.877 9.407 0a.095.095 0 010-.025 2.967 2.967 0 01-.06-.682c.05-.642.134-1.28.25-1.913.038-.311.053-.625.048-.939v-.113c-.007-.095-.01-.185-.012-.275zm0 0c0-.1 0-.2-.018-.3-.017-.1-.015-.187-.027-.282-.013-.095-.023-.19-.035-.285a5.533 5.533 0 00-.048-.285c-.018-.095-.035-.19-.055-.285 0-.033-.013-.063-.02-.095a12.08 12.08 0 00-.173-.68c0-.045-.025-.09-.04-.132-.015-.043-.043-.145-.065-.218l-.045-.14c-.02-.062-.04-.125-.063-.187-.038-.113-.078-.223-.118-.335-.04-.113-.082-.223-.125-.333-.085-.225-.178-.447-.27-.67-.364-.864-.772-1.717-1.148-2.562a14.19 14.19 0 01-.536-1.357l-.048.068a2.865 2.865 0 00-.203.359c0 1.968-1.974 4.375-1.974 4.375l-1.987-2.887-1.739 2.667c-.25.132-.5.587-.696 1.235a9.57 9.57 0 00-.158.567 9.142 9.142 0 00-.097.42 5.318 5.318 0 00-.048.22l-.045.227v.035c-.03.155-.06.315-.088.478-.028.162-.06.35-.088.527-.02.115-.037.23-.052.345-.035.223-.065.448-.095.67-.018.13-.035.25-.05.387l-.06.5c.127.41.27.815.418 1.213.094.217.15.45.163.687 3.074.877 6.333.877 9.407 0a.095.095 0 010-.025 2.967 2.967 0 01-.06-.682c.05-.642.134-1.28.25-1.913.038-.311.053-.625.048-.939v-.113c-.007-.095-.01-.185-.012-.275zm0 0c0-.1 0-.2-.018-.3-.017-.1-.015-.187-.027-.282-.013-.095-.023-.19-.035-.285a5.533 5.533 0 00-.048-.285c-.018-.095-.035-.19-.055-.285 0-.033-.013-.063-.02-.095a12.08 12.08 0 00-.173-.68c0-.045-.025-.09-.04-.132-.015-.043-.043-.145-.065-.218l-.045-.14c-.02-.062-.04-.125-.063-.187-.038-.113-.078-.223-.118-.335-.04-.113-.082-.223-.125-.333-.085-.225-.178-.447-.27-.67-.364-.864-.772-1.717-1.148-2.562a14.19 14.19 0 01-.536-1.357l-.048.068a2.865 2.865 0 00-.203.359c0 1.968-1.974 4.375-1.974 4.375l-1.987-2.887-1.739 2.667c-.25.132-.5.587-.696 1.235a9.57 9.57 0 00-.158.567 9.142 9.142 0 00-.097.42 5.318 5.318 0 00-.048.22l-.045.227v.035c-.03.155-.06.315-.088.478-.028.162-.06.35-.088.527-.02.115-.037.23-.052.345-.035.223-.065.448-.095.67-.018.13-.035.25-.05.387l-.06.5c.127.41.27.815.418 1.213.094.217.15.45.163.687 3.074.877 6.333.877 9.407 0a.095.095 0 010-.025 2.967 2.967 0 01-.06-.682c.05-.642.134-1.28.25-1.913.038-.311.053-.625.048-.939v-.113c-.007-.095-.01-.185-.012-.275zm2.655-4.692l-.894-3.561-.153-.61-.042-.168-.218-.87v-.022a.2.2 0 00-.018-.113c-.032-.065-.115-.132-.308-.15a1.623 1.623 0 00-.22 0 3.91 3.91 0 00-.645.12c-.102.028-.212.058-.33.095l-.216.068h-.02a4.785 4.785 0 00-1.578.875 4.231 4.231 0 00-.802.885l-.047.067a2.865 2.865 0 00-.203.36c0 1.967-1.974 4.374-1.974 4.374l-1.987-2.887-.113-.162-.02-.028-.288-.422-.218-.29-.058-.075-1.027-1.367-.326-.443v-.015l-.112-.152-.216-.285-.751.437-1.88 1.092-.866 5.627v.06l.025.41.185 3.132v.177l-.283 1.128c.757.407 1.544.755 2.355 1.04l.213.075c.25.082.486.157.731.23.01.037.016.074.02.112v-.107c3.075.876 6.334.876 9.408 0l.058-.018c.143-.04.288-.082.428-.13l.228-.072a17.077 17.077 0 001.814-.725l.208-4.47.15-3.192-.01-.03zm-12.321 8.632c.01.037.016.074.02.112v-.107l-.02-.005zm9.666-3.94c0-.1 0-.2-.018-.3-.017-.1-.015-.187-.027-.282-.013-.095-.023-.19-.035-.285a5.533 5.533 0 00-.048-.285c-.018-.095-.035-.19-.055-.285 0-.033-.013-.063-.02-.095a12.08 12.08 0 00-.173-.68c0-.045-.025-.09-.04-.132-.015-.043-.043-.145-.065-.218l-.045-.14c-.02-.062-.04-.125-.063-.187-.038-.113-.078-.223-.118-.335-.04-.113-.082-.223-.125-.333-.085-.225-.178-.447-.27-.67-.364-.864-.772-1.717-1.148-2.562a14.19 14.19 0 01-.536-1.357l-.048.068a2.865 2.865 0 00-.203.359c0 1.968-1.974 4.375-1.974 4.375l-1.987-2.887-1.739 2.667c-.25.132-.5.587-.696 1.235a9.57 9.57 0 00-.158.567 9.142 9.142 0 00-.097.42 5.318 5.318 0 00-.048.22l-.045.227v.035c-.03.155-.06.315-.088.478-.028.162-.06.35-.088.527-.02.115-.037.23-.052.345-.035.223-.065.448-.095.67-.018.13-.035.25-.05.387l-.06.5c.127.41.27.815.418 1.213.094.217.15.45.163.687 3.074.877 6.333.877 9.407 0a.095.095 0 010-.025 2.967 2.967 0 01-.06-.682c.05-.642.134-1.28.25-1.913.038-.311.053-.625.048-.939v-.113c-.007-.095-.01-.185-.012-.275zm0 0c0-.1 0-.2-.018-.3-.017-.1-.015-.187-.027-.282-.013-.095-.023-.19-.035-.285a5.533 5.533 0 00-.048-.285c-.018-.095-.035-.19-.055-.285 0-.033-.013-.063-.02-.095a12.08 12.08 0 00-.173-.68c0-.045-.025-.09-.04-.132-.015-.043-.043-.145-.065-.218l-.045-.14c-.02-.062-.04-.125-.063-.187-.038-.113-.078-.223-.118-.335-.04-.113-.082-.223-.125-.333-.085-.225-.178-.447-.27-.67-.364-.864-.772-1.717-1.148-2.562a14.19 14.19 0 01-.536-1.357l-.048.068a2.865 2.865 0 00-.203.359c0 1.968-1.974 4.375-1.974 4.375l-1.987-2.887-1.739 2.667c-.25.132-.5.587-.696 1.235a9.57 9.57 0 00-.158.567 9.142 9.142 0 00-.097.42 5.318 5.318 0 00-.048.22l-.045.227v.035c-.03.155-.06.315-.088.478-.028.162-.06.35-.088.527-.02.115-.037.23-.052.345-.035.223-.065.448-.095.67-.018.13-.035.25-.05.387l-.06.5c.127.41.27.815.418 1.213.094.217.15.45.163.687 3.074.877 6.333.877 9.407 0a.095.095 0 010-.025 2.967 2.967 0 01-.06-.682c.05-.642.134-1.28.25-1.913.038-.311.053-.625.048-.939v-.113c-.007-.095-.01-.185-.012-.275zm0 0c0-.1 0-.2-.018-.3-.017-.1-.015-.187-.027-.282-.013-.095-.023-.19-.035-.285a5.533 5.533 0 00-.048-.285c-.018-.095-.035-.19-.055-.285 0-.033-.013-.063-.02-.095a12.08 12.08 0 00-.173-.68c0-.045-.025-.09-.04-.132-.015-.043-.043-.145-.065-.218l-.045-.14c-.02-.062-.04-.125-.063-.187-.038-.113-.078-.223-.118-.335-.04-.113-.082-.223-.125-.333-.085-.225-.178-.447-.27-.67-.364-.864-.772-1.717-1.148-2.562a14.19 14.19 0 01-.536-1.357l-.048.068a2.865 2.865 0 00-.203.359c0 1.968-1.974 4.375-1.974 4.375l-1.987-2.887-1.739 2.667c-.25.132-.5.587-.696 1.235a9.57 9.57 0 00-.158.567 9.142 9.142 0 00-.097.42 5.318 5.318 0 00-.048.22l-.045.227v.035c-.03.155-.06.315-.088.478-.028.162-.06.35-.088.527-.02.115-.037.23-.052.345-.035.223-.065.448-.095.67-.018.13-.035.25-.05.387l-.06.5c.127.41.27.815.418 1.213.094.217.15.45.163.687 3.074.877 6.333.877 9.407 0a.095.095 0 010-.025 2.967 2.967 0 01-.06-.682c.05-.642.134-1.28.25-1.913.038-.311.053-.625.048-.939v-.113c-.007-.095-.01-.185-.012-.275zm0 0c0-.1 0-.2-.018-.3-.017-.1-.015-.187-.027-.282-.013-.095-.023-.19-.035-.285a5.533 5.533 0 00-.048-.285c-.018-.095-.035-.19-.055-.285 0-.033-.013-.063-.02-.095a12.08 12.08 0 00-.173-.68c0-.045-.025-.09-.04-.132-.015-.043-.043-.145-.065-.218l-.045-.14c-.02-.062-.04-.125-.063-.187-.038-.113-.078-.223-.118-.335-.04-.113-.082-.223-.125-.333-.085-.225-.178-.447-.27-.67-.364-.864-.772-1.717-1.148-2.562a14.19 14.19 0 01-.536-1.357l-.048.068a2.865 2.865 0 00-.203.359c0 1.968-1.974 4.375-1.974 4.375l-1.987-2.887-1.739 2.667c-.25.132-.5.587-.696 1.235a9.57 9.57 0 00-.158.567 9.142 9.142 0 00-.097.42 5.318 5.318 0 00-.048.22l-.045.227v.035c-.03.155-.06.315-.088.478-.028.162-.06.35-.088.527-.02.115-.037.23-.052.345-.035.223-.065.448-.095.67-.018.13-.035.25-.05.387l-.06.5c.127.41.27.815.418 1.213.094.217.15.45.163.687 3.074.877 6.333.877 9.407 0a.095.095 0 010-.025 2.967 2.967 0 01-.06-.682c.05-.642.134-1.28.25-1.913.038-.311.053-.625.048-.939v-.113c-.007-.095-.01-.185-.012-.275zm0 0c0-.1 0-.2-.018-.3-.017-.1-.015-.187-.027-.282-.013-.095-.023-.19-.035-.285a5.533 5.533 0 00-.048-.285c-.018-.095-.035-.19-.055-.285 0-.033-.013-.063-.02-.095a12.08 12.08 0 00-.173-.68c0-.045-.025-.09-.04-.132-.015-.043-.043-.145-.065-.218l-.045-.14c-.02-.062-.04-.125-.063-.187-.038-.113-.078-.223-.118-.335-.04-.113-.082-.223-.125-.333-.085-.225-.178-.447-.27-.67-.364-.864-.772-1.717-1.148-2.562a14.19 14.19 0 01-.536-1.357l-.048.068a2.865 2.865 0 00-.203.359c0 1.968-1.974 4.375-1.974 4.375l-1.987-2.887-1.739 2.667c-.25.132-.5.587-.696 1.235a9.57 9.57 0 00-.158.567 9.142 9.142 0 00-.097.42 5.318 5.318 0 00-.048.22l-.045.227v.035c-.03.155-.06.315-.088.478-.028.162-.06.35-.088.527-.02.115-.037.23-.052.345-.035.223-.065.448-.095.67-.018.13-.035.25-.05.387l-.06.5c.127.41.27.815.418 1.213.094.217.15.45.163.687 3.074.877 6.333.877 9.407 0a.095.095 0 010-.025 2.967 2.967 0 01-.06-.682c.05-.642.134-1.28.25-1.913.038-.311.053-.625.048-.939v-.113c-.007-.095-.01-.185-.012-.275zm0 0c0-.1 0-.2-.018-.3-.017-.1-.015-.187-.027-.282-.013-.095-.023-.19-.035-.285a5.533 5.533 0 00-.048-.285c-.018-.095-.035-.19-.055-.285 0-.033-.013-.063-.02-.095a12.08 12.08 0 00-.173-.68c0-.045-.025-.09-.04-.132-.015-.043-.043-.145-.065-.218l-.045-.14c-.02-.062-.04-.125-.063-.187-.038-.113-.078-.223-.118-.335-.04-.113-.082-.223-.125-.333-.085-.225-.178-.447-.27-.67-.364-.864-.772-1.717-1.148-2.562a14.19 14.19 0 01-.536-1.357l-.048.068a2.865 2.865 0 00-.203.359c0 1.968-1.974 4.375-1.974 4.375l-1.987-2.887-1.739 2.667c-.25.132-.5.587-.696 1.235a9.57 9.57 0 00-.158.567 9.142 9.142 0 00-.097.42 5.318 5.318 0 00-.048.22l-.045.227v.035c-.03.155-.06.315-.088.478-.028.162-.06.35-.088.527-.02.115-.037.23-.052.345-.035.223-.065.448-.095.67-.018.13-.035.25-.05.387l-.06.5c.127.41.27.815.418 1.213.094.217.15.45.163.687 3.074.877 6.333.877 9.407 0a.095.095 0 010-.025 2.967 2.967 0 01-.06-.682c.05-.642.134-1.28.25-1.913.038-.311.053-.625.048-.939v-.113c-.007-.095-.01-.185-.012-.275zm0 0c0-.1 0-.2-.018-.3-.017-.1-.015-.187-.027-.282-.013-.095-.023-.19-.035-.285a5.533 5.533 0 00-.048-.285c-.018-.095-.035-.19-.055-.285 0-.033-.013-.063-.02-.095a12.08 12.08 0 00-.173-.68c0-.045-.025-.09-.04-.132-.015-.043-.043-.145-.065-.218l-.045-.14c-.02-.062-.04-.125-.063-.187-.038-.113-.078-.223-.118-.335-.04-.113-.082-.223-.125-.333-.085-.225-.178-.447-.27-.67-.364-.864-.772-1.717-1.148-2.562a14.19 14.19 0 01-.536-1.357l-.048.068a2.865 2.865 0 00-.203.359c0 1.968-1.974 4.375-1.974 4.375l-1.987-2.887-1.739 2.667c-.25.132-.5.587-.696 1.235a9.57 9.57 0 00-.158.567 9.142 9.142 0 00-.097.42 5.318 5.318 0 00-.048.22l-.045.227v.035c-.03.155-.06.315-.088.478-.028.162-.06.35-.088.527-.02.115-.037.23-.052.345-.035.223-.065.448-.095.67-.018.13-.035.25-.05.387l-.06.5c.127.41.27.815.418 1.213.094.217.15.45.163.687 3.074.877 6.333.877 9.407 0a.095.095 0 010-.025 2.967 2.967 0 01-.06-.682c.05-.642.134-1.28.25-1.913.038-.311.053-.625.048-.939v-.113c-.007-.095-.01-.185-.012-.275zm0 0c0-.1 0-.2-.018-.3-.017-.1-.015-.187-.027-.282-.013-.095-.023-.19-.035-.285a5.533 5.533 0 00-.048-.285c-.018-.095-.035-.19-.055-.285 0-.033-.013-.063-.02-.095a12.08 12.08 0 00-.173-.68c0-.045-.025-.09-.04-.132-.015-.043-.043-.145-.065-.218l-.045-.14c-.02-.062-.04-.125-.063-.187-.038-.113-.078-.223-.118-.335-.04-.113-.082-.223-.125-.333-.085-.225-.178-.447-.27-.67-.364-.864-.772-1.717-1.148-2.562a14.19 14.19 0 01-.536-1.357l-.048.068a2.865 2.865 0 00-.203.359c0 1.968-1.974 4.375-1.974 4.375l-1.987-2.887-1.739 2.667c-.25.132-.5.587-.696 1.235a9.57 9.57 0 00-.158.567 9.142 9.142 0 00-.097.42 5.318 5.318 0 00-.048.22l-.045.227v.035c-.03.155-.06.315-.088.478-.028.162-.06.35-.088.527-.02.115-.037.23-.052.345-.035.223-.065.448-.095.67-.018.13-.035.25-.05.387l-.06.5c.127.41.27.815.418 1.213.094.217.15.45.163.687 3.074.877 6.333.877 9.407 0a.095.095 0 010-.025 2.967 2.967 0 01-.06-.682c.05-.642.134-1.28.25-1.913.038-.311.053-.625.048-.939v-.113c-.007-.095-.01-.185-.012-.275z" fill="#fff"/>
      <path opacity=".1" d="M75.694 110.209l-.167-.022a6.192 6.192 0 01-.752-.15l-.093-.025c-.611-.173-1.28-.483-1.43-1.028a.97.97 0 01.015-.532 4.59 4.59 0 01.34-.86v-.015c.02-.038.04-.076.063-.112.207-.403.52-.743.904-.983l-.3.048-2.546.412-3.945.635s-.702-.14-1.657 2.485c0 .032-.022.062-.032.097a26.02 26.02 0 00-.724 2.447c-.173.695-.33 1.378-.476 2.04-.043.2-.085.397-.125.592.451.532.938 1.033 1.455 1.5l.083.078a17.113 17.113 0 003.337 2.357l.048.025c.756.407 1.544.755 2.355 1.04l.213.075c.045-.463.095-.975.155-1.5 0-.053 0-.105.02-.158l.06-.5c.015-.127.033-.25.05-.387.03-.222.06-.447.095-.67a28.945 28.945 0 01.228-1.35v-.035l.046-.227c.014-.075.03-.148.047-.22.03-.143.063-.285.098-.42a9.57 9.57 0 01.158-.567c.2-.648.433-1.103.696-1.235l1.739-2.667.073-.113.032-.05-.063-.005z" fill="#000"/>
      <path opacity=".1" d="M72.53 92.505c-.25.345-.23.82-.343 1.25-.268.977-1.33 1.59-1.573 2.574-.143.575.022 1.185-.075 1.77-.178 1.077-1.165 1.807-1.717 2.749a3.707 3.707 0 00-.228 3.225c.13.262.236.535.319.815.063.417.036.843-.078 1.249-.188.89-.38 1.87.05 2.672.363.678 1.117 1.075 1.876 1.2a7.294 7.294 0 002.298-.105c.83-.127 1.679-.275 2.4-.7l-2.713-6.534c-.273-.659-.554-1.342-.551-2.057a4.514 4.514 0 01.338-1.534 13.29 13.29 0 012.255-3.887c.393.455.363 1.147.691 1.652.29.373.676.661 1.118.832a37.047 37.047 0 003.956 1.65.52.52 0 01.385.77l-1.022 4.209c-.225.928-.423 2 .156 2.75.578.75 1.883 1.105 1.891 2.072-.01.153-.01.307 0 .46.068.452.606.67 1.065.692a3.176 3.176 0 002.07-.712 3.166 3.166 0 001.114-1.88c.25-1.655-.847-3.179-1.305-4.792-.772-2.712.25-5.894-1.265-8.276-1.228-1.932-3.465-2.457-5.59-2.697-1.49-.175-4.472-.8-5.522.583z" fill="#000"/>
      <path opacity=".5" d="M72.53 92.255c-.25.345-.23.82-.343 1.25-.268.977-1.33 1.59-1.573 2.574-.143.575.022 1.185-.075 1.77-.178 1.077-1.165 1.807-1.717 2.749a3.707 3.707 0 00-.228 3.225c.13.262.236.535.319.815.063.417.036.843-.078 1.249-.188.89-.38 1.87.05 2.673.363.677 1.117 1.074 1.876 1.199a7.294 7.294 0 002.298-.105c.83-.127 1.679-.275 2.4-.7l-2.713-6.533c-.273-.66-.554-1.343-.551-2.058a4.514 4.514 0 01.338-1.534 13.289 13.289 0 012.255-3.887c.393.455.363 1.147.691 1.652.29.373.676.661 1.118.832a37.067 37.067 0 003.956 1.65.52.52 0 01.385.77l-1.022 4.209c-.225.928-.423 2 .156 2.75.578.75 1.883 1.105 1.891 2.072-.01.153-.01.307 0 .46.068.452.606.67 1.065.692a3.176 3.176 0 002.07-.712 3.166 3.166 0 001.114-1.88c.25-1.655-.847-3.179-1.305-4.791-.772-2.713.25-5.895-1.265-8.277-1.228-1.932-3.465-2.457-5.59-2.697-1.49-.175-4.472-.8-5.522.583z" fill="#493545"/>
    </g>
    <g opacity=".5">
      <path opacity=".5" d="M70.99 159.206c.022.837-.55 1.552-1.003 2.25-.453.697-.789 1.649-.323 2.347.153.23.383.407.521.647.484.838-.32 1.8-.614 2.72-.338 1.062.055 2.249.767 3.112.712.862 1.694 1.444 2.686 1.957a23.995 23.995 0 006.644 2.359c1.213.223 2.505.323 3.643-.162a3.866 3.866 0 002.187-4.249c-.288-1.315-1.253-2.372-1.754-3.615a1.69 1.69 0 01-.165-.782c.043-.472.406-.842.689-1.225a4.99 4.99 0 00.812-3.557 8.34 8.34 0 00-1.398-3.464 3.797 3.797 0 00-1.002-1.1c-.547-.367-1.223-.472-1.875-.565-2.72-.38-5.539-.795-8.282-.935-.867-.045-1.504.125-1.932.935-.654 1.207.366 2.115.398 3.327z" fill="#444176"/>
      <path opacity=".5" d="M85.002 167.707l-5.164 7.326-5.04-.437s-.166 1.75-2.193-4.592c-1.132-3.547 1.17-2.314 1.624-3.297.453-.982 1.252-1.849 1.32-2.574.16-1.555-.313-2.44-.313-2.44l5.48-.655a4.071 4.071 0 00-.091 2.282c.686 2.845 4.377 4.387 4.377 4.387z" fill="#C77485"/>
      <path opacity=".5" d="M77.235 161.461c3.598 0 6.514-2.294 6.514-5.124 0-2.83-2.916-5.125-6.514-5.125-3.597 0-6.514 2.295-6.514 5.125s2.917 5.124 6.514 5.124z" fill="#444176"/>
      <path opacity=".1" d="M80.623 163.318a5.48 5.48 0 01-2.436 1.038 5.477 5.477 0 01-2.64-.223c.16-1.555-.313-2.44-.313-2.44l5.48-.655a4.073 4.073 0 00-.091 2.28z" fill="#000"/>
      <path opacity=".5" d="M77.318 164.208a5.473 5.473 0 005.48-5.467 5.472 5.472 0 00-5.48-5.466 5.472 5.472 0 00-5.48 5.466 5.473 5.473 0 005.48 5.467z" fill="#C77485"/>
      <path opacity=".1" d="M84.461 168.537l-.128-.5-.11-.44-.163-.65-.03-.12-.025-.1s.13-.392-.729-.265l-.16.028a6.724 6.724 0 00-.474.115l-.163.05-.215.067a4.702 4.702 0 00-1.82 1.095 4.102 4.102 0 00-.608.735c-.017.025-.03.048-.045.068-.06.092-.112.189-.158.289 0 1.97-1.974 4.375-1.974 4.375l-1.927-2.777-.037-.055-.459-.665-.163-.215-.055-.075-1.002-1.342-.25-.335-.083-.113-.123-.162-.288-.383-1.127.658-1.504.874-.877 5.687v.158l.028.469.183 3.09v.042l-.32 1.28.047.025c.757.407 1.544.755 2.355 1.04l.213.075c.25.083.486.158.731.23.01.037.016.075.02.112v-.107c3.075.877 6.334.877 9.408 0l.058-.018c.143-.039.288-.082.428-.129l.228-.073a16.664 16.664 0 001.814-.725l.21-4.474.15-3.227v-.185l-.856-3.427z" fill="#000"/>
      <path opacity=".5" d="M82.657 176.848c0-.1 0-.2-.018-.3-.017-.1-.015-.187-.027-.282-.013-.095-.023-.19-.035-.285a5.533 5.533 0 00-.048-.285c-.018-.095-.035-.19-.055-.285 0-.033-.013-.063-.02-.095a11.39 11.39 0 00-.173-.68c0-.045-.025-.09-.04-.132-.015-.043-.043-.145-.065-.218l-.045-.14c-.02-.062-.04-.125-.063-.187-.038-.113-.078-.223-.118-.335-.04-.113-.082-.223-.125-.333-.085-.225-.178-.447-.27-.67-.364-.864-.772-1.717-1.148-2.562a14.19 14.19 0 01-.536-1.357l-.048.068a2.938 2.938 0 00-.203.359c0 1.968-1.974 4.375-1.974 4.375l-1.987-2.887-1.739 2.667c-.25.132-.5.587-.696 1.235a9.57 9.57 0 00-.158.567 9.142 9.142 0 00-.097.42 5.318 5.318 0 00-.048.22l-.045.227v.035c-.03.155-.06.315-.088.478-.028.162-.06.35-.088.527-.02.115-.037.23-.052.345-.035.223-.065.448-.095.67-.018.13-.035.25-.05.387l-.06.5c.127.41.27.815.418 1.213.094.217.15.45.163.687 3.074.877 6.333.877 9.407 0a.095.095 0 010-.025 2.967 2.967 0 01-.06-.682c.05-.642.134-1.28.25-1.913.038-.311.053-.625.048-.939v-.113c-.007-.095-.01-.185-.012-.275zm0 0c0-.1 0-.2-.018-.3-.017-.1-.015-.187-.027-.282-.013-.095-.023-.19-.035-.285a5.533 5.533 0 00-.048-.285c-.018-.095-.035-.19-.055-.285 0-.033-.013-.063-.02-.095a11.39 11.39 0 00-.173-.68c0-.045-.025-.09-.04-.132-.015-.043-.043-.145-.065-.218l-.045-.14c-.02-.062-.04-.125-.063-.187-.038-.113-.078-.223-.118-.335-.04-.113-.082-.223-.125-.333-.085-.225-.178-.447-.27-.67-.364-.864-.772-1.717-1.148-2.562a14.19 14.19 0 01-.536-1.357l-.048.068a2.938 2.938 0 00-.203.359c0 1.968-1.974 4.375-1.974 4.375l-1.987-2.887-1.739 2.667c-.25.132-.5.587-.696 1.235a9.57 9.57 0 00-.158.567 9.142 9.142 0 00-.097.42 5.318 5.318 0 00-.048.22l-.045.227v.035c-.03.155-.06.315-.088.478-.028.162-.06.35-.088.527-.02.115-.037.23-.052.345-.035.223-.065.448-.095.67-.018.13-.035.25-.05.387l-.06.5c.127.41.27.815.418 1.213.094.217.15.45.163.687 3.074.877 6.333.877 9.407 0a.095.095 0 010-.025 2.967 2.967 0 01-.06-.682c.05-.642.134-1.28.25-1.913.038-.311.053-.625.048-.939v-.113c-.007-.095-.01-.185-.012-.275zm0 0c0-.1 0-.2-.018-.3-.017-.1-.015-.187-.027-.282-.013-.095-.023-.19-.035-.285a5.533 5.533 0 00-.048-.285c-.018-.095-.035-.19-.055-.285 0-.033-.013-.063-.02-.095a11.39 11.39 0 00-.173-.68c0-.045-.025-.09-.04-.132-.015-.043-.043-.145-.065-.218l-.045-.14c-.02-.062-.04-.125-.063-.187-.038-.113-.078-.223-.118-.335-.04-.113-.082-.223-.125-.333-.085-.225-.178-.447-.27-.67-.364-.864-.772-1.717-1.148-2.562a14.19 14.19 0 01-.536-1.357l-.048.068a2.938 2.938 0 00-.203.359c0 1.968-1.974 4.375-1.974 4.375l-1.987-2.887-1.739 2.667c-.25.132-.5.587-.696 1.235a9.57 9.57 0 00-.158.567 9.142 9.142 0 00-.097.42 5.318 5.318 0 00-.048.22l-.045.227v.035c-.03.155-.06.315-.088.478-.028.162-.06.35-.088.527-.02.115-.037.23-.052.345-.035.223-.065.448-.095.67-.018.13-.035.25-.05.387l-.06.5c.127.41.27.815.418 1.213.094.217.15.45.163.687 3.074.877 6.333.877 9.407 0a.095.095 0 010-.025 2.967 2.967 0 01-.06-.682c.05-.642.134-1.28.25-1.913.038-.311.053-.625.048-.939v-.113c-.007-.095-.01-.185-.012-.275zm2.655-4.692l-.894-3.561-.153-.61-.042-.168-.218-.87v-.022a.2.2 0 00-.018-.113c-.032-.065-.115-.132-.308-.15a1.623 1.623 0 00-.22 0 3.91 3.91 0 00-.645.12c-.102.028-.212.058-.33.095l-.216.068h-.02a4.785 4.785 0 00-1.578.875 4.231 4.231 0 00-.802.885l-.047.067a2.865 2.865 0 00-.203.36c0 1.967-1.974 4.374-1.974 4.374l-1.987-2.887-.113-.162-.02-.028-.288-.422-.218-.29-.058-.075-1.027-1.367-.326-.443v-.015l-.112-.152-.216-.285-.751.437-1.88 1.093-.866 5.626v.06l.025.41.185 3.132v.177l-.283 1.128c.757.407 1.544.755 2.355 1.04l.213.075c.25.082.486.157.731.23.01.037.016.074.02.112v-.107c3.075.876 6.334.876 9.408 0l.058-.018c.143-.04.288-.082.428-.13l.228-.072a17.077 17.077 0 001.814-.725l.208-4.47.15-3.192-.01-.03zm-12.321 8.632c.01.037.016.074.02.112v-.107l-.02-.005zm9.666-3.94c0-.1 0-.2-.018-.3-.017-.1-.015-.187-.027-.282-.013-.095-.023-.19-.035-.285a5.533 5.533 0 00-.048-.285c-.018-.095-.035-.19-.055-.285 0-.033-.013-.063-.02-.095a11.39 11.39 0 00-.173-.68c0-.045-.025-.09-.04-.132-.015-.043-.043-.145-.065-.218l-.045-.14c-.02-.062-.04-.125-.063-.187-.038-.113-.078-.223-.118-.335-.04-.113-.082-.223-.125-.333-.085-.225-.178-.447-.27-.67-.364-.864-.772-1.717-1.148-2.562a14.19 14.19 0 01-.536-1.357l-.048.068a2.938 2.938 0 00-.203.359c0 1.968-1.974 4.375-1.974 4.375l-1.987-2.887-1.739 2.667c-.25.132-.5.587-.696 1.235a9.57 9.57 0 00-.158.567 9.142 9.142 0 00-.097.42 5.318 5.318 0 00-.048.22l-.045.227v.035c-.03.155-.06.315-.088.478-.028.162-.06.35-.088.527-.02.115-.037.23-.052.345-.035.223-.065.448-.095.67-.018.13-.035.25-.05.387l-.06.5c.127.41.27.815.418 1.213.094.217.15.45.163.687 3.074.877 6.333.877 9.407 0a.095.095 0 010-.025 2.967 2.967 0 01-.06-.682c.05-.642.134-1.28.25-1.913.038-.311.053-.625.048-.939v-.113c-.007-.095-.01-.185-.012-.275zm0 0c0-.1 0-.2-.018-.3-.017-.1-.015-.187-.027-.282-.013-.095-.023-.19-.035-.285a5.533 5.533 0 00-.048-.285c-.018-.095-.035-.19-.055-.285 0-.033-.013-.063-.02-.095a11.39 11.39 0 00-.173-.68c0-.045-.025-.09-.04-.132-.015-.043-.043-.145-.065-.218l-.045-.14c-.02-.062-.04-.125-.063-.187-.038-.113-.078-.223-.118-.335-.04-.113-.082-.223-.125-.333-.085-.225-.178-.447-.27-.67-.364-.864-.772-1.717-1.148-2.562a14.19 14.19 0 01-.536-1.357l-.048.068a2.938 2.938 0 00-.203.359c0 1.968-1.974 4.375-1.974 4.375l-1.987-2.887-1.739 2.667c-.25.132-.5.587-.696 1.235a9.57 9.57 0 00-.158.567 9.142 9.142 0 00-.097.42 5.318 5.318 0 00-.048.22l-.045.227v.035c-.03.155-.06.315-.088.478-.028.162-.06.35-.088.527-.02.115-.037.23-.052.345-.035.223-.065.448-.095.67-.018.13-.035.25-.05.387l-.06.5c.127.41.27.815.418 1.213.094.217.15.45.163.687 3.074.877 6.333.877 9.407 0a.095.095 0 010-.025 2.967 2.967 0 01-.06-.682c.05-.642.134-1.28.25-1.913.038-.311.053-.625.048-.939v-.113c-.007-.095-.01-.185-.012-.275zm0 0c0-.1 0-.2-.018-.3-.017-.1-.015-.187-.027-.282-.013-.095-.023-.19-.035-.285a5.533 5.533 0 00-.048-.285c-.018-.095-.035-.19-.055-.285 0-.033-.013-.063-.02-.095a11.39 11.39 0 00-.173-.68c0-.045-.025-.09-.04-.132-.015-.043-.043-.145-.065-.218l-.045-.14c-.02-.062-.04-.125-.063-.187-.038-.113-.078-.223-.118-.335-.04-.113-.082-.223-.125-.333-.085-.225-.178-.447-.27-.67-.364-.864-.772-1.717-1.148-2.562a14.19 14.19 0 01-.536-1.357l-.048.068a2.938 2.938 0 00-.203.359c0 1.968-1.974 4.375-1.974 4.375l-1.987-2.887-1.739 2.667c-.25.132-.5.587-.696 1.235a9.57 9.57 0 00-.158.567 9.142 9.142 0 00-.097.42 5.318 5.318 0 00-.048.22l-.045.227v.035c-.03.155-.06.315-.088.478-.028.162-.06.35-.088.527-.02.115-.037.23-.052.345-.035.223-.065.448-.095.67-.018.13-.035.25-.05.387l-.06.5c.127.41.27.815.418 1.213.094.217.15.45.163.687 3.074.877 6.333.877 9.407 0a.095.095 0 010-.025 2.967 2.967 0 01-.06-.682c.05-.642.134-1.28.25-1.913.038-.311.053-.625.048-.939v-.113c-.007-.095-.01-.185-.012-.275zm0 0c0-.1 0-.2-.018-.3-.017-.1-.015-.187-.027-.282-.013-.095-.023-.19-.035-.285a5.533 5.533 0 00-.048-.285c-.018-.095-.035-.19-.055-.285 0-.033-.013-.063-.02-.095a11.39 11.39 0 00-.173-.68c0-.045-.025-.09-.04-.132-.015-.043-.043-.145-.065-.218l-.045-.14c-.02-.062-.04-.125-.063-.187-.038-.113-.078-.223-.118-.335-.04-.113-.082-.223-.125-.333-.085-.225-.178-.447-.27-.67-.364-.864-.772-1.717-1.148-2.562a14.19 14.19 0 01-.536-1.357l-.048.068a2.938 2.938 0 00-.203.359c0 1.968-1.974 4.375-1.974 4.375l-1.987-2.887-1.739 2.667c-.25.132-.5.587-.696 1.235a9.57 9.57 0 00-.158.567 9.142 9.142 0 00-.097.42 5.318 5.318 0 00-.048.22l-.045.227v.035c-.03.155-.06.315-.088.478-.028.162-.06.35-.088.527-.02.115-.037.23-.052.345-.035.223-.065.448-.095.67-.018.13-.035.25-.05.387l-.06.5c.127.41.27.815.418 1.213.094.217.15.45.163.687 3.074.877 6.333.877 9.407 0a.095.095 0 010-.025 2.967 2.967 0 01-.06-.682c.05-.642.134-1.28.25-1.913.038-.311.053-.625.048-.939v-.113c-.007-.095-.01-.185-.012-.275zm0 0c0-.1 0-.2-.018-.3-.017-.1-.015-.187-.027-.282-.013-.095-.023-.19-.035-.285a5.533 5.533 0 00-.048-.285c-.018-.095-.035-.19-.055-.285 0-.033-.013-.063-.02-.095a11.39 11.39 0 00-.173-.68c0-.045-.025-.09-.04-.132-.015-.043-.043-.145-.065-.218l-.045-.14c-.02-.062-.04-.125-.063-.187-.038-.113-.078-.223-.118-.335-.04-.113-.082-.223-.125-.333-.085-.225-.178-.447-.27-.67-.364-.864-.772-1.717-1.148-2.562a14.19 14.19 0 01-.536-1.357l-.048.068a2.938 2.938 0 00-.203.359c0 1.968-1.974 4.375-1.974 4.375l-1.987-2.887-1.739 2.667c-.25.132-.5.587-.696 1.235a9.57 9.57 0 00-.158.567 9.142 9.142 0 00-.097.42 5.318 5.318 0 00-.048.22l-.045.227v.035c-.03.155-.06.315-.088.478-.028.162-.06.35-.088.527-.02.115-.037.23-.052.345-.035.223-.065.448-.095.67-.018.13-.035.25-.05.387l-.06.5c.127.41.27.815.418 1.213.094.217.15.45.163.687 3.074.877 6.333.877 9.407 0a.095.095 0 010-.025 2.967 2.967 0 01-.06-.682c.05-.642.134-1.28.25-1.913.038-.311.053-.625.048-.939v-.113c-.007-.095-.01-.185-.012-.275zm0 0c0-.1 0-.2-.018-.3-.017-.1-.015-.187-.027-.282-.013-.095-.023-.19-.035-.285a5.533 5.533 0 00-.048-.285c-.018-.095-.035-.19-.055-.285 0-.033-.013-.063-.02-.095a11.39 11.39 0 00-.173-.68c0-.045-.025-.09-.04-.132-.015-.043-.043-.145-.065-.218l-.045-.14c-.02-.062-.04-.125-.063-.187-.038-.113-.078-.223-.118-.335-.04-.113-.082-.223-.125-.333-.085-.225-.178-.447-.27-.67-.364-.864-.772-1.717-1.148-2.562a14.19 14.19 0 01-.536-1.357l-.048.068a2.938 2.938 0 00-.203.359c0 1.968-1.974 4.375-1.974 4.375l-1.987-2.887-1.739 2.667c-.25.132-.5.587-.696 1.235a9.57 9.57 0 00-.158.567 9.142 9.142 0 00-.097.42 5.318 5.318 0 00-.048.22l-.045.227v.035c-.03.155-.06.315-.088.478-.028.162-.06.35-.088.527-.02.115-.037.23-.052.345-.035.223-.065.448-.095.67-.018.13-.035.25-.05.387l-.06.5c.127.41.27.815.418 1.213.094.217.15.45.163.687 3.074.877 6.333.877 9.407 0a.095.095 0 010-.025 2.967 2.967 0 01-.06-.682c.05-.642.134-1.28.25-1.913.038-.311.053-.625.048-.939v-.113c-.007-.095-.01-.185-.012-.275zm0 0c0-.1 0-.2-.018-.3-.017-.1-.015-.187-.027-.282-.013-.095-.023-.19-.035-.285a5.533 5.533 0 00-.048-.285c-.018-.095-.035-.19-.055-.285 0-.033-.013-.063-.02-.095a11.39 11.39 0 00-.173-.68c0-.045-.025-.09-.04-.132-.015-.043-.043-.145-.065-.218l-.045-.14c-.02-.062-.04-.125-.063-.187-.038-.113-.078-.223-.118-.335-.04-.113-.082-.223-.125-.333-.085-.225-.178-.447-.27-.67-.364-.864-.772-1.717-1.148-2.562a14.19 14.19 0 01-.536-1.357l-.048.068a2.938 2.938 0 00-.203.359c0 1.968-1.974 4.375-1.974 4.375l-1.987-2.887-1.739 2.667c-.25.132-.5.587-.696 1.235a9.57 9.57 0 00-.158.567 9.142 9.142 0 00-.097.42 5.318 5.318 0 00-.048.22l-.045.227v.035c-.03.155-.06.315-.088.478-.028.162-.06.35-.088.527-.02.115-.037.23-.052.345-.035.223-.065.448-.095.67-.018.13-.035.25-.05.387l-.06.5c.127.41.27.815.418 1.213.094.217.15.45.163.687 3.074.877 6.333.877 9.407 0a.095.095 0 010-.025 2.967 2.967 0 01-.06-.682c.05-.642.134-1.28.25-1.913.038-.311.053-.625.048-.939v-.113c-.007-.095-.01-.185-.012-.275zm0 0c0-.1 0-.2-.018-.3-.017-.1-.015-.187-.027-.282-.013-.095-.023-.19-.035-.285a5.533 5.533 0 00-.048-.285c-.018-.095-.035-.19-.055-.285 0-.033-.013-.063-.02-.095a11.39 11.39 0 00-.173-.68c0-.045-.025-.09-.04-.132-.015-.043-.043-.145-.065-.218l-.045-.14c-.02-.062-.04-.125-.063-.187-.038-.113-.078-.223-.118-.335-.04-.113-.082-.223-.125-.333-.085-.225-.178-.447-.27-.67-.364-.864-.772-1.717-1.148-2.562a14.19 14.19 0 01-.536-1.357l-.048.068a2.938 2.938 0 00-.203.359c0 1.968-1.974 4.375-1.974 4.375l-1.987-2.887-1.739 2.667c-.25.132-.5.587-.696 1.235a9.57 9.57 0 00-.158.567 9.142 9.142 0 00-.097.42 5.318 5.318 0 00-.048.22l-.045.227v.035c-.03.155-.06.315-.088.478-.028.162-.06.35-.088.527-.02.115-.037.23-.052.345-.035.223-.065.448-.095.67-.018.13-.035.25-.05.387l-.06.5c.127.41.27.815.418 1.213.094.217.15.45.163.687 3.074.877 6.333.877 9.407 0a.095.095 0 010-.025 2.967 2.967 0 01-.06-.682c.05-.642.134-1.28.25-1.913.038-.311.053-.625.048-.939v-.113c-.007-.095-.01-.185-.012-.275z" fill="#444176"/>
      <path opacity=".1" d="M75.695 170.449l-.168-.022a6.192 6.192 0 01-.752-.15l-.092-.025c-.612-.173-1.28-.483-1.43-1.028a.97.97 0 01.014-.532c.084-.297.199-.585.341-.86v-.015c.019-.038.04-.076.063-.112.206-.403.519-.743.904-.983l-.3.048-2.546.412-3.946.635s-.701-.14-1.656 2.485c0 .032-.023.062-.033.097a26.02 26.02 0 00-.724 2.447c-.172.695-.33 1.378-.476 2.04-.042.2-.085.397-.125.592.452.532.938 1.033 1.456 1.5l.082.078a17.113 17.113 0 003.337 2.357l.048.025c.757.407 1.544.755 2.355 1.04l.213.075c.045-.463.095-.975.155-1.5 0-.053 0-.105.02-.158l.06-.5.05-.387c.03-.222.06-.447.096-.67a28.945 28.945 0 01.228-1.35v-.035l.045-.227c.015-.075.03-.148.048-.22.03-.143.062-.285.097-.42a9.57 9.57 0 01.158-.567c.2-.648.434-1.103.697-1.235l1.738-2.667.073-.113.033-.05-.063-.005zm.418-13.308c.781-.132 1.568-.417 2.345-.249.651.134 1.195.567 1.791.867a4.634 4.634 0 001.85.487c.234.031.472-.015.678-.132.31-.215.356-.655.303-1.03-.15-1.065-.817-1.98-1.503-2.81a5.522 5.522 0 00-.942-.952c-.9-.662-2.09-.775-3.204-.725-1.273.058-2.566.303-3.67.94-.752.43-2.476 1.785-1.877 2.765.629 1.024 3.244 1.007 4.229.839z" fill="#000"/>
      <path opacity=".5" d="M76.113 156.892c.781-.133 1.568-.418 2.345-.25.651.135 1.195.567 1.791.867a4.634 4.634 0 001.85.487c.234.031.472-.015.678-.132.31-.215.356-.655.303-1.03-.15-1.065-.817-1.98-1.503-2.81a5.522 5.522 0 00-.942-.952c-.9-.662-2.09-.775-3.204-.725-1.273.058-2.566.303-3.67.94-.752.43-2.476 1.785-1.877 2.765.629 1.024 3.244 1.007 4.229.84z" fill="#444176"/>
    </g>
    <path d="M144.913 144.651h.037c.055 1.675.293 3.189.752 3.609 1.092 1 5.622-.999 5.311-2.209-.062-.25-.168-.66-.3-1.178 1.222-.152 2.267-.499 2.683-1.214l.787 2.419.055.173h.06c.518 4.904 1.693 15.087 2.633 16.452 1.253 1.807 2.693 9.638 2.693 9.638l2.694 16.065s1.037 9.249 1.658 10.249c.181.19.421.315.682.352-.364 1.085-.885 2.352-1.504 3.059-1.252 1.405-2.901 4.217-4.351 4.017-1.451-.2-1.864 2.812.829 3.212 1.49.223 3.868-.047 5.694-.332 0 .805.562 1.73 1.972 1.94 2.693.402 8.288-.803 8.288-.803s4.76-2 4.973-3.414c.15-1.025-.579-5.139-.984-7.297.751-1.202-.051-11.578-.051-11.578l-1.45-19.879s.829-11.043 0-13.053c-.519-1.249-.712-6.999-.784-11.11l1.002.065c.057-.069.109-.142.155-.218l.251.018s1.252-1.405.208-3.615c-.77-1.642-.624-9.056-.502-12.748l.148-1.749a.499.499 0 00.123-.19 18.434 18.434 0 005.595-1.69 5.72 5.72 0 001.468-.89c1.037-1 .413-7.029-1.659-16.065-2.072-9.036-3.936-8.233-3.936-8.233s-4.973-.403-7.253-3.415c-2.28-3.012-3.81-2.972-3.81-2.972a17.13 17.13 0 01-.126-1.115c0-.13-.02-.25-.027-.38a6.601 6.601 0 001.723-2.607c.466-.25 1.04-.332 1.486-.647.114-.082.217-.178.308-.285.447-.411.731-.97.799-1.572a6.4 6.4 0 00-.092-1.972c-.158-.96-.391-1.943-.952-2.697-.561-.755-1.401-1.21-2.21-1.633a698.154 698.154 0 00-6.592-3.409 3.638 3.638 0 00-1.41-.5c-.882-.05-1.674.552-2.385 1.125-.284.223-.556.46-.815.712-.219.195-.42.41-.598.643-.832 1.112-1.185 3.207-.82 4.596.116.44.364.568.669.563a6.447 6.447 0 00-.689 2.9 6.574 6.574 0 003.059 5.522c0 .139 0 .276.013.409.01.513-.006 1.026-.05 1.537 0 0-5.512 2.972-6.131 4.377-.619 1.405-2.901 2.409-2.901 2.409s-4.352 2.21-4.352 10.041l-2.28 11.043-.413 21.084s.286-.25.752-.604c-.015.14-.028.284-.041.432-.062.806-.083 1.614-.062 2.422l-.03.19zm27.834 54.568c-.085.323-.21.75-.368 1.25-.07-.415-.14-.825-.21-1.215.18-.017.373-.027.578-.035z" fill="url(#paint2_linear)"/>
    <path d="M165.221 196.63s-.799 3.584-2.004 4.977c-1.205 1.392-2.784 4.181-4.177 3.981-1.393-.2-1.796 2.787.799 3.185 2.596.397 7.97-.795 7.97-.795s4.59-2 4.788-3.384c.198-1.385-1.198-8.562-1.198-8.562l-6.178.598z" fill="#53526B"/>
    <path opacity=".05" d="M165.221 196.63s-.799 3.584-2.004 4.977c-1.205 1.392-2.784 4.181-4.177 3.981-1.393-.2-1.796 2.787.799 3.185 2.596.397 7.97-.795 7.97-.795s4.59-2 4.788-3.384c.198-1.385-1.198-8.562-1.198-8.562l-6.178.598z" fill="#000"/>
    <path d="M172.605 198.222s-.799 3.585-2.004 4.977c-1.205 1.392-2.791 4.182-4.182 3.982-1.39-.2-1.796 2.787.799 3.184 2.596.398 7.982-.797 7.982-.797s4.59-2 4.788-3.385c.198-1.384-1.197-8.561-1.197-8.561l-6.186.6z" fill="#53526B"/>
    <path d="M154.446 143.679s1.596 17.119 2.793 18.912c1.198 1.792 2.593 9.555 2.593 9.555l2.593 15.925s1.003 9.159 1.596 10.154c.594.994 8 .567 8 .567l-4.605-52.726-12.97-2.387z" fill="#5F5D7E"/>
    <path opacity=".05" d="M154.446 143.679s1.596 17.119 2.793 18.912c1.198 1.792 2.593 9.555 2.593 9.555l2.593 15.925s1.003 9.159 1.596 10.154c.594.994 8 .567 8 .567l-4.605-52.726-12.97-2.387z" fill="#000"/>
    <path d="M151.254 135.513l.521 1.652 2.819 8.926.055.17h.015c.378.085 8.365 1.917 10.089 2.479.093.029.184.063.273.103.799.397 1.796 14.73 1.796 14.73s.599 13.538 1.002 14.532c.404.995 2.005 21.497 2.994 20.902.99-.595 8.18 0 8.18 0 .8-.797 0-11.546 0-11.546l-1.418-19.704s.8-10.948 0-12.94c-.799-1.992-.799-15.328-.799-15.328l-16.332-2.547-1.579-.25-7.616-1.179z" fill="#5F5D7E"/>
    <path opacity=".02" d="M151.775 137.167l2.818 8.926.068.175c.378.085 8.365 1.917 10.089 2.48h.173l-4.462-11.803-.128-.34-1.45.092-7.108.47z" fill="#000"/>
    <path opacity=".1" d="M170.41 95.702s-7.383 7.963-11.973 1.392l-4.39 2.987.8 4.579-2.596 34.637s6.785-.2 11.572 1.392a7.435 7.435 0 007.782-1.792l-.789-30.455 1.796-9.356-2.202-3.384z" fill="#000"/>
    <path d="M170.41 95.104s-7.383 7.964-11.973 1.392l-4.39 2.988.8 4.579-2.596 34.636s6.785-.199 11.572 1.393a7.438 7.438 0 007.782-1.792l-.789-30.455 1.796-9.356-2.202-3.385z" fill="#53526B"/>
    <path d="M155.671 130.568v1.255h-.401v-.835h-1.465v.835h-.404v-1.252l2.27-.003zm-.359-.405h-1.548a.569.569 0 01-.421-.415h2.388a.575.575 0 01-.421.415m14.002-.4a.574.574 0 01-.418.413h-.652l-.032.012v1.64h-.401v-1.64l-.038-.012h-.651a.589.589 0 01-.418-.413h2.61z" fill="#E82127"/>
    <path d="M155.045 136.312s0 5.177-1.198 7.367c-1.198 2.189-8.18.999-8.18.999l1.395-7.366 7.983-1z" fill="#D6DBE6"/>
    <path d="M146.426 148.26c1.052 1 5.414-.999 5.113-2.189-.21-.843-.947-3.857-1.365-5.567l-.291-1.202s-2.555-.797-3.457 0c-.328.29-.559 1.432-.667 2.812-.185 2.397.003 5.512.667 6.146zm9.608-49.574l6.983 5.374s10.374-.597 7.781-5.574a18.528 18.528 0 01-2.004-7.034 14.732 14.732 0 010-2.722s-9.578-8.748-8.38 1.195c.094.763.149 1.53.165 2.3.143 7.464-4.545 6.461-4.545 6.461z" fill="#FDC2CC"/>
    <path opacity=".1" d="M160.434 89.928c.094.763.149 1.53.165 2.3a6.55 6.55 0 003.625 1.084c1.787 0 3.102-1.735 4.29-2.887-.133-1.652.298-1.692.298-1.692s-9.576-8.759-8.378 1.195z" fill="#000"/>
    <path d="M164.224 92.915c3.637 0 6.584-2.942 6.584-6.57 0-3.627-2.947-6.568-6.584-6.568-3.636 0-6.584 2.94-6.584 6.569 0 3.627 2.948 6.569 6.584 6.569z" fill="#FDC2CC"/>
    <path opacity=".1" d="M168.911 92.615s1.098.1 3.292 3.084c2.195 2.985 6.983 3.385 6.983 3.385s1.796-.798 3.791 8.161c1.994 8.958 2.593 14.93 1.595 15.925-.997.994-4.988 2.392-6.992 2.392 0 0-.599 12.54.398 14.73.997 2.189-.2 3.584-.2 3.584l-8.769-.597s-2.994-3.782-3.593-10.351c-.598-6.569-2.593-25.283-1.595-27.473.997-2.19 5.386-7.764 5.188-8.361-.198-.597-.098-4.48-.098-4.48z" fill="#000"/>
    <path d="M168.934 92.555s1.476-.04 3.671 2.947c2.194 2.987 6.98 3.384 6.98 3.384s1.796-.797 3.79 8.161c1.995 8.959 2.593 14.93 1.596 15.925-.997.995-4.988 2.39-6.982 2.39 0 0-.599 12.54.398 14.73.997 2.189-.2 3.584-.2 3.584l-8.769-.597s-2.994-3.782-3.593-10.351c-.599-6.569-2.598-25.281-1.601-27.46.997-2.18 5.387-7.764 5.189-8.362-.198-.597-.479-4.351-.479-4.351z" fill="#D6DBE6"/>
    <path opacity=".1" d="M145.762 142.111c.955-.727 2.756-1.859 4.415-1.609l-.291-1.203s-2.555-.797-3.457 0c-.334.29-.562 1.43-.667 2.812zm14.782-48.301s-5.088 3.284-5.687 4.679c-.599 1.394-2.794 2.389-2.794 2.389s-4.189 2.19-4.189 9.954l-2.194 10.948 9.976 13.935s1.198-13.935 1.796-17.32c.599-3.384 1.396-9.748 1.396-9.748s2.994-3.782 2.593-4.777c-.401-.995-.897-10.06-.897-10.06z" fill="#000"/>
    <path d="M160.544 93.75s-5.306 2.947-5.903 4.339c-.596 1.392-2.793 2.389-2.793 2.389s-4.189 2.19-4.189 9.954l-2.195 10.948-.398 20.901s3.593-3.384 6.186-1.792c2.593 1.592 4.189-5.176 4.189-5.176s1.197-13.936 1.796-17.32c.599-3.385 1.395-9.748 1.395-9.748s2.994-3.782 2.593-4.777c-.4-.995-.681-9.719-.681-9.719z" fill="#D6DBE6"/>
    <path opacity=".1" d="M158.444 78.355a6.517 6.517 0 011.163-1.145c.686-.57 1.445-1.165 2.297-1.115.482.064.945.23 1.358.485a657.511 657.511 0 016.346 3.38c.779.42 1.583.864 2.127 1.619.544.755.764 1.725.917 2.675.128.643.158 1.302.09 1.954a2.448 2.448 0 01-.867 1.642c-.568.413-1.347.415-1.824.955-.275.313-.395.75-.591 1.13-.195.38-.533.75-.919.683-.386-.068-.619-.475-.674-.888-.025-.418 0-.837.072-1.25.076-.75-.02-1.544-.456-2.102-.3-.38-.731-.61-1.022-1-.696-.94-.378-2.5-1.142-3.382a1.813 1.813 0 00-1.754-.5c-.619.13-1.185.465-1.754.75a13.05 13.05 0 01-2.402.925c-.697.19-1.503.645-1.742-.28-.363-1.357-.025-3.434.777-4.537z" fill="#000"/>
    <path d="M158.644 78.157a6.524 6.524 0 011.163-1.145c.686-.57 1.446-1.165 2.297-1.115.482.064.945.23 1.358.485 2.12 1.115 3.881.06 6.346 3.38.527.71 1.584.865 2.127 1.62.544.754.765 1.724.917 2.674.128.644.159 1.302.091 1.955a2.456 2.456 0 01-.867 1.642c-.569.412-1.348.415-1.824.955-.276.312-.396.75-.591 1.13-.196.38-.534.75-.92.682-.386-.067-.619-.475-.674-.887-.024-.418 0-.838.073-1.25.075-.75-.02-1.545-.456-2.102-.301-.38-.732-.61-1.022-1-.697-.94-.379-2.5-1.143-3.382a1.813 1.813 0 00-1.754-.5c-.618.13-1.185.465-1.753.75-.769.387-1.573.696-2.403.925-.696.19-1.503.645-1.741-.28-.366-1.358-.025-3.437.776-4.537z" fill="#865A61"/>
    <path opacity=".1" d="M176.628 108.539s2.661 6.769.664 9.556l-4.389-.999s3.991 1.194 3.392-1.195c-.599-2.39.333-7.362.333-7.362zm1.453 16.725s-5.787.398-7.383-.797a15.3 15.3 0 007.203 2.987l.18-2.19zm-24.93-12.748s-2.994 9.159-2.794 10.551c.201 1.392.599 16.722.599 16.722l.599-.2-.201-16.722 1.797-10.351z" fill="#000"/>
    <path d="M178.786 123.709l-68.397-54.99a4.28 4.28 0 00-3.031-1.25h-2.907a36.932 36.932 0 00-4.67-50.473 37.13 37.13 0 00-25.7-9.262A37.12 37.12 0 0049 18.552a36.954 36.954 0 00-10.843 25.023 36.943 36.943 0 009.284 25.64A37.109 37.109 0 0071.81 81.547a37.14 37.14 0 0026.22-7.672v2.897a4.26 4.26 0 001.253 3.025l68.396 54.991a4.269 4.269 0 006.048 0l5.041-5.025a4.284 4.284 0 00.018-6.054zm-103.59-56.24c-4.516 0-8.93-1.336-12.685-3.84a22.793 22.793 0 01-8.41-10.223 22.732 22.732 0 01-1.3-13.163 22.764 22.764 0 016.25-11.664 22.85 22.85 0 0111.69-6.235 22.889 22.889 0 0113.194 1.296 22.822 22.822 0 0110.247 8.391 22.744 22.744 0 013.848 12.657 22.723 22.723 0 01-1.733 8.721 22.765 22.765 0 01-4.95 7.394 22.825 22.825 0 01-7.41 4.94 22.868 22.868 0 01-8.74 1.73v-.004z" fill="url(#paint3_linear)"/>
    <path d="M179.287 123.21L110.89 68.219a4.282 4.282 0 00-3.031-1.25h-2.907a36.932 36.932 0 00-4.671-50.473 37.129 37.129 0 00-25.699-9.262 37.12 37.12 0 00-25.081 10.818 36.953 36.953 0 00-10.843 25.023 36.943 36.943 0 009.284 25.64 37.109 37.109 0 0024.369 12.332 37.14 37.14 0 0026.22-7.672v2.897a4.262 4.262 0 001.253 3.025l68.396 54.991a4.269 4.269 0 006.048 0l5.041-5.024a4.288 4.288 0 00.018-6.054zM75.697 66.969c-4.516 0-8.93-1.336-12.686-3.84a22.794 22.794 0 01-8.41-10.223 22.732 22.732 0 01-1.299-13.163 22.765 22.765 0 016.25-11.664 22.85 22.85 0 0111.69-6.235 22.881 22.881 0 0113.194 1.297 22.823 22.823 0 0110.247 8.39 22.744 22.744 0 013.848 12.657 22.724 22.724 0 01-1.733 8.721 22.767 22.767 0 01-4.95 7.394 22.824 22.824 0 01-7.41 4.94 22.868 22.868 0 01-8.74 1.73v-.004z" fill="#6C63FF"/>
    <path d="M174.201 118.195s-9.984-11.423-8.581-3.584c1.002 5.574 4.788 8.561 6.584 9.158 1.796.598 1.997-5.574 1.997-5.574z" fill="#FDC2CC"/>
    <path d="M176.596 107.645s.2 7.366 1.197 8.361c.997.995-.598 2.189-.598 2.189l-3.991-.999s1.002 6.568-3.192 5.774c0 0 2.793 2.587 5.587 2.987 2.793.4 2.593-.598 2.593-.598l4.189-4.976-5.785-12.738z" fill="#D6DBE6"/>
    <path d="M177.7 125.467l4.049-.888-.541-1.862-2.506-1-3.257 1.5 2.255 2.25z" fill="#D6DBE6"/>
    <path d="M78.195 53.629l5.39-4.147s-3.611.772-3.508-4.984a14.709 14.709 0 01.125-1.775c.924-7.681-6.466-.922-6.466-.922.063.68.063 1.364 0 2.044v.055a14.26 14.26 0 01-1.539 5.427c-2.006 3.84 5.998 4.302 5.998 4.302z" fill="#FDC2CC"/>
    <path opacity=".1" d="M74.424 42.778c.915.887 1.474 2.5 2.85 2.5a5.058 5.058 0 002.798-.838c0-.52.05-1.09.125-1.717.924-7.681-6.466-.922-6.466-.922s.791-.273.694.977z" fill="#000"/>
    <path d="M77.273 45.028c2.806 0 5.08-2.27 5.08-5.07 0-2.8-2.274-5.069-5.08-5.069a5.075 5.075 0 00-5.081 5.07c0 2.799 2.275 5.069 5.08 5.069z" fill="#FDC2CC"/>
    <path opacity=".1" d="M82.146 33.467a5.57 5.57 0 00-1.002-.98c-.587-.487-1.238-1-1.967-.955a2.95 2.95 0 00-1.163.415c-1.816.955-3.322.053-5.434 2.892-.45.608-1.355.75-1.821 1.388-.466.637-.654 1.474-.787 2.29a5.603 5.603 0 00-.078 1.674c.056.548.326 1.053.752 1.405.486.352 1.155.355 1.563.817.206.301.374.626.501.967.166.325.457.633.787.585.33-.047.529-.405.576-.75a4.6 4.6 0 00-.062-1.067c-.063-.632.017-1.322.39-1.8.251-.327.627-.522.875-.855.596-.802.326-2.15.98-2.894a1.551 1.551 0 011.503-.417c.526.15 1.032.366 1.503.644.658.332 1.347.597 2.057.793.596.162 1.288.552 1.49-.25.319-1.18.02-2.96-.663-3.902z" fill="#000"/>
    <path d="M82.146 33.217a5.57 5.57 0 00-1.002-.98c-.587-.487-1.238-1-1.967-.955a2.95 2.95 0 00-1.163.415c-1.816.955-3.322.053-5.434 2.892-.45.608-1.355.75-1.821 1.388-.466.637-.654 1.474-.787 2.29a5.603 5.603 0 00-.078 1.674c.056.548.326 1.053.752 1.405.486.352 1.155.355 1.563.817.206.301.374.626.501.967.166.325.457.633.787.585.33-.047.529-.405.576-.75a4.6 4.6 0 00-.062-1.067c-.063-.632.017-1.322.39-1.8.251-.327.627-.522.875-.855.596-.802.326-2.15.98-2.894a1.551 1.551 0 011.503-.417c.526.15 1.032.366 1.503.644.658.332 1.347.597 2.057.793.596.162 1.288.552 1.49-.25.319-1.18.02-2.96-.663-3.902z" fill="#865A61"/>
    <path opacity=".1" d="M72.192 56.296l-.1 3.837a17 17 0 004.467.592c.25 0 .513 0 .769-.018a16.88 16.88 0 003.95-.645h.026c.238-.07.473-.142.706-.222h.025l.213-.075a16.536 16.536 0 002.355-1.04l.048-.025.25-.137-.388-5.172.62-3.547-3.388-2.302a5.96 5.96 0 01-.636.77 4.258 4.258 0 01-1.158.855c-2.43 1.195-5.196-.705-6.572-1.88l-.313-.277c-.356-.323-.558-.543-.558-.543l-1.694 2.61 1.378 7.219z" fill="#000"/>
    <path d="M72.192 56.546l-.1 3.837c1.456.394 2.958.593 4.467.592.25 0 .513 0 .769-.018a16.886 16.886 0 003.95-.645h.026c.238-.07.473-.142.706-.222h.025l.213-.075a16.535 16.535 0 002.355-1.04l.048-.025.25-.137-.388-5.172.62-3.547-3.388-2.302a5.96 5.96 0 01-.636.77 4.258 4.258 0 01-1.158.855c-2.43 1.195-5.196-.705-6.572-1.88l-.313-.277c-.356-.323-.558-.543-.558-.543l-1.694 2.61 1.378 7.219z" fill="#53526B"/>
    <path d="M81.582 56.853s.186 1.472.429 3.232h.025l.213-.075a16.54 16.54 0 002.355-1.04l.047-.025.251-.137a16.993 16.993 0 003.092-2.22l.082-.077a15.903 15.903 0 001.456-1.5l.053-.063c-.895-3.097-2.756-4.071-2.756-4.071s-1.694-.77-2.157-1.845c-.464-1.075-4.555-3.347-4.555-3.347v.017c0 .193-.065 1.955-.163 3.727-.063 1.153-.14 2.31-.23 3.045-.02.239-.064.475-.13.705-.32.757 1.988 3.674 1.988 3.674z" fill="#555388"/>
  </g>
  <defs>
    <linearGradient id="paint0_linear" x1="128.846" y1="198.617" x2="128.846" y2="9.821" gradientUnits="userSpaceOnUse">
      <stop stop-color="gray" stop-opacity=".25"/>
      <stop offset=".54" stop-color="gray" stop-opacity=".12"/>
      <stop offset="1" stop-color="gray" stop-opacity=".1"/>
    </linearGradient>
    <linearGradient id="paint1_linear" x1="9370.89" y1="15484.9" x2="9370.89" y2="11824" gradientUnits="userSpaceOnUse">
      <stop stop-color="gray" stop-opacity=".25"/>
      <stop offset=".54" stop-color="gray" stop-opacity=".12"/>
      <stop offset="1" stop-color="gray" stop-opacity=".1"/>
    </linearGradient>
    <linearGradient id="paint2_linear" x1="-43808.6" y1="117896" x2="-43808.6" y2="44190" gradientUnits="userSpaceOnUse">
      <stop stop-color="gray" stop-opacity=".25"/>
      <stop offset=".54" stop-color="gray" stop-opacity=".12"/>
      <stop offset="1" stop-color="gray" stop-opacity=".1"/>
    </linearGradient>
    <linearGradient id="paint3_linear" x1="67933.7" y1="72917.4" x2="67933.7" y2="7010.58" gradientUnits="userSpaceOnUse">
      <stop stop-color="gray" stop-opacity=".25"/>
      <stop offset=".54" stop-color="gray" stop-opacity=".12"/>
      <stop offset="1" stop-color="gray" stop-opacity=".1"/>
    </linearGradient>
    <clipPath id="clip0">
      <path fill="#fff" d="M0 0h279v211H0z"/>
    </clipPath>
  </defs>
</svg>