<svg width="81" height="82" viewBox="0 0 81 82" fill="none" xmlns="http://www.w3.org/2000/svg">
  <path d="M20.9999 80.9995H8.99995C6.87823 80.9995 4.84341 80.1566 3.34313 78.6564C1.84285 77.1561 1 75.1213 1 72.9995V44.9997C1 42.878 1.84285 40.8432 3.34313 39.3429C4.84341 37.8426 6.87823 36.9998 8.99995 36.9998H20.9999M48.9997 28.9998V12.9999C48.9997 9.81735 47.7354 6.76512 45.485 4.5147C43.2346 2.26427 40.1823 1 36.9998 1L20.9999 36.9998V80.9995H66.1196C68.0489 81.0213 69.9211 80.3451 71.3912 79.0955C72.8613 77.8459 73.8302 76.1071 74.1195 74.1995L79.6395 38.1998C79.8135 37.0532 79.7362 35.8825 79.4129 34.7688C79.0895 33.6551 78.5279 32.625 77.7669 31.7499C77.006 30.8747 76.0638 30.1755 75.0058 29.7007C73.9478 29.2258 72.7992 28.9867 71.6395 28.9998H48.9997Z" stroke="#7379E2" stroke-width="2" stroke-linecap="round" stroke-linejoin="round"/>
</svg>
